<svg width="717" height="619" viewBox="0 0 717 619" fill="none" xmlns="http://www.w3.org/2000/svg">
<g clip-path="url(#clip0)">
<path d="M368.5 328.5C368.5 403.037 307.856 463.5 233 463.5C158.144 463.5 97.5 403.037 97.5 328.5C97.5 253.963 158.144 193.5 233 193.5C307.856 193.5 368.5 253.963 368.5 328.5Z" fill="white" stroke="#5E60CE" stroke-width="13"/>
<path d="M225.96 250.44L210.84 250.08C211.02 252.24 210.66 255.48 210.48 258.72C210.12 262.68 209.58 267.36 209.04 272.58C204.9 272.76 200.94 272.76 196.8 272.76C189.06 272.76 173.4 271.5 167.1 270.42L167.46 283.92C174.84 284.46 188.88 285.18 196.62 285.18C200.22 285.18 203.82 285.18 207.6 285C206.88 293.46 205.98 302.46 205.62 311.46C180.78 322.98 160.62 346.56 160.62 369.78C160.62 385.08 169.98 392.46 181.86 392.46C191.76 392.46 202.56 388.5 212.46 382.56C213.36 386.16 214.26 389.58 215.34 392.64L228.3 388.68C226.86 384.18 225.42 379.32 223.98 374.1C239.28 361.14 253.86 341.16 264.12 315.6C280.86 320.46 290.04 332.7 290.04 346.38C290.04 369.78 269.88 386.52 237.3 389.94L245.04 402C286.8 395.34 303.9 373.02 303.9 347.1C303.9 327.3 290.58 310.74 268.08 304.8C268.08 304.44 268.26 304.26 268.26 304.08C269.16 301.2 270.78 296.34 271.86 293.82L257.64 290.22C257.46 293.28 256.56 297.96 255.66 300.66C255.48 301.38 255.3 301.92 255.12 302.46C252.96 302.28 250.8 302.28 248.46 302.28C239.28 302.28 228.3 303.9 218.22 306.78C218.76 299.22 219.3 291.66 220.2 284.64C242.16 283.56 266.1 281.04 285 277.8L284.82 264.48C266.46 268.8 244.5 271.14 221.64 272.22C222.36 267 223.08 262.32 223.8 258.54C224.34 256.02 225.06 252.78 225.96 250.44ZM217.68 326.76C217.68 324.24 217.68 321.9 217.86 319.38C226.14 316.32 236.58 313.62 248.28 313.62C249.36 313.62 250.44 313.62 251.34 313.62C243.78 333.78 232.8 348.36 220.74 359.7C218.94 349.26 217.68 338.28 217.68 326.76ZM174.3 367.44C174.3 352.68 187.62 334.86 205.08 324.96C205.08 326.04 205.08 327.12 205.08 328.2C205.08 341.7 206.88 356.28 209.4 369.06C200.22 375.54 191.58 378.6 184.56 378.6C177.72 378.6 174.3 374.82 174.3 367.44Z" fill="#5F5858"/>
<path d="M112.421 466.816L124.766 418.016L163.153 450.578L112.421 466.816Z" fill="#5E60CE" stroke="#5E60CE" stroke-width="3.5"/>
<path d="M583.5 433.5C583.5 508.037 522.856 568.5 448 568.5C373.144 568.5 312.5 508.037 312.5 433.5C312.5 358.963 373.144 298.5 448 298.5C522.856 298.5 583.5 358.963 583.5 433.5Z" fill="white" stroke="white" stroke-width="13"/>
<path d="M592.5 437C592.5 511.239 531.878 571.5 457 571.5C382.122 571.5 321.5 511.239 321.5 437C321.5 362.761 382.122 302.5 457 302.5C531.878 302.5 592.5 362.761 592.5 437Z" fill="white" stroke="#5E60CE" stroke-width="13"/>
<path d="M386.52 497.34C382.68 497.34 379.38 496.32 376.62 494.28C373.98 492.24 372.24 489.6 371.4 486.36L379.68 481.86C380.28 483.42 381.12 484.74 382.2 485.82C383.4 486.78 384.78 487.26 386.34 487.26C387.78 487.26 388.92 486.78 389.76 485.82C390.72 484.86 391.68 483.24 392.64 480.96L438.72 370.26H442.32L494.7 495H483.18L466.08 454.14H414.78L401.28 487.62C400.08 490.62 398.1 493.02 395.34 494.82C392.58 496.5 389.64 497.34 386.52 497.34ZM461.76 444.06L442.32 395.64L440.34 388.44L438.54 395.64L419.1 444.06H461.76ZM518.198 368.28H530.798L529.178 469.98H519.818L518.198 368.28ZM524.318 497.34C522.278 497.34 520.478 496.56 518.918 495C517.478 493.56 516.758 491.82 516.758 489.78C516.758 487.62 517.478 485.82 518.918 484.38C520.478 482.82 522.278 482.04 524.318 482.04C526.478 482.04 528.278 482.82 529.718 484.38C531.278 485.82 532.058 487.62 532.058 489.78C532.058 491.82 531.278 493.56 529.718 495C528.278 496.56 526.478 497.34 524.318 497.34Z" fill="#5F5858"/>
<path d="M538.987 550.786L573.64 514.277L591.173 561.461L538.987 550.786Z" fill="#5E60CE" stroke="#5E60CE" stroke-width="3.5"/>
<path d="M36.0963 52.544C35.8803 51.92 35.5443 51.692 35.0883 51.86C34.8963 51.908 34.7643 52.004 34.6923 52.148L32.7483 50.456C33.1563 49.856 33.7683 49.424 34.5843 49.16C34.9923 49.04 35.3523 48.98 35.6643 48.98C36.4083 48.98 37.0683 49.22 37.6443 49.7C38.2203 50.156 38.6283 50.816 38.8683 51.68L44.4123 69.464L44.5563 70.868L44.7363 69.464L51.0003 49.268H53.6643L59.8203 69.464L60.0723 70.976L60.2523 69.464L66.5163 49.268H69.4683L61.4043 74.036H58.7403L52.2963 54.308L45.9243 74.036H43.2603L36.0963 52.544ZM79.1065 74.36C77.3305 74.36 75.8065 73.976 74.5345 73.208C73.2865 72.416 72.3385 71.36 71.6905 70.04C71.0425 68.696 70.7185 67.196 70.7185 65.54C70.7185 63.908 71.0305 62.324 71.6545 60.788C72.2785 59.252 73.2145 57.98 74.4625 56.972C75.7105 55.964 77.2465 55.46 79.0705 55.46C80.2705 55.46 81.3865 55.7 82.4185 56.18C83.4505 56.636 84.2665 57.308 84.8665 58.196C85.4905 59.06 85.8025 60.068 85.8025 61.22C85.8025 63.068 85.0465 64.52 83.5345 65.576C82.0225 66.632 80.0545 67.136 77.6305 67.088L73.8865 67.016C74.1505 68.504 74.7265 69.656 75.6145 70.472C76.5265 71.264 77.7265 71.66 79.2145 71.66C81.1585 71.66 83.0065 71.012 84.7585 69.716L86.3785 71.768C84.0985 73.496 81.6745 74.36 79.1065 74.36ZM77.6305 64.496C79.2385 64.496 80.5105 64.22 81.4465 63.668C82.3825 63.116 82.8505 62.288 82.8505 61.184C82.8505 60.2 82.4905 59.444 81.7705 58.916C81.0745 58.388 80.2345 58.124 79.2505 58.124C78.1465 58.124 77.1865 58.46 76.3705 59.132C75.5545 59.78 74.9305 60.596 74.4985 61.58C74.0665 62.564 73.8145 63.536 73.7425 64.496H77.6305ZM93.4457 70.796C93.4457 71.06 93.5297 71.288 93.6977 71.48C93.8657 71.648 94.0817 71.732 94.3457 71.732C94.7297 71.732 95.0297 71.516 95.2457 71.084L97.3697 72.416C97.0337 73.04 96.5897 73.532 96.0377 73.892C95.5097 74.228 94.8857 74.396 94.1657 74.396C93.0377 74.396 92.1377 74.072 91.4657 73.424C90.8177 72.752 90.4937 71.84 90.4937 70.688V47.828H93.4457V70.796ZM107.607 74.216C104.871 74.216 102.735 73.424 101.199 71.84C99.6635 70.256 98.8955 68.06 98.8955 65.252C98.8955 63.332 99.2435 61.628 99.9395 60.14C100.659 58.628 101.655 57.464 102.927 56.648C104.199 55.808 105.663 55.388 107.319 55.388C108.639 55.388 109.827 55.664 110.883 56.216C111.963 56.744 112.779 57.476 113.331 58.412C113.907 59.348 114.147 60.38 114.051 61.508H111.171C111.267 60.524 110.967 59.708 110.271 59.06C109.575 58.388 108.639 58.052 107.463 58.052C106.359 58.052 105.375 58.352 104.511 58.952C103.671 59.552 103.011 60.404 102.531 61.508C102.075 62.612 101.847 63.872 101.847 65.288C101.847 67.304 102.339 68.852 103.323 69.932C104.331 71.012 105.759 71.552 107.607 71.552C108.423 71.552 109.251 71.408 110.091 71.12C110.931 70.832 111.987 70.34 113.259 69.644L114.627 71.876C112.515 73.436 110.175 74.216 107.607 74.216ZM126.62 74.36C124.916 74.36 123.38 73.952 122.012 73.136C120.668 72.32 119.612 71.204 118.844 69.788C118.076 68.348 117.692 66.728 117.692 64.928C117.692 63.128 118.076 61.508 118.844 60.068C119.636 58.604 120.704 57.464 122.048 56.648C123.416 55.808 124.952 55.388 126.656 55.388C128.36 55.388 129.884 55.796 131.228 56.612C132.596 57.428 133.664 58.568 134.432 60.032C135.2 61.472 135.584 63.092 135.584 64.892C135.584 66.692 135.2 68.312 134.432 69.752C133.664 71.192 132.596 72.32 131.228 73.136C129.86 73.952 128.324 74.36 126.62 74.36ZM126.656 71.696C128.456 71.696 129.896 71.072 130.976 69.824C132.08 68.576 132.632 66.932 132.632 64.892C132.632 62.828 132.08 61.172 130.976 59.924C129.896 58.676 128.456 58.052 126.656 58.052C125.48 58.052 124.436 58.34 123.524 58.916C122.612 59.492 121.904 60.296 121.4 61.328C120.896 62.36 120.644 63.548 120.644 64.892C120.644 66.932 121.196 68.576 122.3 69.824C123.404 71.072 124.856 71.696 126.656 71.696ZM167.803 72.416C167.467 73.04 167.023 73.532 166.471 73.892C165.943 74.228 165.319 74.396 164.599 74.396C163.471 74.396 162.571 74.072 161.899 73.424C161.251 72.752 160.927 71.84 160.927 70.688V61.4C160.831 60.224 160.543 59.396 160.063 58.916C159.583 58.436 158.863 58.196 157.903 58.196C156.943 58.196 156.079 58.436 155.311 58.916C154.567 59.372 153.907 60.164 153.331 61.292V74.036H150.379V61.868C150.379 60.692 150.127 59.792 149.623 59.168C149.119 58.52 148.375 58.196 147.391 58.196C146.407 58.196 145.495 58.484 144.655 59.06C143.815 59.612 143.203 60.32 142.819 61.184V74.036H139.867V61.4C139.867 59.528 139.363 58.16 138.355 57.296L140.335 55.46C140.719 55.676 141.103 56.024 141.487 56.504C141.871 56.96 142.183 57.488 142.423 58.088C143.095 57.296 143.875 56.672 144.763 56.216C145.651 55.76 146.587 55.532 147.571 55.532C148.627 55.532 149.599 55.796 150.487 56.324C151.375 56.852 152.059 57.56 152.539 58.448C153.235 57.56 154.051 56.852 154.987 56.324C155.923 55.796 156.907 55.532 157.939 55.532C159.739 55.532 161.179 56.024 162.259 57.008C163.339 57.992 163.879 59.432 163.879 61.328V70.796C163.879 71.06 163.963 71.288 164.131 71.48C164.299 71.648 164.515 71.732 164.779 71.732C165.163 71.732 165.463 71.516 165.679 71.084L167.803 72.416ZM177.672 74.36C175.896 74.36 174.372 73.976 173.1 73.208C171.852 72.416 170.904 71.36 170.256 70.04C169.608 68.696 169.284 67.196 169.284 65.54C169.284 63.908 169.596 62.324 170.22 60.788C170.844 59.252 171.78 57.98 173.028 56.972C174.276 55.964 175.812 55.46 177.636 55.46C178.836 55.46 179.952 55.7 180.984 56.18C182.016 56.636 182.832 57.308 183.432 58.196C184.056 59.06 184.368 60.068 184.368 61.22C184.368 63.068 183.612 64.52 182.1 65.576C180.588 66.632 178.62 67.136 176.196 67.088L172.452 67.016C172.716 68.504 173.292 69.656 174.18 70.472C175.092 71.264 176.292 71.66 177.78 71.66C179.724 71.66 181.572 71.012 183.324 69.716L184.944 71.768C182.664 73.496 180.24 74.36 177.672 74.36ZM176.196 64.496C177.804 64.496 179.076 64.22 180.012 63.668C180.948 63.116 181.416 62.288 181.416 61.184C181.416 60.2 181.056 59.444 180.336 58.916C179.64 58.388 178.8 58.124 177.816 58.124C176.712 58.124 175.752 58.46 174.936 59.132C174.12 59.78 173.496 60.596 173.064 61.58C172.632 62.564 172.38 63.536 172.308 64.496H176.196ZM188.896 48.584H192.172L191.848 69.176H189.22L188.896 48.584ZM190.48 74.648C190 74.648 189.568 74.456 189.184 74.072C188.8 73.688 188.608 73.256 188.608 72.776C188.608 72.272 188.8 71.828 189.184 71.444C189.568 71.06 190 70.868 190.48 70.868C190.984 70.868 191.428 71.06 191.812 71.444C192.22 71.828 192.424 72.272 192.424 72.776C192.424 73.256 192.22 73.688 191.812 74.072C191.428 74.456 190.984 74.648 190.48 74.648ZM216.496 74.72C214.24 74.72 212.296 74.108 210.664 72.884C209.032 71.636 208.012 70.016 207.604 68.024L210.088 66.944C210.424 68.432 211.18 69.644 212.356 70.58C213.556 71.516 214.96 71.984 216.568 71.984C218.248 71.984 219.616 71.504 220.672 70.544C221.752 69.56 222.292 68.3 222.292 66.764C222.292 65.972 222.136 65.312 221.824 64.784C221.512 64.232 220.972 63.716 220.204 63.236C219.436 62.756 218.344 62.228 216.928 61.652C214.528 60.668 212.8 59.648 211.744 58.592C210.688 57.512 210.16 56.252 210.16 54.812C210.16 53.66 210.46 52.616 211.06 51.68C211.684 50.72 212.524 49.976 213.58 49.448C214.636 48.896 215.812 48.62 217.108 48.62C218.236 48.62 219.256 48.824 220.168 49.232C221.104 49.64 221.836 50.204 222.364 50.924C222.916 51.62 223.192 52.388 223.192 53.228C223.192 54.26 222.856 55.1 222.184 55.748C221.512 56.396 220.66 56.72 219.628 56.72C219.316 56.72 219.076 56.708 218.908 56.684L219.124 54.236C219.268 54.284 219.376 54.308 219.448 54.308C219.688 54.308 219.892 54.212 220.06 54.02C220.252 53.804 220.348 53.552 220.348 53.264C220.348 52.736 220.036 52.292 219.412 51.932C218.788 51.548 218.044 51.356 217.18 51.356C216.076 51.356 215.116 51.68 214.3 52.328C213.484 52.976 213.076 53.756 213.076 54.668C213.076 55.484 213.484 56.252 214.3 56.972C215.116 57.668 216.364 58.364 218.044 59.06C220.612 60.116 222.46 61.244 223.588 62.444C224.716 63.62 225.28 65.048 225.28 66.728C225.28 68.24 224.896 69.608 224.128 70.832C223.36 72.032 222.304 72.98 220.96 73.676C219.64 74.372 218.152 74.72 216.496 74.72ZM237.083 74.36C235.307 74.36 233.783 73.976 232.511 73.208C231.263 72.416 230.315 71.36 229.667 70.04C229.019 68.696 228.695 67.196 228.695 65.54C228.695 63.908 229.007 62.324 229.631 60.788C230.255 59.252 231.191 57.98 232.439 56.972C233.687 55.964 235.223 55.46 237.047 55.46C238.247 55.46 239.363 55.7 240.395 56.18C241.427 56.636 242.243 57.308 242.843 58.196C243.467 59.06 243.779 60.068 243.779 61.22C243.779 63.068 243.023 64.52 241.511 65.576C239.999 66.632 238.031 67.136 235.607 67.088L231.863 67.016C232.127 68.504 232.703 69.656 233.591 70.472C234.503 71.264 235.703 71.66 237.191 71.66C239.135 71.66 240.983 71.012 242.735 69.716L244.355 71.768C242.075 73.496 239.651 74.36 237.083 74.36ZM235.607 64.496C237.215 64.496 238.487 64.22 239.423 63.668C240.359 63.116 240.827 62.288 240.827 61.184C240.827 60.2 240.467 59.444 239.747 58.916C239.051 58.388 238.211 58.124 237.227 58.124C236.123 58.124 235.163 58.46 234.347 59.132C233.531 59.78 232.907 60.596 232.475 61.58C232.043 62.564 231.791 63.536 231.719 64.496H235.607ZM251.422 70.796C251.422 71.06 251.506 71.288 251.674 71.48C251.842 71.648 252.058 71.732 252.322 71.732C252.706 71.732 253.006 71.516 253.222 71.084L255.346 72.416C255.01 73.04 254.566 73.532 254.014 73.892C253.486 74.228 252.862 74.396 252.142 74.396C251.014 74.396 250.114 74.072 249.442 73.424C248.794 72.752 248.47 71.84 248.47 70.688V47.828H251.422V70.796ZM265.224 74.36C263.448 74.36 261.924 73.976 260.652 73.208C259.404 72.416 258.456 71.36 257.808 70.04C257.16 68.696 256.836 67.196 256.836 65.54C256.836 63.908 257.148 62.324 257.772 60.788C258.396 59.252 259.332 57.98 260.58 56.972C261.828 55.964 263.364 55.46 265.188 55.46C266.388 55.46 267.504 55.7 268.536 56.18C269.568 56.636 270.384 57.308 270.984 58.196C271.608 59.06 271.92 60.068 271.92 61.22C271.92 63.068 271.164 64.52 269.652 65.576C268.14 66.632 266.172 67.136 263.748 67.088L260.004 67.016C260.268 68.504 260.844 69.656 261.732 70.472C262.644 71.264 263.844 71.66 265.332 71.66C267.276 71.66 269.124 71.012 270.876 69.716L272.496 71.768C270.216 73.496 267.792 74.36 265.224 74.36ZM263.748 64.496C265.356 64.496 266.628 64.22 267.564 63.668C268.5 63.116 268.968 62.288 268.968 61.184C268.968 60.2 268.608 59.444 267.888 58.916C267.192 58.388 266.352 58.124 265.368 58.124C264.264 58.124 263.304 58.46 262.488 59.132C261.672 59.78 261.048 60.596 260.616 61.58C260.184 62.564 259.932 63.536 259.86 64.496H263.748ZM284.559 74.216C281.823 74.216 279.687 73.424 278.151 71.84C276.615 70.256 275.847 68.06 275.847 65.252C275.847 63.332 276.195 61.628 276.891 60.14C277.611 58.628 278.607 57.464 279.879 56.648C281.151 55.808 282.615 55.388 284.271 55.388C285.591 55.388 286.779 55.664 287.835 56.216C288.915 56.744 289.731 57.476 290.283 58.412C290.859 59.348 291.099 60.38 291.003 61.508H288.123C288.219 60.524 287.919 59.708 287.223 59.06C286.527 58.388 285.591 58.052 284.415 58.052C283.311 58.052 282.327 58.352 281.463 58.952C280.623 59.552 279.963 60.404 279.483 61.508C279.027 62.612 278.799 63.872 278.799 65.288C278.799 67.304 279.291 68.852 280.275 69.932C281.283 71.012 282.711 71.552 284.559 71.552C285.375 71.552 286.203 71.408 287.043 71.12C287.883 70.832 288.939 70.34 290.211 69.644L291.579 71.876C289.467 73.436 287.127 74.216 284.559 74.216ZM300.448 74.36C298.768 74.36 297.496 73.856 296.632 72.848C295.792 71.816 295.372 70.388 295.372 68.564V51.356H298.324V56H303.832V58.664H298.324V68.564C298.324 69.428 298.504 70.16 298.864 70.76C299.224 71.336 299.752 71.624 300.448 71.624C301.144 71.624 301.732 71.432 302.212 71.048C302.692 70.64 303.064 70.1 303.328 69.428L305.632 70.904C304.48 73.208 302.752 74.36 300.448 74.36ZM326.588 74.36C324.98 74.36 323.588 73.94 322.412 73.1C321.26 72.236 320.372 71.084 319.748 69.644C319.148 68.204 318.848 66.644 318.848 64.964C318.848 63.14 319.196 61.508 319.892 60.068C320.588 58.628 321.608 57.488 322.952 56.648C324.32 55.808 325.952 55.388 327.848 55.388C328.4 55.388 329.084 55.424 329.9 55.496C330.74 55.544 331.448 55.616 332.024 55.712H334.436V70.652C334.436 70.988 334.508 71.252 334.652 71.444C334.82 71.612 335.06 71.696 335.372 71.696C335.78 71.696 336.104 71.492 336.344 71.084L338.36 72.416C338.048 73.016 337.592 73.496 336.992 73.856C336.416 74.192 335.792 74.36 335.12 74.36C334.232 74.36 333.464 74.108 332.816 73.604C332.192 73.076 331.856 72.464 331.808 71.768V71.804C331.4 72.596 330.716 73.22 329.756 73.676C328.796 74.132 327.74 74.36 326.588 74.36ZM326.804 71.696C327.764 71.696 328.616 71.444 329.36 70.94C330.104 70.436 330.668 69.8 331.052 69.032C331.268 68.624 331.388 68.276 331.412 67.988C331.46 67.7 331.484 67.376 331.484 67.016V58.304L329.972 58.196C328.772 58.1 327.968 58.052 327.56 58.052C325.736 58.052 324.32 58.7 323.312 59.996C322.304 61.292 321.8 62.936 321.8 64.928C321.8 66.776 322.244 68.372 323.132 69.716C324.02 71.036 325.244 71.696 326.804 71.696ZM360.062 74.216C357.326 74.216 355.19 73.424 353.654 71.84C352.118 70.256 351.35 68.06 351.35 65.252C351.35 63.332 351.698 61.628 352.394 60.14C353.114 58.628 354.11 57.464 355.382 56.648C356.654 55.808 358.118 55.388 359.774 55.388C361.094 55.388 362.282 55.664 363.338 56.216C364.418 56.744 365.234 57.476 365.786 58.412C366.362 59.348 366.602 60.38 366.506 61.508H363.626C363.722 60.524 363.422 59.708 362.726 59.06C362.03 58.388 361.094 58.052 359.918 58.052C358.814 58.052 357.83 58.352 356.966 58.952C356.126 59.552 355.466 60.404 354.986 61.508C354.53 62.612 354.302 63.872 354.302 65.288C354.302 67.304 354.794 68.852 355.778 69.932C356.786 71.012 358.214 71.552 360.062 71.552C360.878 71.552 361.706 71.408 362.546 71.12C363.386 70.832 364.442 70.34 365.714 69.644L367.082 71.876C364.97 73.436 362.63 74.216 360.062 74.216ZM385.743 70.796C385.743 71.06 385.827 71.288 385.995 71.48C386.163 71.648 386.379 71.732 386.643 71.732C387.027 71.732 387.327 71.516 387.543 71.084L389.667 72.416C389.331 73.04 388.887 73.532 388.335 73.892C387.807 74.228 387.183 74.396 386.463 74.396C385.335 74.396 384.435 74.072 383.763 73.424C383.115 72.752 382.791 71.84 382.791 70.688V61.472C382.791 59.192 381.627 58.052 379.299 58.052C378.243 58.052 377.331 58.316 376.563 58.844C375.795 59.348 374.991 60.152 374.151 61.256V73.928H371.199V47.72H374.151V57.656C375.711 56.096 377.511 55.316 379.551 55.316C381.543 55.316 383.067 55.844 384.123 56.9C385.203 57.956 385.743 59.444 385.743 61.364V70.796ZM398.867 74.36C397.259 74.36 395.867 73.94 394.691 73.1C393.539 72.236 392.651 71.084 392.027 69.644C391.427 68.204 391.127 66.644 391.127 64.964C391.127 63.14 391.475 61.508 392.171 60.068C392.867 58.628 393.887 57.488 395.231 56.648C396.599 55.808 398.231 55.388 400.127 55.388C400.679 55.388 401.363 55.424 402.179 55.496C403.019 55.544 403.727 55.616 404.303 55.712H406.715V70.652C406.715 70.988 406.787 71.252 406.931 71.444C407.099 71.612 407.339 71.696 407.651 71.696C408.059 71.696 408.383 71.492 408.623 71.084L410.639 72.416C410.327 73.016 409.871 73.496 409.271 73.856C408.695 74.192 408.071 74.36 407.399 74.36C406.511 74.36 405.743 74.108 405.095 73.604C404.471 73.076 404.135 72.464 404.087 71.768V71.804C403.679 72.596 402.995 73.22 402.035 73.676C401.075 74.132 400.019 74.36 398.867 74.36ZM399.083 71.696C400.043 71.696 400.895 71.444 401.639 70.94C402.383 70.436 402.947 69.8 403.331 69.032C403.547 68.624 403.667 68.276 403.691 67.988C403.739 67.7 403.763 67.376 403.763 67.016V58.304L402.251 58.196C401.051 58.1 400.247 58.052 399.839 58.052C398.015 58.052 396.599 58.7 395.591 59.996C394.583 61.292 394.079 62.936 394.079 64.928C394.079 66.776 394.523 68.372 395.411 69.716C396.299 71.036 397.523 71.696 399.083 71.696ZM418.541 74.36C416.861 74.36 415.589 73.856 414.725 72.848C413.885 71.816 413.465 70.388 413.465 68.564V51.356H416.417V56H421.925V58.664H416.417V68.564C416.417 69.428 416.597 70.16 416.957 70.76C417.317 71.336 417.845 71.624 418.541 71.624C419.237 71.624 419.825 71.432 420.305 71.048C420.785 70.64 421.157 70.1 421.421 69.428L423.725 70.904C422.573 73.208 420.845 74.36 418.541 74.36ZM438.31 55.388C438.31 52.652 438.814 50.612 439.822 49.268C440.854 47.924 442.402 47.252 444.466 47.252C446.122 47.252 447.442 47.768 448.426 48.8C449.41 49.832 449.902 51.224 449.902 52.976C449.902 54.272 449.626 55.424 449.074 56.432C448.522 57.44 447.742 58.232 446.734 58.808C445.726 59.36 444.574 59.636 443.278 59.636C442.918 59.636 442.642 59.624 442.45 59.6L441.262 59.492V64.316H446.446V66.98H441.262V83.072H438.31V55.388ZM442.45 56.936C443.842 56.936 444.934 56.588 445.726 55.892C446.542 55.172 446.95 54.188 446.95 52.94C446.95 51.98 446.722 51.236 446.266 50.708C445.81 50.18 445.186 49.916 444.394 49.916C443.338 49.916 442.546 50.42 442.018 51.428C441.514 52.436 441.262 53.996 441.262 56.108V56.936H442.45ZM460.697 55.388C461.393 55.388 462.221 55.508 463.181 55.748L463.109 58.592C462.149 58.328 461.369 58.196 460.769 58.196C459.641 58.196 458.765 58.46 458.141 58.988C457.421 59.564 456.797 60.332 456.269 61.292V74.036H453.317V61.292C453.317 59.42 452.813 58.052 451.805 57.188L453.785 55.352C454.145 55.568 454.505 55.892 454.865 56.324C455.249 56.756 455.561 57.248 455.801 57.8C456.329 57.128 456.869 56.612 457.421 56.252C458.333 55.676 459.425 55.388 460.697 55.388ZM473.763 74.36C472.059 74.36 470.523 73.952 469.155 73.136C467.811 72.32 466.755 71.204 465.987 69.788C465.219 68.348 464.835 66.728 464.835 64.928C464.835 63.128 465.219 61.508 465.987 60.068C466.779 58.604 467.847 57.464 469.191 56.648C470.559 55.808 472.095 55.388 473.799 55.388C475.503 55.388 477.027 55.796 478.371 56.612C479.739 57.428 480.807 58.568 481.575 60.032C482.343 61.472 482.727 63.092 482.727 64.892C482.727 66.692 482.343 68.312 481.575 69.752C480.807 71.192 479.739 72.32 478.371 73.136C477.003 73.952 475.467 74.36 473.763 74.36ZM473.799 71.696C475.599 71.696 477.039 71.072 478.119 69.824C479.223 68.576 479.775 66.932 479.775 64.892C479.775 62.828 479.223 61.172 478.119 59.924C477.039 58.676 475.599 58.052 473.799 58.052C472.623 58.052 471.579 58.34 470.667 58.916C469.755 59.492 469.047 60.296 468.543 61.328C468.039 62.36 467.787 63.548 467.787 64.892C467.787 66.932 468.339 68.576 469.443 69.824C470.547 71.072 471.999 71.696 473.799 71.696ZM514.946 72.416C514.61 73.04 514.166 73.532 513.614 73.892C513.086 74.228 512.462 74.396 511.742 74.396C510.614 74.396 509.714 74.072 509.042 73.424C508.394 72.752 508.07 71.84 508.07 70.688V61.4C507.974 60.224 507.686 59.396 507.206 58.916C506.726 58.436 506.006 58.196 505.046 58.196C504.086 58.196 503.222 58.436 502.454 58.916C501.71 59.372 501.05 60.164 500.474 61.292V74.036H497.522V61.868C497.522 60.692 497.27 59.792 496.766 59.168C496.262 58.52 495.518 58.196 494.534 58.196C493.55 58.196 492.638 58.484 491.798 59.06C490.958 59.612 490.346 60.32 489.962 61.184V74.036H487.01V61.4C487.01 59.528 486.506 58.16 485.498 57.296L487.478 55.46C487.862 55.676 488.246 56.024 488.63 56.504C489.014 56.96 489.326 57.488 489.566 58.088C490.238 57.296 491.018 56.672 491.906 56.216C492.794 55.76 493.73 55.532 494.714 55.532C495.77 55.532 496.742 55.796 497.63 56.324C498.518 56.852 499.202 57.56 499.682 58.448C500.378 57.56 501.194 56.852 502.13 56.324C503.066 55.796 504.05 55.532 505.082 55.532C506.882 55.532 508.322 56.024 509.402 57.008C510.482 57.992 511.022 59.432 511.022 61.328V70.796C511.022 71.06 511.106 71.288 511.274 71.48C511.442 71.648 511.658 71.732 511.922 71.732C512.306 71.732 512.606 71.516 512.822 71.084L514.946 72.416ZM533.997 74.36C532.317 74.36 531.045 73.856 530.181 72.848C529.341 71.816 528.921 70.388 528.921 68.564V51.356H531.873V56H537.381V58.664H531.873V68.564C531.873 69.428 532.053 70.16 532.413 70.76C532.773 71.336 533.301 71.624 533.997 71.624C534.693 71.624 535.281 71.432 535.761 71.048C536.241 70.64 536.613 70.1 536.877 69.428L539.181 70.904C538.029 73.208 536.301 74.36 533.997 74.36ZM557.491 70.796C557.491 71.06 557.575 71.288 557.743 71.48C557.911 71.648 558.127 71.732 558.391 71.732C558.775 71.732 559.075 71.516 559.291 71.084L561.415 72.416C561.079 73.04 560.635 73.532 560.083 73.892C559.555 74.228 558.931 74.396 558.211 74.396C557.083 74.396 556.183 74.072 555.511 73.424C554.863 72.752 554.539 71.84 554.539 70.688V61.472C554.539 59.192 553.375 58.052 551.047 58.052C549.991 58.052 549.079 58.316 548.311 58.844C547.543 59.348 546.739 60.152 545.899 61.256V73.928H542.947V47.72H545.899V57.656C547.459 56.096 549.259 55.316 551.299 55.316C553.291 55.316 554.815 55.844 555.871 56.9C556.951 57.956 557.491 59.444 557.491 61.364V70.796ZM571.263 74.36C569.487 74.36 567.963 73.976 566.691 73.208C565.443 72.416 564.495 71.36 563.847 70.04C563.199 68.696 562.875 67.196 562.875 65.54C562.875 63.908 563.187 62.324 563.811 60.788C564.435 59.252 565.371 57.98 566.619 56.972C567.867 55.964 569.403 55.46 571.227 55.46C572.427 55.46 573.543 55.7 574.575 56.18C575.607 56.636 576.423 57.308 577.023 58.196C577.647 59.06 577.959 60.068 577.959 61.22C577.959 63.068 577.203 64.52 575.691 65.576C574.179 66.632 572.211 67.136 569.787 67.088L566.043 67.016C566.307 68.504 566.883 69.656 567.771 70.472C568.683 71.264 569.883 71.66 571.371 71.66C573.315 71.66 575.163 71.012 576.915 69.716L578.535 71.768C576.255 73.496 573.831 74.36 571.263 74.36ZM569.787 64.496C571.395 64.496 572.667 64.22 573.603 63.668C574.539 63.116 575.007 62.288 575.007 61.184C575.007 60.2 574.647 59.444 573.927 58.916C573.231 58.388 572.391 58.124 571.407 58.124C570.303 58.124 569.343 58.46 568.527 59.132C567.711 59.78 567.087 60.596 566.655 61.58C566.223 62.564 565.971 63.536 565.899 64.496H569.787ZM596.737 70.796C596.737 71.06 596.821 71.288 596.989 71.48C597.157 71.648 597.373 71.732 597.637 71.732C598.021 71.732 598.321 71.516 598.537 71.084L600.661 72.416C600.325 73.04 599.881 73.532 599.329 73.892C598.801 74.228 598.177 74.396 597.457 74.396C596.329 74.396 595.429 74.072 594.757 73.424C594.109 72.752 593.785 71.84 593.785 70.688V47.828H596.737V70.796ZM606.958 70.796C606.958 71.06 607.042 71.288 607.21 71.48C607.378 71.648 607.594 71.732 607.858 71.732C608.242 71.732 608.542 71.516 608.758 71.084L610.882 72.416C610.546 73.04 610.102 73.532 609.55 73.892C609.022 74.228 608.398 74.396 607.678 74.396C606.55 74.396 605.65 74.072 604.978 73.424C604.33 72.752 604.006 71.84 604.006 70.688V55.964H606.958V70.796ZM605.446 52.472C604.966 52.472 604.534 52.28 604.15 51.896C603.766 51.512 603.574 51.08 603.574 50.6C603.574 50.096 603.766 49.652 604.15 49.268C604.534 48.884 604.966 48.692 605.446 48.692C605.95 48.692 606.394 48.884 606.778 49.268C607.186 49.652 607.39 50.096 607.39 50.6C607.39 51.08 607.186 51.512 606.778 51.896C606.394 52.28 605.95 52.472 605.446 52.472ZM619.699 74.36C617.059 74.36 614.731 73.352 612.715 71.336L614.407 69.356C615.319 70.148 616.183 70.736 616.999 71.12C617.815 71.48 618.679 71.66 619.591 71.66C620.767 71.66 621.691 71.408 622.363 70.904C623.059 70.376 623.407 69.656 623.407 68.744C623.407 68.192 623.263 67.748 622.975 67.412C622.711 67.076 622.315 66.788 621.787 66.548C621.283 66.284 620.431 65.912 619.231 65.432C617.911 64.904 616.879 64.448 616.135 64.064C615.415 63.656 614.839 63.152 614.407 62.552C613.975 61.928 613.759 61.16 613.759 60.248C613.759 58.76 614.287 57.56 615.343 56.648C616.399 55.736 617.767 55.28 619.447 55.28C620.431 55.28 621.415 55.448 622.399 55.784C623.407 56.096 624.199 56.504 624.775 57.008L623.515 59.132C622.435 58.34 621.175 57.944 619.735 57.944C618.823 57.944 618.091 58.136 617.539 58.52C617.011 58.88 616.747 59.384 616.747 60.032C616.747 60.704 617.011 61.232 617.539 61.616C618.091 61.976 619.027 62.42 620.347 62.948C621.835 63.548 622.999 64.088 623.839 64.568C624.679 65.048 625.315 65.612 625.747 66.26C626.179 66.884 626.395 67.676 626.395 68.636C626.395 70.34 625.771 71.72 624.523 72.776C623.275 73.832 621.667 74.36 619.699 74.36ZM635.286 74.36C633.606 74.36 632.334 73.856 631.47 72.848C630.63 71.816 630.21 70.388 630.21 68.564V51.356H633.162V56H638.67V58.664H633.162V68.564C633.162 69.428 633.342 70.16 633.702 70.76C634.062 71.336 634.59 71.624 635.286 71.624C635.982 71.624 636.57 71.432 637.05 71.048C637.53 70.64 637.902 70.1 638.166 69.428L640.47 70.904C639.318 73.208 637.59 74.36 635.286 74.36ZM659.771 74.36C658.091 74.36 656.819 73.856 655.955 72.848C655.115 71.816 654.695 70.388 654.695 68.564V51.356H657.647V56H663.155V58.664H657.647V68.564C657.647 69.428 657.827 70.16 658.187 70.76C658.547 71.336 659.075 71.624 659.771 71.624C660.467 71.624 661.055 71.432 661.535 71.048C662.015 70.64 662.387 70.1 662.651 69.428L664.955 70.904C663.803 73.208 662.075 74.36 659.771 74.36ZM675.541 74.36C673.837 74.36 672.301 73.952 670.933 73.136C669.589 72.32 668.533 71.204 667.765 69.788C666.997 68.348 666.613 66.728 666.613 64.928C666.613 63.128 666.997 61.508 667.765 60.068C668.557 58.604 669.625 57.464 670.969 56.648C672.337 55.808 673.873 55.388 675.577 55.388C677.281 55.388 678.805 55.796 680.149 56.612C681.517 57.428 682.585 58.568 683.353 60.032C684.121 61.472 684.505 63.092 684.505 64.892C684.505 66.692 684.121 68.312 683.353 69.752C682.585 71.192 681.517 72.32 680.149 73.136C678.781 73.952 677.245 74.36 675.541 74.36ZM675.577 71.696C677.377 71.696 678.817 71.072 679.897 69.824C681.001 68.576 681.553 66.932 681.553 64.892C681.553 62.828 681.001 61.172 679.897 59.924C678.817 58.676 677.377 58.052 675.577 58.052C674.401 58.052 673.357 58.34 672.445 58.916C671.533 59.492 670.825 60.296 670.321 61.328C669.817 62.36 669.565 63.548 669.565 64.892C669.565 66.932 670.117 68.576 671.221 69.824C672.325 71.072 673.777 71.696 675.577 71.696ZM252.78 119.36C250.14 119.36 247.812 118.352 245.796 116.336L247.488 114.356C248.4 115.148 249.264 115.736 250.08 116.12C250.896 116.48 251.76 116.66 252.672 116.66C253.848 116.66 254.772 116.408 255.444 115.904C256.14 115.376 256.488 114.656 256.488 113.744C256.488 113.192 256.344 112.748 256.056 112.412C255.792 112.076 255.396 111.788 254.868 111.548C254.364 111.284 253.512 110.912 252.312 110.432C250.992 109.904 249.96 109.448 249.216 109.064C248.496 108.656 247.92 108.152 247.488 107.552C247.056 106.928 246.84 106.16 246.84 105.248C246.84 103.76 247.368 102.56 248.424 101.648C249.48 100.736 250.848 100.28 252.528 100.28C253.512 100.28 254.496 100.448 255.48 100.784C256.488 101.096 257.28 101.504 257.856 102.008L256.596 104.132C255.516 103.34 254.256 102.944 252.816 102.944C251.904 102.944 251.172 103.136 250.62 103.52C250.092 103.88 249.828 104.384 249.828 105.032C249.828 105.704 250.092 106.232 250.62 106.616C251.172 106.976 252.108 107.42 253.428 107.948C254.916 108.548 256.08 109.088 256.92 109.568C257.76 110.048 258.396 110.612 258.828 111.26C259.26 111.884 259.476 112.676 259.476 113.636C259.476 115.34 258.852 116.72 257.604 117.776C256.356 118.832 254.748 119.36 252.78 119.36ZM268.368 119.36C266.688 119.36 265.416 118.856 264.552 117.848C263.712 116.816 263.292 115.388 263.292 113.564V96.356H266.244V101H271.752V103.664H266.244V113.564C266.244 114.428 266.424 115.16 266.784 115.76C267.144 116.336 267.672 116.624 268.368 116.624C269.064 116.624 269.652 116.432 270.132 116.048C270.612 115.64 270.984 115.1 271.248 114.428L273.552 115.904C272.4 118.208 270.672 119.36 268.368 119.36ZM283.022 119.36C281.414 119.36 280.022 118.94 278.846 118.1C277.694 117.236 276.806 116.084 276.182 114.644C275.582 113.204 275.282 111.644 275.282 109.964C275.282 108.14 275.63 106.508 276.326 105.068C277.022 103.628 278.042 102.488 279.386 101.648C280.754 100.808 282.386 100.388 284.282 100.388C284.834 100.388 285.518 100.424 286.334 100.496C287.174 100.544 287.882 100.616 288.458 100.712H290.87V115.652C290.87 115.988 290.942 116.252 291.086 116.444C291.254 116.612 291.494 116.696 291.806 116.696C292.214 116.696 292.538 116.492 292.778 116.084L294.794 117.416C294.482 118.016 294.026 118.496 293.426 118.856C292.85 119.192 292.226 119.36 291.554 119.36C290.666 119.36 289.898 119.108 289.25 118.604C288.626 118.076 288.29 117.464 288.242 116.768V116.804C287.834 117.596 287.15 118.22 286.19 118.676C285.23 119.132 284.174 119.36 283.022 119.36ZM283.238 116.696C284.198 116.696 285.05 116.444 285.794 115.94C286.538 115.436 287.102 114.8 287.486 114.032C287.702 113.624 287.822 113.276 287.846 112.988C287.894 112.7 287.918 112.376 287.918 112.016V103.304L286.406 103.196C285.206 103.1 284.402 103.052 283.994 103.052C282.17 103.052 280.754 103.7 279.746 104.996C278.738 106.292 278.234 107.936 278.234 109.928C278.234 111.776 278.678 113.372 279.566 114.716C280.454 116.036 281.678 116.696 283.238 116.696ZM305.576 100.388C306.272 100.388 307.1 100.508 308.06 100.748L307.988 103.592C307.028 103.328 306.248 103.196 305.648 103.196C304.52 103.196 303.644 103.46 303.02 103.988C302.3 104.564 301.676 105.332 301.148 106.292V119.036H298.196V106.292C298.196 104.42 297.692 103.052 296.684 102.188L298.664 100.352C299.024 100.568 299.384 100.892 299.744 101.324C300.128 101.756 300.44 102.248 300.68 102.8C301.208 102.128 301.748 101.612 302.3 101.252C303.212 100.676 304.304 100.388 305.576 100.388ZM316.573 119.36C314.893 119.36 313.621 118.856 312.757 117.848C311.917 116.816 311.497 115.388 311.497 113.564V96.356H314.449V101H319.957V103.664H314.449V113.564C314.449 114.428 314.629 115.16 314.989 115.76C315.349 116.336 315.877 116.624 316.573 116.624C317.269 116.624 317.857 116.432 318.337 116.048C318.817 115.64 319.189 115.1 319.453 114.428L321.757 115.904C320.605 118.208 318.877 119.36 316.573 119.36ZM343.722 119.216C340.986 119.216 338.85 118.424 337.314 116.84C335.778 115.256 335.01 113.06 335.01 110.252C335.01 108.332 335.358 106.628 336.054 105.14C336.774 103.628 337.77 102.464 339.042 101.648C340.314 100.808 341.778 100.388 343.434 100.388C344.754 100.388 345.942 100.664 346.998 101.216C348.078 101.744 348.894 102.476 349.446 103.412C350.022 104.348 350.262 105.38 350.166 106.508H347.286C347.382 105.524 347.082 104.708 346.386 104.06C345.69 103.388 344.754 103.052 343.578 103.052C342.474 103.052 341.49 103.352 340.626 103.952C339.786 104.552 339.126 105.404 338.646 106.508C338.19 107.612 337.962 108.872 337.962 110.288C337.962 112.304 338.454 113.852 339.438 114.932C340.446 116.012 341.874 116.552 343.722 116.552C344.538 116.552 345.366 116.408 346.206 116.12C347.046 115.832 348.102 115.34 349.374 114.644L350.742 116.876C348.63 118.436 346.29 119.216 343.722 119.216ZM369.403 115.796C369.403 116.06 369.487 116.288 369.655 116.48C369.823 116.648 370.039 116.732 370.303 116.732C370.687 116.732 370.987 116.516 371.203 116.084L373.327 117.416C372.991 118.04 372.547 118.532 371.995 118.892C371.467 119.228 370.843 119.396 370.123 119.396C368.995 119.396 368.095 119.072 367.423 118.424C366.775 117.752 366.451 116.84 366.451 115.688V106.472C366.451 104.192 365.287 103.052 362.959 103.052C361.903 103.052 360.991 103.316 360.223 103.844C359.455 104.348 358.651 105.152 357.811 106.256V118.928H354.859V92.72H357.811V102.656C359.371 101.096 361.171 100.316 363.211 100.316C365.203 100.316 366.727 100.844 367.783 101.9C368.863 102.956 369.403 104.444 369.403 106.364V115.796ZM382.527 119.36C380.919 119.36 379.527 118.94 378.351 118.1C377.199 117.236 376.311 116.084 375.687 114.644C375.087 113.204 374.787 111.644 374.787 109.964C374.787 108.14 375.135 106.508 375.831 105.068C376.527 103.628 377.547 102.488 378.891 101.648C380.259 100.808 381.891 100.388 383.787 100.388C384.339 100.388 385.023 100.424 385.839 100.496C386.679 100.544 387.387 100.616 387.963 100.712H390.375V115.652C390.375 115.988 390.447 116.252 390.591 116.444C390.759 116.612 390.999 116.696 391.311 116.696C391.719 116.696 392.043 116.492 392.283 116.084L394.299 117.416C393.987 118.016 393.531 118.496 392.931 118.856C392.355 119.192 391.731 119.36 391.059 119.36C390.171 119.36 389.403 119.108 388.755 118.604C388.131 118.076 387.795 117.464 387.747 116.768V116.804C387.339 117.596 386.655 118.22 385.695 118.676C384.735 119.132 383.679 119.36 382.527 119.36ZM382.743 116.696C383.703 116.696 384.555 116.444 385.299 115.94C386.043 115.436 386.607 114.8 386.991 114.032C387.207 113.624 387.327 113.276 387.351 112.988C387.399 112.7 387.423 112.376 387.423 112.016V103.304L385.911 103.196C384.711 103.1 383.907 103.052 383.499 103.052C381.675 103.052 380.259 103.7 379.251 104.996C378.243 106.292 377.739 107.936 377.739 109.928C377.739 111.776 378.183 113.372 379.071 114.716C379.959 116.036 381.183 116.696 382.743 116.696ZM402.201 119.36C400.521 119.36 399.249 118.856 398.385 117.848C397.545 116.816 397.125 115.388 397.125 113.564V96.356H400.077V101H405.585V103.664H400.077V113.564C400.077 114.428 400.257 115.16 400.617 115.76C400.977 116.336 401.505 116.624 402.201 116.624C402.897 116.624 403.485 116.432 403.965 116.048C404.445 115.64 404.817 115.1 405.081 114.428L407.385 115.904C406.233 118.208 404.505 119.36 402.201 119.36ZM415.903 119.36C414.223 119.36 412.951 118.856 412.087 117.848C411.247 116.816 410.827 115.388 410.827 113.564V96.356H413.779V101H419.287V103.664H413.779V113.564C413.779 114.428 413.959 115.16 414.319 115.76C414.679 116.336 415.207 116.624 415.903 116.624C416.599 116.624 417.187 116.432 417.667 116.048C418.147 115.64 418.519 115.1 418.783 114.428L421.087 115.904C419.935 118.208 418.207 119.36 415.903 119.36ZM427.624 115.796C427.624 116.06 427.708 116.288 427.876 116.48C428.044 116.648 428.26 116.732 428.524 116.732C428.908 116.732 429.208 116.516 429.424 116.084L431.548 117.416C431.212 118.04 430.768 118.532 430.216 118.892C429.688 119.228 429.064 119.396 428.344 119.396C427.216 119.396 426.316 119.072 425.644 118.424C424.996 117.752 424.672 116.84 424.672 115.688V100.964H427.624V115.796ZM426.112 97.472C425.632 97.472 425.2 97.28 424.816 96.896C424.432 96.512 424.24 96.08 424.24 95.6C424.24 95.096 424.432 94.652 424.816 94.268C425.2 93.884 425.632 93.692 426.112 93.692C426.616 93.692 427.06 93.884 427.444 94.268C427.852 94.652 428.056 95.096 428.056 95.6C428.056 96.08 427.852 96.512 427.444 96.896C427.06 97.28 426.616 97.472 426.112 97.472ZM453.333 117.416C452.997 118.04 452.553 118.532 452.001 118.892C451.473 119.228 450.849 119.396 450.129 119.396C449.001 119.396 448.101 119.072 447.429 118.424C446.781 117.752 446.457 116.84 446.457 115.688V106.868C446.457 105.668 446.205 104.756 445.701 104.132C445.197 103.484 444.333 103.16 443.109 103.16C442.005 103.16 441.057 103.424 440.265 103.952C439.497 104.48 438.705 105.284 437.889 106.364V119.036H434.937V106.4C434.937 104.528 434.433 103.16 433.425 102.296L435.405 100.46C435.813 100.676 436.209 101.036 436.593 101.54C436.977 102.02 437.289 102.572 437.529 103.196C439.017 101.396 440.937 100.496 443.289 100.496C445.065 100.496 446.505 100.976 447.609 101.936C448.713 102.872 449.313 104.204 449.409 105.932V115.796C449.409 116.06 449.493 116.288 449.661 116.48C449.829 116.648 450.045 116.732 450.309 116.732C450.693 116.732 450.993 116.516 451.209 116.084L453.333 117.416ZM464.653 128.792C463.621 128.792 462.673 128.54 461.809 128.036C460.945 127.556 460.249 126.884 459.721 126.02C459.217 125.18 458.965 124.256 458.965 123.248C458.965 121.568 459.613 120.152 460.909 119C458.941 118.424 457.417 117.368 456.337 115.832C455.281 114.296 454.753 112.412 454.753 110.18C454.753 108.284 455.137 106.592 455.905 105.104C456.673 103.616 457.729 102.464 459.073 101.648C460.441 100.808 462.001 100.388 463.753 100.388L465.985 100.46L468.037 100.712H470.485V122.456C470.485 124.352 469.945 125.876 468.865 127.028C467.785 128.204 466.381 128.792 464.653 128.792ZM462.565 116.588C463.645 116.588 464.689 116.156 465.697 115.292C466.249 114.836 466.693 114.332 467.029 113.78C467.365 113.228 467.533 112.736 467.533 112.304V103.088L464.725 103.052H463.609C462.505 103.052 461.497 103.352 460.585 103.952C459.697 104.552 458.989 105.38 458.461 106.436C457.957 107.468 457.705 108.632 457.705 109.928C457.705 111.128 457.921 112.244 458.353 113.276C458.809 114.284 459.409 115.088 460.153 115.688C460.897 116.288 461.701 116.588 462.565 116.588ZM464.797 126.128C465.637 126.128 466.297 125.804 466.777 125.156C467.281 124.508 467.533 123.644 467.533 122.564V116.66C467.485 116.732 467.365 116.9 467.173 117.164C466.981 117.404 466.777 117.632 466.561 117.848C466.009 118.376 465.013 119.072 463.573 119.936C462.421 120.632 461.845 121.736 461.845 123.248C461.845 124.016 462.133 124.688 462.709 125.264C463.309 125.84 464.005 126.128 464.797 126.128Z" fill="#5E60CE"/>
</g>
<defs>
<clipPath id="clip0">
<rect width="717" height="619" fill="white"/>
</clipPath>
</defs>
</svg>
