<svg width="362" height="188" viewBox="0 0 362 188" fill="none" xmlns="http://www.w3.org/2000/svg">
<g clip-path="url(#clip0)">
<path d="M1.5981 21.0411C-3.39671 11.879 3.11585 0 13.551 0H297.637C299.199 0 300.714 0.264469 302.141 0.902679C313.101 5.80651 362.389 31.3863 361.5 94.5C360.612 157.52 312.848 182.33 302.122 187.11C300.709 187.74 299.208 188 297.661 188H13.5942C3.15046 188 -3.35955 176.101 1.65133 166.938C12.1567 147.727 25.4025 118.729 25.5 94.5C25.5988 69.944 12.1895 40.4693 1.5981 21.0411Z" fill="#EFEFEF"/>
<g filter="url(#filter0_d)">
<path d="M23.5 77H360M360 113H23.5" stroke="#BF9A9A" stroke-width="2"/>
</g>
</g>
<defs>
<filter id="filter0_d" x="15.5" y="70" width="354.5" height="56" filterUnits="userSpaceOnUse" color-interpolation-filters="sRGB">
<feFlood flood-opacity="0" result="BackgroundImageFix"/>
<feColorMatrix in="SourceAlpha" type="matrix" values="0 0 0 0 0 0 0 0 0 0 0 0 0 0 0 0 0 0 127 0" result="hardAlpha"/>
<feOffset dx="1" dy="3"/>
<feGaussianBlur stdDeviation="4.5"/>
<feColorMatrix type="matrix" values="0 0 0 0 0 0 0 0 0 0 0 0 0 0 0 0 0 0 0.82 0"/>
<feBlend mode="normal" in2="BackgroundImageFix" result="effect1_dropShadow"/>
<feBlend mode="normal" in="SourceGraphic" in2="effect1_dropShadow" result="shape"/>
</filter>
<clipPath id="clip0">
<rect width="362" height="188" fill="white"/>
</clipPath>
</defs>
</svg>
