<svg width="717" height="619" viewBox="0 0 717 619" fill="none" xmlns="http://www.w3.org/2000/svg">
<g clip-path="url(#clip0)">
<path d="M368.5 328.5C368.5 403.037 307.856 463.5 233 463.5C158.144 463.5 97.5 403.037 97.5 328.5C97.5 253.963 158.144 193.5 233 193.5C307.856 193.5 368.5 253.963 368.5 328.5Z" fill="white" stroke="#5E60CE" stroke-width="13"/>
<path d="M225.96 250.44L210.84 250.08C211.02 252.24 210.66 255.48 210.48 258.72C210.12 262.68 209.58 267.36 209.04 272.58C204.9 272.76 200.94 272.76 196.8 272.76C189.06 272.76 173.4 271.5 167.1 270.42L167.46 283.92C174.84 284.46 188.88 285.18 196.62 285.18C200.22 285.18 203.82 285.18 207.6 285C206.88 293.46 205.98 302.46 205.62 311.46C180.78 322.98 160.62 346.56 160.62 369.78C160.62 385.08 169.98 392.46 181.86 392.46C191.76 392.46 202.56 388.5 212.46 382.56C213.36 386.16 214.26 389.58 215.34 392.64L228.3 388.68C226.86 384.18 225.42 379.32 223.98 374.1C239.28 361.14 253.86 341.16 264.12 315.6C280.86 320.46 290.04 332.7 290.04 346.38C290.04 369.78 269.88 386.52 237.3 389.94L245.04 402C286.8 395.34 303.9 373.02 303.9 347.1C303.9 327.3 290.58 310.74 268.08 304.8C268.08 304.44 268.26 304.26 268.26 304.08C269.16 301.2 270.78 296.34 271.86 293.82L257.64 290.22C257.46 293.28 256.56 297.96 255.66 300.66C255.48 301.38 255.3 301.92 255.12 302.46C252.96 302.28 250.8 302.28 248.46 302.28C239.28 302.28 228.3 303.9 218.22 306.78C218.76 299.22 219.3 291.66 220.2 284.64C242.16 283.56 266.1 281.04 285 277.8L284.82 264.48C266.46 268.8 244.5 271.14 221.64 272.22C222.36 267 223.08 262.32 223.8 258.54C224.34 256.02 225.06 252.78 225.96 250.44ZM217.68 326.76C217.68 324.24 217.68 321.9 217.86 319.38C226.14 316.32 236.58 313.62 248.28 313.62C249.36 313.62 250.44 313.62 251.34 313.62C243.78 333.78 232.8 348.36 220.74 359.7C218.94 349.26 217.68 338.28 217.68 326.76ZM174.3 367.44C174.3 352.68 187.62 334.86 205.08 324.96C205.08 326.04 205.08 327.12 205.08 328.2C205.08 341.7 206.88 356.28 209.4 369.06C200.22 375.54 191.58 378.6 184.56 378.6C177.72 378.6 174.3 374.82 174.3 367.44Z" fill="#5F5858"/>
<path d="M112.421 466.816L124.766 418.016L163.153 450.578L112.421 466.816Z" fill="#5E60CE" stroke="#5E60CE" stroke-width="3.5"/>
<path d="M583.5 433.5C583.5 508.037 522.856 568.5 448 568.5C373.144 568.5 312.5 508.037 312.5 433.5C312.5 358.963 373.144 298.5 448 298.5C522.856 298.5 583.5 358.963 583.5 433.5Z" fill="white" stroke="white" stroke-width="13"/>
<path d="M592.5 437C592.5 511.239 531.878 571.5 457 571.5C382.122 571.5 321.5 511.239 321.5 437C321.5 362.761 382.122 302.5 457 302.5C531.878 302.5 592.5 362.761 592.5 437Z" fill="white" stroke="#5E60CE" stroke-width="13"/>
<path d="M386.52 497.34C382.68 497.34 379.38 496.32 376.62 494.28C373.98 492.24 372.24 489.6 371.4 486.36L379.68 481.86C380.28 483.42 381.12 484.74 382.2 485.82C383.4 486.78 384.78 487.26 386.34 487.26C387.78 487.26 388.92 486.78 389.76 485.82C390.72 484.86 391.68 483.24 392.64 480.96L438.72 370.26H442.32L494.7 495H483.18L466.08 454.14H414.78L401.28 487.62C400.08 490.62 398.1 493.02 395.34 494.82C392.58 496.5 389.64 497.34 386.52 497.34ZM461.76 444.06L442.32 395.64L440.34 388.44L438.54 395.64L419.1 444.06H461.76ZM518.198 368.28H530.798L529.178 469.98H519.818L518.198 368.28ZM524.318 497.34C522.278 497.34 520.478 496.56 518.918 495C517.478 493.56 516.758 491.82 516.758 489.78C516.758 487.62 517.478 485.82 518.918 484.38C520.478 482.82 522.278 482.04 524.318 482.04C526.478 482.04 528.278 482.82 529.718 484.38C531.278 485.82 532.058 487.62 532.058 489.78C532.058 491.82 531.278 493.56 529.718 495C528.278 496.56 526.478 497.34 524.318 497.34Z" fill="#5F5858"/>
<path d="M538.987 550.786L573.64 514.277L591.173 561.461L538.987 550.786Z" fill="#5E60CE" stroke="#5E60CE" stroke-width="3.5"/>
<path d="M29.8858 69.86C29.8858 67.88 32.0098 66.584 35.7178 66.584C36.9058 66.584 38.0938 66.692 39.2458 66.944C39.2458 67.88 39.2818 68.672 39.2818 69.248C39.2818 71.732 37.9858 72.956 35.3578 72.956C31.9018 72.956 29.8858 71.84 29.8858 69.86ZM41.9458 45.74H38.5258C38.7058 46.388 38.8138 48.008 38.8138 49.304C38.8498 50.852 38.8498 53.804 38.8498 55.892C38.8498 58.052 38.9938 61.364 39.1378 64.28C38.1298 64.136 37.1218 64.064 36.0778 64.064C29.8498 64.064 27.0058 66.728 27.0058 69.968C27.0058 74.072 30.6778 75.656 35.6458 75.656C40.4338 75.656 42.2338 73.136 42.2338 70.184C42.2338 69.536 42.1978 68.708 42.1618 67.772C45.9058 69.104 49.2178 71.408 51.5218 73.748L53.2498 71.012C50.6578 68.672 46.6618 66.152 42.0538 64.892C41.8738 61.76 41.6938 58.268 41.6938 55.892C41.6938 55.784 41.6938 55.712 41.6938 55.604C44.6458 55.568 49.2538 55.352 52.4578 55.028L52.3498 52.328C49.1098 52.724 44.5378 52.904 41.6938 52.976C41.6938 51.572 41.6578 50.276 41.6938 49.304C41.7298 48.224 41.8378 46.496 41.9458 45.74ZM84.7318 62.012C84.7318 68.456 78.5758 71.912 69.8278 72.992L71.4478 75.728C80.7718 74.324 87.7918 69.932 87.7918 62.12C87.7918 56.972 83.9758 54.128 78.8638 54.128C74.7238 54.128 70.6198 55.28 68.0998 55.856C67.0198 56.108 65.7958 56.324 64.7878 56.396L65.7238 59.744C66.5878 59.384 67.6318 58.988 68.7478 58.628C70.8718 58.016 74.3998 56.828 78.5758 56.828C82.2838 56.828 84.7318 58.988 84.7318 62.012ZM69.6118 45.812L69.1438 48.548C73.2118 49.268 80.4838 49.988 84.4798 50.24L84.9118 47.468C81.3838 47.432 73.5718 46.712 69.6118 45.812ZM103.614 48.728V51.68C106.458 51.896 109.518 52.076 113.118 52.076C116.466 52.076 120.39 51.824 122.838 51.644V48.692C120.246 48.944 116.574 49.196 113.118 49.196C109.518 49.196 106.206 49.052 103.614 48.728ZM105.054 63.236L102.138 62.948C101.814 64.424 101.382 66.116 101.382 67.952C101.382 72.488 105.63 74.9 112.938 74.9C118.05 74.9 122.622 74.36 125.214 73.64L125.178 70.544C122.478 71.444 117.834 71.984 112.866 71.984C107.106 71.984 104.298 70.076 104.298 67.34C104.298 66.008 104.586 64.676 105.054 63.236ZM140.928 47.108L141.072 50.06C141.828 49.988 142.908 49.88 143.808 49.808C145.356 49.7 151.692 49.412 153.276 49.304C151.008 51.32 145.284 56.324 141.396 59.024C139.56 59.24 137.112 59.528 135.168 59.744L135.42 62.444C139.74 61.724 144.528 61.184 148.38 60.86C146.544 61.976 144.204 64.568 144.204 67.664C144.204 73.172 148.992 75.944 157.776 75.548L158.388 72.632C157.092 72.74 155.328 72.812 153.204 72.524C149.928 72.092 147.012 70.868 147.012 67.232C147.012 63.848 150.432 60.86 153.924 60.356C156.084 60.068 159.54 60.032 163.068 60.212V57.548C157.884 57.548 151.404 58.016 145.932 58.592C148.812 56.324 154.032 51.968 156.696 49.736C157.2 49.34 158.136 48.692 158.64 48.404L156.804 46.352C156.372 46.46 155.688 46.604 154.86 46.676C152.772 46.928 145.356 47.252 143.772 47.252C142.692 47.252 141.792 47.216 140.928 47.108ZM170.97 48.584H174.246L173.922 69.176H171.294L170.97 48.584ZM172.554 74.648C172.074 74.648 171.642 74.456 171.258 74.072C170.874 73.688 170.682 73.256 170.682 72.776C170.682 72.272 170.874 71.828 171.258 71.444C171.642 71.06 172.074 70.868 172.554 70.868C173.058 70.868 173.502 71.06 173.886 71.444C174.294 71.828 174.498 72.272 174.498 72.776C174.498 73.256 174.294 73.688 173.886 74.072C173.502 74.456 173.058 74.648 172.554 74.648ZM216.462 46.676H213.078C213.186 47.576 213.258 48.584 213.258 49.808V55.496C213.258 62.3 212.826 65.216 210.27 68.204C208.038 70.724 204.978 72.164 201.666 72.992L204.006 75.476C206.634 74.576 210.234 73.028 212.574 70.22C215.166 67.124 216.354 64.28 216.354 55.64V49.808C216.354 48.584 216.39 47.576 216.462 46.676ZM199.758 46.964H196.482C196.554 47.648 196.626 48.908 196.626 49.556V61.544C196.626 62.624 196.518 63.776 196.446 64.316H199.758C199.686 63.668 199.614 62.48 199.614 61.58V49.556C199.614 48.692 199.686 47.648 199.758 46.964ZM253.668 49.916L251.832 48.512C251.256 48.692 250.32 48.8 249.132 48.8H235.236C234.156 48.8 232.104 48.656 231.6 48.584V51.86C231.996 51.824 233.976 51.68 235.236 51.68H249.276C248.376 54.668 245.748 58.916 243.3 61.688C239.592 65.828 234.264 70.112 228.468 72.38L230.772 74.792C236.1 72.38 240.96 68.42 244.812 64.28C248.484 67.556 252.3 71.804 254.712 74.972L257.232 72.812C254.892 69.968 250.5 65.288 246.72 62.048C249.276 58.808 251.544 54.596 252.768 51.5C252.984 50.996 253.452 50.204 253.668 49.916ZM273.342 70.832C273.342 72.164 273.27 73.928 273.09 75.08H276.582C276.438 73.892 276.366 71.948 276.366 70.832C276.366 69.788 276.366 64.352 276.33 58.952C280.326 60.212 286.554 62.624 290.478 64.748L291.702 61.688C287.922 59.78 281.082 57.188 276.33 55.748C276.33 53.48 276.33 51.392 276.33 49.88C276.33 48.8 276.474 47.252 276.582 46.136H273.054C273.27 47.252 273.342 48.872 273.342 49.88V70.832ZM313.32 45.92L309.972 45.56C309.972 48.008 309.612 50.816 309.036 53.408C306.876 53.588 304.752 53.768 303.564 53.804C302.412 53.84 301.476 53.876 300.36 53.804L300.648 56.936C301.584 56.792 303.06 56.612 303.888 56.504C304.824 56.396 306.552 56.18 308.46 56C307.236 60.824 304.536 69.032 300.864 73.964L303.816 75.116C307.596 69.032 310.044 60.896 311.376 55.712C312.96 55.568 314.4 55.46 315.264 55.46C317.532 55.46 319.08 56.072 319.08 59.384C319.08 63.272 318.504 67.952 317.352 70.4C316.632 71.948 315.552 72.236 314.22 72.236C313.212 72.236 311.304 71.984 309.792 71.516L310.26 74.504C311.412 74.792 313.14 75.044 314.508 75.044C316.848 75.044 318.612 74.432 319.764 72.02C321.276 69.032 321.852 63.308 321.852 59.024C321.852 54.164 319.224 52.94 316.02 52.94C315.156 52.94 313.644 53.048 311.952 53.192C312.348 51.212 312.672 49.088 312.888 48.044C313.032 47.36 313.176 46.568 313.32 45.92ZM325.704 49.736L323.076 50.924C325.632 53.912 328.44 60.248 329.484 63.956L332.292 62.624C331.068 59.276 327.936 52.652 325.704 49.736ZM345.954 45.776L345.234 48.512C347.97 49.268 355.782 50.852 359.202 51.32L359.886 48.548C356.718 48.26 349.05 46.748 345.954 45.776ZM345.162 52.328L342.138 51.932C341.922 55.712 341.022 63.272 340.302 66.548L342.966 67.196C343.182 66.62 343.506 66.008 344.046 65.396C346.566 62.372 350.454 60.572 355.206 60.572C358.878 60.572 361.542 62.624 361.542 65.504C361.542 70.436 355.998 73.712 344.622 72.308L345.486 75.26C358.878 76.376 364.566 72.02 364.566 65.576C364.566 61.364 360.894 58.052 355.386 58.052C351.066 58.052 347.106 59.42 343.65 62.444C344.046 60.14 344.658 54.776 345.162 52.328ZM376.212 48.98L376.932 51.644C379.704 51.608 383.772 51.5 387.408 51.14V57.692H376.572C375.492 57.692 374.232 57.62 373.404 57.548V60.536C374.268 60.464 375.492 60.392 376.644 60.392H387.336C386.904 66.836 383.916 70.868 378.228 73.496L381.072 75.476C387.264 71.876 389.892 67.124 390.288 60.392H400.332C401.232 60.392 402.312 60.464 403.104 60.536V57.548C402.348 57.62 401.052 57.692 400.26 57.692H390.324V50.78C392.916 50.384 395.688 49.844 397.488 49.376C397.992 49.232 398.712 49.052 399.504 48.836L397.596 46.352C395.832 47.108 391.584 47.972 388.308 48.44C384.42 48.944 378.948 49.088 376.212 48.98ZM420.086 51.968L416.99 52.724C417.314 53.264 417.602 53.984 417.854 54.884C418.07 55.568 418.502 57.116 419.042 59.024C416.846 59.42 415.154 59.744 414.65 59.816C413.57 59.996 412.67 60.14 411.662 60.212L412.382 62.948C413.354 62.732 416.306 62.156 419.69 61.472C421.094 66.62 422.822 72.992 423.29 74.612C423.542 75.512 423.722 76.448 423.83 77.24L426.89 76.448C426.674 75.8 426.314 74.684 426.098 74C425.63 72.416 423.866 66.08 422.426 60.896C427.43 59.888 432.506 58.88 433.334 58.736C432.11 60.896 429.41 64.208 427.142 66.152L429.698 67.412C432.146 65 435.854 59.96 437.366 56.9L435.566 55.64C435.206 55.82 434.63 55.964 434.198 56.072C432.974 56.36 426.854 57.548 421.778 58.52C421.238 56.612 420.806 55.064 420.59 54.272C420.374 53.372 420.194 52.58 420.086 51.968ZM459.956 53.264L457.328 54.164C458.084 55.784 459.74 60.356 460.136 61.976L462.8 61.04C462.332 59.456 460.568 54.704 459.956 53.264ZM472.988 55.28L469.892 54.308C469.352 58.916 467.48 63.488 464.924 66.62C461.972 70.328 457.4 73.064 453.224 74.288L455.6 76.7C459.632 75.152 464.024 72.38 467.336 68.132C469.928 64.892 471.476 61.04 472.448 57.08C472.592 56.612 472.736 56.036 472.988 55.28ZM451.604 55.064L448.94 56.108C449.66 57.368 451.604 62.336 452.144 64.208L454.88 63.2C454.196 61.328 452.324 56.612 451.604 55.064ZM491.042 70.832C491.042 72.164 490.97 73.928 490.79 75.08H494.282C494.138 73.892 494.066 71.948 494.066 70.832C494.066 69.788 494.066 64.352 494.03 58.952C498.026 60.212 504.254 62.624 508.178 64.748L509.402 61.688C505.622 59.78 498.782 57.188 494.03 55.748C494.03 53.48 494.03 51.392 494.03 49.88C494.03 48.8 494.174 47.252 494.282 46.136H490.754C490.97 47.252 491.042 48.872 491.042 49.88V70.832ZM531.812 45.524L528.86 45.272C528.788 46.604 528.464 48.224 527.96 49.772C527.168 49.808 526.34 49.808 525.584 49.808C523.928 49.808 521.408 49.664 519.5 49.412V52.112C521.48 52.256 523.856 52.328 525.404 52.328C525.908 52.328 526.448 52.328 526.988 52.328C525.62 55.244 523.208 58.952 518.672 63.344L521.12 65.144C522.344 63.704 523.352 62.372 524.396 61.4C526.016 59.888 528.32 58.772 530.588 58.772C532.208 58.772 533.504 59.456 533.864 61.004C529.652 63.2 525.368 65.864 525.368 70.112C525.368 74.504 529.508 75.62 534.656 75.62C537.788 75.62 541.784 75.332 544.52 74.972L544.592 72.092C541.424 72.632 537.572 72.956 534.764 72.956C531.056 72.956 528.248 72.524 528.248 69.716C528.248 67.34 530.588 65.432 533.936 63.668C533.936 65.576 533.9 67.916 533.828 69.284H536.6C536.564 67.52 536.528 64.46 536.492 62.372C539.228 61.076 541.784 60.032 543.8 59.276C544.772 58.88 546.068 58.376 547.004 58.124L545.816 55.424C544.808 55.964 543.944 56.36 542.864 56.828C540.992 57.692 538.796 58.556 536.348 59.744C535.772 57.656 533.864 56.504 531.524 56.504C529.976 56.504 527.888 56.972 526.52 57.836C527.744 56.216 528.932 54.164 529.76 52.256C533.684 52.112 538.148 51.824 541.712 51.248L541.748 48.584C538.364 49.196 534.44 49.52 530.768 49.7C531.308 48.008 531.596 46.604 531.812 45.524ZM581.762 49.484H574.85V53.228C574.85 55.388 575.606 55.928 578.27 55.928H583.094C585.002 55.928 585.686 55.28 585.938 52.868C585.29 52.724 584.426 52.436 583.958 52.112C583.85 53.804 583.67 54.02 582.806 54.02H578.522C577.334 54.02 577.118 53.876 577.118 53.192V51.356H584.138V45.272H574.166V47.144H581.762V49.484ZM570.17 49.484H563.114V53.228C563.114 55.388 563.798 55.928 566.462 55.928H570.926C572.762 55.928 573.446 55.316 573.698 52.976C573.05 52.868 572.186 52.58 571.718 52.22C571.61 53.804 571.43 54.02 570.566 54.02H566.678C565.526 54.02 565.346 53.876 565.346 53.228V51.356H572.438V45.272H562.466V47.144H570.17V49.484ZM570.746 61.04H576.65V64.46H570.746V61.04ZM585.722 64.46H579.206V61.04H584.606V58.988H579.206V56.396H576.65V58.988H570.746V56.396H568.262V58.988H562.934V61.04H568.262V64.46H561.782V66.548H585.722V64.46ZM585.182 71.336C583.49 70.004 580.538 68.276 577.91 67.016L576.002 68.204C578.486 69.464 581.078 71.156 582.59 72.488L585.182 71.336ZM569.45 66.944C567.866 68.384 565.202 69.752 562.754 70.724C563.33 71.084 564.302 71.948 564.734 72.416C567.11 71.264 569.99 69.5 571.826 67.772L569.45 66.944ZM561.098 50.708C560.09 48.908 557.714 46.424 555.59 44.732L553.538 46.1C555.626 47.864 557.93 50.42 558.866 52.22L561.098 50.708ZM560.27 57.98H553.358V60.5H557.786V69.788C556.202 71.3 554.438 72.812 552.926 73.928L554.33 76.412C556.058 74.828 557.678 73.316 559.19 71.732C561.422 74.576 564.698 75.872 569.45 76.052C573.518 76.196 581.294 76.124 585.362 75.944C585.47 75.188 585.902 74 586.226 73.424C581.834 73.712 573.446 73.82 569.378 73.64C565.166 73.46 561.962 72.236 560.27 69.536V57.98ZM602.804 62.12L602.552 59.672L597.656 60.824V53.66H602.552V51.176H597.656V43.904H595.1V51.176H589.736V53.66H595.1V61.436C592.904 61.94 590.924 62.408 589.268 62.732L589.952 65.36L595.1 64.064V73.532C595.1 74.108 594.848 74.252 594.344 74.288C593.804 74.324 592.04 74.36 590.132 74.288C590.492 74.936 590.852 76.052 590.924 76.736C593.696 76.736 595.28 76.664 596.252 76.268C597.26 75.836 597.656 75.08 597.656 73.496V63.416L602.804 62.12ZM618.392 48.44V57.8H606.98V48.44H618.392ZM621.02 60.356V45.92H604.352V58.124C604.352 63.452 603.92 70.256 599.384 74.936C599.96 75.26 601.004 76.232 601.436 76.736C605.684 72.344 606.728 65.792 606.944 60.356H611.444C612.992 67.844 615.944 73.856 621.128 76.808C621.56 76.088 622.388 75.008 623 74.504C618.32 72.128 615.512 66.728 614.072 60.356H621.02ZM636.518 45.956L632.882 45.92C633.098 46.964 633.17 48.26 633.17 49.592C633.17 53.372 632.81 62.48 632.81 67.808C632.81 73.676 636.374 75.836 641.558 75.836C649.478 75.836 654.122 71.3 656.606 67.88L654.554 65.432C651.962 69.176 648.254 72.884 641.666 72.884C638.246 72.884 635.762 71.48 635.762 67.52C635.762 62.156 636.014 53.66 636.194 49.592C636.23 48.404 636.338 47.144 636.518 45.956ZM662.59 50.096L662.914 53.228C666.802 52.4 675.982 51.536 679.834 51.104C676.522 53.084 673.102 57.656 673.102 63.272C673.102 71.3 680.698 74.864 687.358 75.116L688.402 72.128C682.534 71.912 675.982 69.68 675.982 62.624C675.982 58.376 679.114 52.904 684.226 51.248C686.062 50.708 689.23 50.672 691.282 50.672V47.792C688.87 47.9 685.486 48.08 681.562 48.44C674.938 48.98 668.134 49.664 665.794 49.916C665.11 49.988 663.958 50.06 662.59 50.096ZM183.442 93.98L184.162 96.644C186.934 96.608 191.002 96.5 194.638 96.14V102.692H183.802C182.722 102.692 181.462 102.62 180.634 102.548V105.536C181.498 105.464 182.722 105.392 183.874 105.392H194.566C194.134 111.836 191.146 115.868 185.458 118.496L188.302 120.476C194.494 116.876 197.122 112.124 197.518 105.392H207.562C208.462 105.392 209.542 105.464 210.334 105.536V102.548C209.578 102.62 208.282 102.692 207.49 102.692H197.554V95.78C200.146 95.384 202.918 94.844 204.718 94.376C205.222 94.232 205.942 94.052 206.734 93.836L204.826 91.352C203.062 92.108 198.814 92.972 195.538 93.44C191.65 93.944 186.178 94.088 183.442 93.98ZM227.316 96.968L224.22 97.724C224.544 98.264 224.832 98.984 225.084 99.884C225.3 100.568 225.732 102.116 226.272 104.024C224.076 104.42 222.384 104.744 221.88 104.816C220.8 104.996 219.9 105.14 218.892 105.212L219.612 107.948C220.584 107.732 223.536 107.156 226.92 106.472C228.324 111.62 230.052 117.992 230.52 119.612C230.772 120.512 230.952 121.448 231.06 122.24L234.12 121.448C233.904 120.8 233.544 119.684 233.328 119C232.86 117.416 231.096 111.08 229.656 105.896C234.66 104.888 239.736 103.88 240.564 103.736C239.34 105.896 236.64 109.208 234.372 111.152L236.928 112.412C239.376 110 243.084 104.96 244.596 101.9L242.796 100.64C242.436 100.82 241.86 100.964 241.428 101.072C240.204 101.36 234.084 102.548 229.008 103.52C228.468 101.612 228.036 100.064 227.82 99.272C227.604 98.372 227.424 97.58 227.316 96.968ZM267.186 98.264L264.558 99.164C265.314 100.784 266.97 105.356 267.366 106.976L270.03 106.04C269.562 104.456 267.798 99.704 267.186 98.264ZM280.218 100.28L277.122 99.308C276.582 103.916 274.71 108.488 272.154 111.62C269.202 115.328 264.63 118.064 260.454 119.288L262.83 121.7C266.862 120.152 271.254 117.38 274.566 113.132C277.158 109.892 278.706 106.04 279.678 102.08C279.822 101.612 279.966 101.036 280.218 100.28ZM258.834 100.064L256.17 101.108C256.89 102.368 258.834 107.336 259.374 109.208L262.11 108.2C261.426 106.328 259.554 101.612 258.834 100.064ZM298.272 115.832C298.272 117.164 298.2 118.928 298.02 120.08H301.512C301.368 118.892 301.296 116.948 301.296 115.832C301.296 114.788 301.296 109.352 301.26 103.952C305.256 105.212 311.484 107.624 315.408 109.748L316.632 106.688C312.852 104.78 306.012 102.188 301.26 100.748C301.26 98.48 301.26 96.392 301.26 94.88C301.26 93.8 301.404 92.252 301.512 91.136H297.984C298.2 92.252 298.272 93.872 298.272 94.88V115.832ZM339.042 90.524L336.09 90.272C336.018 91.604 335.694 93.224 335.19 94.772C334.398 94.808 333.57 94.808 332.814 94.808C331.158 94.808 328.638 94.664 326.73 94.412V97.112C328.71 97.256 331.086 97.328 332.634 97.328C333.138 97.328 333.678 97.328 334.218 97.328C332.85 100.244 330.438 103.952 325.902 108.344L328.35 110.144C329.574 108.704 330.582 107.372 331.626 106.4C333.246 104.888 335.55 103.772 337.818 103.772C339.438 103.772 340.734 104.456 341.094 106.004C336.882 108.2 332.598 110.864 332.598 115.112C332.598 119.504 336.738 120.62 341.886 120.62C345.018 120.62 349.014 120.332 351.75 119.972L351.822 117.092C348.654 117.632 344.802 117.956 341.994 117.956C338.286 117.956 335.478 117.524 335.478 114.716C335.478 112.34 337.818 110.432 341.166 108.668C341.166 110.576 341.13 112.916 341.058 114.284H343.83C343.794 112.52 343.758 109.46 343.722 107.372C346.458 106.076 349.014 105.032 351.03 104.276C352.002 103.88 353.298 103.376 354.234 103.124L353.046 100.424C352.038 100.964 351.174 101.36 350.094 101.828C348.222 102.692 346.026 103.556 343.578 104.744C343.002 102.656 341.094 101.504 338.754 101.504C337.206 101.504 335.118 101.972 333.75 102.836C334.974 101.216 336.162 99.164 336.99 97.256C340.914 97.112 345.378 96.824 348.942 96.248L348.978 93.584C345.594 94.196 341.67 94.52 337.998 94.7C338.538 93.008 338.826 91.604 339.042 90.524ZM372.648 92.468V95.384H364.764V92.468H372.648ZM364.764 100.388V97.292H372.648V100.388H364.764ZM375.168 102.44V90.416H362.136V121.772H364.764V102.44H375.168ZM374.16 110.792V106.904H379.2V110.792H374.16ZM386.472 113.06V110.792H381.576V106.904H385.68V104.708H367.932V106.904H371.82V110.792H367.248V113.06H371.748C371.532 115.148 370.524 118.136 367.5 119.972C368.076 120.332 368.868 121.088 369.264 121.556C372.72 119.216 373.872 115.472 374.088 113.06H379.2V121.088H381.576V113.06H386.472ZM380.892 100.424V97.292H389.064V100.424H380.892ZM389.064 92.468V95.384H380.892V92.468H389.064ZM391.692 90.416H378.336V102.476H389.064V118.244C389.064 118.82 388.884 119.036 388.308 119.036C387.768 119.072 385.824 119.072 383.844 119C384.24 119.72 384.636 120.98 384.708 121.664C387.408 121.7 389.208 121.628 390.288 121.196C391.332 120.728 391.692 119.864 391.692 118.28V90.416ZM410.646 103.88C414.894 103.628 420.906 103.16 426.738 102.728C427.206 103.664 427.566 104.528 427.818 105.284L430.122 103.988C429.186 101.36 426.702 97.4 424.326 94.412L422.202 95.492C423.354 96.968 424.506 98.696 425.478 100.388C422.13 100.604 418.782 100.82 415.83 101C417.342 97.652 418.998 93.152 420.258 89.48L417.342 88.868C416.406 92.576 414.714 97.652 413.202 101.144L410.358 101.288L410.646 103.88ZM407.442 98.768C406.974 103.448 406.038 107.408 404.706 110.612C403.338 109.64 401.862 108.74 400.494 107.948C401.214 105.14 402.006 101.972 402.762 98.768H407.442ZM408.558 96.212L408.09 96.284H403.302C403.878 93.8 404.418 91.352 404.85 89.156L402.294 88.868C401.862 91.1 401.358 93.656 400.782 96.284H396.858V98.768H400.242C399.198 103.232 398.118 107.66 397.218 110.72L399.45 111.908L399.882 110.36C401.106 111.116 402.402 112.016 403.59 112.916C401.898 116.048 399.702 118.316 397.074 119.684C397.65 120.224 398.334 121.196 398.73 121.844C401.538 120.152 403.842 117.776 405.678 114.572C407.19 115.832 408.486 117.092 409.386 118.208L411.006 116.084C410.034 114.896 408.558 113.528 406.83 112.196C408.594 108.2 409.71 103.052 410.178 96.536L408.558 96.212ZM425.406 109.712V117.74H415.362V109.712H425.406ZM412.806 121.772H415.362V120.152H425.406V121.628H428.07V107.264H412.806V121.772ZM443.748 90.956L440.112 90.92C440.328 91.964 440.4 93.26 440.4 94.592C440.4 98.372 440.04 107.48 440.04 112.808C440.04 118.676 443.604 120.836 448.788 120.836C456.708 120.836 461.352 116.3 463.836 112.88L461.784 110.432C459.192 114.176 455.484 117.884 448.896 117.884C445.476 117.884 442.992 116.48 442.992 112.52C442.992 107.156 443.244 98.66 443.424 94.592C443.46 93.404 443.568 92.144 443.748 90.956ZM477.066 115.22C477.066 113.564 478.938 112.232 482.358 112.232C483.546 112.232 484.734 112.34 485.85 112.592C485.85 113.528 485.886 114.392 485.886 115.004C485.886 117.488 484.122 118.136 482.07 118.136C478.506 118.136 477.066 116.876 477.066 115.22ZM488.478 90.416H485.418C485.49 90.92 485.562 91.964 485.562 92.576C485.562 93.332 485.562 94.196 485.562 95.132C484.986 95.132 484.446 95.132 483.906 95.132C481.494 95.132 477.03 94.772 474.69 94.34L474.726 97.004C476.994 97.256 481.422 97.616 483.942 97.616C484.482 97.616 485.022 97.616 485.526 97.616C485.526 99.092 485.526 100.676 485.526 102.116C485.526 102.296 485.526 102.476 485.526 102.656C484.878 102.656 484.23 102.656 483.582 102.656C481.206 102.656 477.102 102.404 474.51 101.972L474.546 104.672C477.138 104.96 481.098 105.176 483.546 105.176C484.23 105.176 484.914 105.176 485.598 105.176C485.634 106.724 485.706 108.452 485.742 110.072C484.77 109.928 483.762 109.856 482.718 109.856C477.534 109.856 474.402 112.088 474.402 115.364C474.402 118.82 477.21 120.656 482.394 120.656C487.074 120.656 488.73 118.1 488.73 115.616C488.73 115.04 488.694 114.284 488.658 113.384C492.258 114.68 495.246 116.876 497.37 118.82L499.026 116.264C496.974 114.572 493.302 111.944 488.514 110.648C488.442 108.92 488.334 106.976 488.262 105.104C491.682 104.996 494.85 104.708 498.234 104.276L498.27 101.576C494.994 102.08 491.718 102.404 488.226 102.548C488.226 102.404 488.226 102.26 488.226 102.116C488.226 100.784 488.226 99.092 488.226 97.508C491.682 97.328 495.102 97.004 497.946 96.68L497.982 94.052C494.742 94.556 491.466 94.88 488.226 95.024C488.226 94.088 488.262 93.296 488.262 92.828C488.298 91.784 488.37 91.064 488.478 90.416ZM526.764 90.488H523.488C523.524 90.776 523.668 91.82 523.704 92.756C523.74 93.26 523.776 94.124 523.776 95.132C518.412 95.204 511.644 95.42 507.648 95.492L507.72 98.264C512.22 97.94 518.34 97.688 523.812 97.652C523.848 98.912 523.848 100.208 523.848 101.288C523.128 101.036 522.336 100.892 521.436 100.892C518.016 100.892 515.1 103.592 515.1 107.156C515.1 111.08 517.98 113.168 521.004 113.168C522.228 113.168 523.272 112.844 524.136 112.196C522.696 115.472 519.384 117.488 514.596 118.568L517.008 120.944C525.396 118.424 527.772 113.024 527.772 108.164C527.772 106.364 527.376 104.78 526.62 103.556C526.584 101.9 526.548 99.668 526.548 97.616C526.728 97.616 526.872 97.616 527.052 97.616C532.308 97.616 535.584 97.688 537.6 97.796L537.636 95.132C535.908 95.132 531.48 95.096 527.088 95.096C526.908 95.096 526.728 95.096 526.548 95.096C526.548 94.124 526.584 93.296 526.584 92.756C526.62 92.288 526.692 90.884 526.764 90.488ZM517.8 107.12C517.8 104.78 519.564 103.304 521.436 103.304C522.84 103.304 524.064 103.988 524.64 105.572C524.964 108.992 523.596 110.684 521.472 110.684C519.456 110.684 517.8 109.352 517.8 107.12Z" fill="#5E60CE"/>
</g>
<defs>
<clipPath id="clip0">
<rect width="717" height="619" fill="white"/>
</clipPath>
</defs>
</svg>
