<svg width="717" height="463" viewBox="0 0 717 463" fill="none" xmlns="http://www.w3.org/2000/svg">
<path d="M374.5 180C374.5 248.184 319.007 303.5 250.5 303.5C181.993 303.5 126.5 248.184 126.5 180C126.5 111.816 181.993 56.5 250.5 56.5C319.007 56.5 374.5 111.816 374.5 180Z" fill="white" stroke="#5E60CE" stroke-width="13"/>
<path d="M139.906 307.233L151.147 262.797L186.101 292.447L139.906 307.233Z" fill="#5E60CE" stroke="#5E60CE" stroke-width="3.5"/>
<path d="M574.5 278C574.5 346.184 519.007 401.5 450.5 401.5C381.993 401.5 326.5 346.184 326.5 278C326.5 209.816 381.993 154.5 450.5 154.5C519.007 154.5 574.5 209.816 574.5 278Z" fill="white" stroke="white" stroke-width="13"/>
<path d="M580.5 280C580.5 348.184 525.007 403.5 456.5 403.5C387.993 403.5 332.5 348.184 332.5 280C332.5 211.816 387.993 156.5 456.5 156.5C525.007 156.5 580.5 211.816 580.5 280Z" fill="white" stroke="#5E60CE" stroke-width="13"/>
<path d="M532.444 384.614L563.998 351.369L579.964 394.334L532.444 384.614Z" fill="#5E60CE" stroke="#5E60CE" stroke-width="3.5"/>
<path d="M417.16 275.44C410.6 275.44 405.2 277.16 400.96 280.6C396.72 284.04 394.6 288.92 394.6 295.24C394.6 300.92 396.28 305.48 399.64 308.92C403.08 312.36 407.68 314.08 413.44 314.08C416.24 314.08 418.92 313.48 421.48 312.28C424.12 311.08 426.28 309.28 427.96 306.88C429.64 304.4 430.48 301.36 430.48 297.76H439.72V335.92H429.88V312.88C428.2 315.68 425.64 317.92 422.2 319.6C418.84 321.28 415.04 322.12 410.8 322.12C405.68 322.12 401.12 321.04 397.12 318.88C393.12 316.72 390 313.6 387.76 309.52C385.52 305.44 384.4 300.56 384.4 294.88C384.4 288.8 385.8 283.68 388.6 279.52C391.4 275.28 395.2 272.12 400 270.04C404.88 267.88 410.32 266.8 416.32 266.8H424.96V253.6H372.76V245.2H452.32L452.2 253.6H434.92V275.44H417.16ZM426.542 245.68C422.382 239.12 418.982 234.4 416.342 231.52C413.622 228.56 411.022 226.64 408.542 225.76C406.062 224.88 402.662 224.44 398.342 224.44H393.302V216.28H398.222C404.062 216.28 408.702 216.88 412.142 218.08C415.582 219.28 419.102 221.92 422.702 226C426.302 230.08 430.742 236.64 436.022 245.68H426.542ZM535.525 245.2V253.6H519.685V334H509.965V309.88C507.885 313.72 504.885 316.8 500.965 319.12C497.125 321.36 492.525 322.48 487.165 322.48C481.805 322.48 477.045 321.32 472.885 319C468.725 316.6 465.485 313.28 463.165 309.04C460.925 304.72 459.805 299.72 459.805 294.04C459.805 288.6 460.965 283.8 463.285 279.64C465.605 275.48 468.845 272.24 473.005 269.92C477.165 267.6 481.885 266.44 487.165 266.44C492.605 266.44 497.245 267.6 501.085 269.92C505.005 272.16 507.965 275.2 509.965 279.04V253.6H448.165V245.2H535.525ZM489.685 314.44C494.085 314.44 497.805 313.48 500.845 311.56C503.965 309.56 506.245 307.04 507.685 304C509.205 300.96 509.965 297.84 509.965 294.64V294.52C509.965 291.16 509.205 287.96 507.685 284.92C506.245 281.88 503.965 279.4 500.845 277.48C497.805 275.56 494.085 274.6 489.685 274.6C485.925 274.6 482.525 275.4 479.485 277C476.445 278.6 474.045 280.92 472.285 283.96C470.525 286.92 469.645 290.4 469.645 294.4C469.645 300.56 471.525 305.44 475.285 309.04C479.045 312.64 483.845 314.44 489.685 314.44Z" fill="#5F5858"/>
<path d="M244.968 122.952L232.872 122.664C233.016 124.392 232.728 126.984 232.584 129.576C232.296 132.744 231.864 136.488 231.432 140.664C228.12 140.808 224.952 140.808 221.64 140.808C215.448 140.808 202.92 139.8 197.88 138.936L198.168 149.736C204.072 150.168 215.304 150.744 221.496 150.744C224.376 150.744 227.256 150.744 230.28 150.6C229.704 157.368 228.984 164.568 228.696 171.768C208.824 180.984 192.696 199.848 192.696 218.424C192.696 230.664 200.184 236.568 209.688 236.568C217.608 236.568 226.248 233.4 234.168 228.648C234.888 231.528 235.608 234.264 236.472 236.712L246.84 233.544C245.688 229.944 244.536 226.056 243.384 221.88C255.624 211.512 267.288 195.528 275.496 175.08C288.888 178.968 296.232 188.76 296.232 199.704C296.232 218.424 280.104 231.816 254.04 234.552L260.232 244.2C293.64 238.872 307.32 221.016 307.32 200.28C307.32 184.44 296.664 171.192 278.664 166.44C278.664 166.152 278.808 166.008 278.808 165.864C279.528 163.56 280.824 159.672 281.688 157.656L270.312 154.776C270.168 157.224 269.448 160.968 268.728 163.128C268.584 163.704 268.44 164.136 268.296 164.568C266.568 164.424 264.84 164.424 262.968 164.424C255.624 164.424 246.84 165.72 238.776 168.024C239.208 161.976 239.64 155.928 240.36 150.312C257.928 149.448 277.08 147.432 292.2 144.84L292.056 134.184C277.368 137.64 259.8 139.512 241.512 140.376C242.088 136.2 242.664 132.456 243.24 129.432C243.672 127.416 244.248 124.824 244.968 122.952ZM238.344 184.008C238.344 181.992 238.344 180.12 238.488 178.104C245.112 175.656 253.464 173.496 262.824 173.496C263.688 173.496 264.552 173.496 265.272 173.496C259.224 189.624 250.44 201.288 240.792 210.36C239.352 202.008 238.344 193.224 238.344 184.008ZM203.64 216.552C203.64 204.744 214.296 190.488 228.264 182.568C228.264 183.432 228.264 184.296 228.264 185.16C228.264 195.96 229.704 207.624 231.72 217.848C224.376 223.032 217.464 225.48 211.848 225.48C206.376 225.48 203.64 222.456 203.64 216.552Z" fill="#5F5858"/>
</svg>
