<svg width="717" height="463" viewBox="0 0 717 463" fill="none" xmlns="http://www.w3.org/2000/svg">
<path d="M374.5 180C374.5 248.184 319.007 303.5 250.5 303.5C181.993 303.5 126.5 248.184 126.5 180C126.5 111.816 181.993 56.5 250.5 56.5C319.007 56.5 374.5 111.816 374.5 180Z" fill="white" stroke="#5E60CE" stroke-width="13"/>
<path d="M139.906 307.233L151.147 262.797L186.101 292.447L139.906 307.233Z" fill="#5E60CE" stroke="#5E60CE" stroke-width="3.5"/>
<path d="M574.5 278C574.5 346.184 519.007 401.5 450.5 401.5C381.993 401.5 326.5 346.184 326.5 278C326.5 209.816 381.993 154.5 450.5 154.5C519.007 154.5 574.5 209.816 574.5 278Z" fill="white" stroke="white" stroke-width="13"/>
<path d="M580.5 280C580.5 348.184 525.007 403.5 456.5 403.5C387.993 403.5 332.5 348.184 332.5 280C332.5 211.816 387.993 156.5 456.5 156.5C525.007 156.5 580.5 211.816 580.5 280Z" fill="white" stroke="#5E60CE" stroke-width="13"/>
<path d="M417.16 275.44C410.6 275.44 405.2 277.16 400.96 280.6C396.72 284.04 394.6 288.92 394.6 295.24C394.6 300.92 396.28 305.48 399.64 308.92C403.08 312.36 407.68 314.08 413.44 314.08C416.24 314.08 418.92 313.48 421.48 312.28C424.12 311.08 426.28 309.28 427.96 306.88C429.64 304.4 430.48 301.36 430.48 297.76H439.72V335.92H429.88V312.88C428.2 315.68 425.64 317.92 422.2 319.6C418.84 321.28 415.04 322.12 410.8 322.12C405.68 322.12 401.12 321.04 397.12 318.88C393.12 316.72 390 313.6 387.76 309.52C385.52 305.44 384.4 300.56 384.4 294.88C384.4 288.8 385.8 283.68 388.6 279.52C391.4 275.28 395.2 272.12 400 270.04C404.88 267.88 410.32 266.8 416.32 266.8H424.96V253.6H372.76V245.2H452.32L452.2 253.6H434.92V275.44H417.16ZM426.542 245.68C422.382 239.12 418.982 234.4 416.342 231.52C413.622 228.56 411.022 226.64 408.542 225.76C406.062 224.88 402.662 224.44 398.342 224.44H393.302V216.28H398.222C404.062 216.28 408.702 216.88 412.142 218.08C415.582 219.28 419.102 221.92 422.702 226C426.302 230.08 430.742 236.64 436.022 245.68H426.542ZM535.525 245.2V253.6H519.685V334H509.965V309.88C507.885 313.72 504.885 316.8 500.965 319.12C497.125 321.36 492.525 322.48 487.165 322.48C481.805 322.48 477.045 321.32 472.885 319C468.725 316.6 465.485 313.28 463.165 309.04C460.925 304.72 459.805 299.72 459.805 294.04C459.805 288.6 460.965 283.8 463.285 279.64C465.605 275.48 468.845 272.24 473.005 269.92C477.165 267.6 481.885 266.44 487.165 266.44C492.605 266.44 497.245 267.6 501.085 269.92C505.005 272.16 507.965 275.2 509.965 279.04V253.6H448.165V245.2H535.525ZM489.685 314.44C494.085 314.44 497.805 313.48 500.845 311.56C503.965 309.56 506.245 307.04 507.685 304C509.205 300.96 509.965 297.84 509.965 294.64V294.52C509.965 291.16 509.205 287.96 507.685 284.92C506.245 281.88 503.965 279.4 500.845 277.48C497.805 275.56 494.085 274.6 489.685 274.6C485.925 274.6 482.525 275.4 479.485 277C476.445 278.6 474.045 280.92 472.285 283.96C470.525 286.92 469.645 290.4 469.645 294.4C469.645 300.56 471.525 305.44 475.285 309.04C479.045 312.64 483.845 314.44 489.685 314.44Z" fill="#5F5858"/>
<path d="M532.444 384.614L563.998 351.369L579.964 394.334L532.444 384.614Z" fill="#5E60CE" stroke="#5E60CE" stroke-width="3.5"/>
<path d="M273.36 149.19C275.4 149.19 277.78 150.833 280.5 154.12C286.393 161.147 290.36 171.12 292.4 184.04C293.42 190.387 293.307 196.903 292.06 203.59C289.68 214.923 283.56 224.103 273.7 231.13C261.913 239.29 250.297 243.54 238.85 243.88C217.997 244.56 204.737 237.307 199.07 222.12C197.597 217.813 197.37 212.77 198.39 206.99C199.297 200.87 201.11 194.75 203.83 188.63C206.55 182.397 210.007 176.163 214.2 169.93C214.767 169.137 215.39 168.853 216.07 169.08C216.863 169.307 217.373 169.647 217.6 170.1C217.94 170.667 217.827 171.403 217.26 172.31C209.667 183.303 205.813 192.427 205.7 199.68C205.587 207.16 208.307 213.507 213.86 218.72C219.527 224.047 227.913 226.483 239.02 226.03C246.16 225.69 253.073 224.217 259.76 221.61C266.56 219.003 273.077 215.207 279.31 210.22C284.863 205.8 287.81 201.55 288.15 197.47C288.49 193.39 287.073 189.763 283.9 186.59C276.987 193.843 269.79 196.223 262.31 193.73C253.017 190.67 250.863 182.51 255.85 169.25C260.837 155.877 266.673 149.19 273.36 149.19ZM274.21 172.48C271.83 169.76 269.677 168.4 267.75 168.4C266.05 168.4 264.407 169.59 262.82 171.97C264.293 173.557 266.163 174.463 268.43 174.69C270.47 174.803 272.397 174.067 274.21 172.48ZM273.36 110.94C273.587 110.6 274.04 110.487 274.72 110.6C276.987 111.393 279.083 112.357 281.01 113.49C283.05 114.623 284.977 115.983 286.79 117.57C287.243 118.023 287.3 118.533 286.96 119.1L278.8 132.02C278.573 132.36 278.063 132.247 277.27 131.68C276.93 131.34 275.967 130.717 274.38 129.81C272.793 128.79 270.527 127.43 267.58 125.73L261.12 135.76C260.78 136.327 260.213 136.27 259.42 135.59C258.967 135.25 257.777 134.457 255.85 133.21C253.923 131.963 251.147 130.263 247.52 128.11C247.067 127.77 247.01 127.43 247.35 127.09L255.68 114.68C255.907 114.34 256.36 114.227 257.04 114.34C258.967 114.907 260.78 115.7 262.48 116.72C264.18 117.627 265.767 118.703 267.24 119.95L273.36 110.94Z" fill="#5F5858"/>
</svg>
