<svg width="89" height="90" viewBox="0 0 89 90" fill="none" xmlns="http://www.w3.org/2000/svg">
<circle cx="44.5" cy="44.5" r="40.5" fill="#5E60CE"/>
<circle cx="45.5" cy="43.5" r="17.75" fill="white" stroke="white" stroke-width="3.5"/>
<path d="M26.0561 60.1286L28.3316 53.709L33.0947 58.5775L26.0561 60.1286Z" fill="white" stroke="white" stroke-width="3.5"/>
<path d="M64.1764 30.4776L62.4316 24.9009C61.9927 23.4982 60.0073 23.4981 59.5684 24.9009L57.8236 30.4776C57.7583 30.6862 57.565 30.8283 57.3464 30.8283H51.622C50.1827 30.8283 49.5696 32.6588 50.7186 33.5257L55.4138 37.0682C55.5825 37.1955 55.653 37.415 55.5899 37.6166L53.8119 43.2992C53.3764 44.6912 54.9826 45.823 56.1469 44.9445L60.6989 41.5101C60.8771 41.3756 61.1229 41.3756 61.3011 41.5101L65.8531 44.9445C67.0174 45.823 68.6236 44.6912 68.1881 43.2992L66.4101 37.6166C66.347 37.415 66.4175 37.1955 66.5862 37.0682L71.2814 33.5257C72.4304 32.6588 71.8173 30.8283 70.378 30.8283H64.6536C64.435 30.8283 64.2417 30.6862 64.1764 30.4776Z" fill="white" stroke="#5E60CE" stroke-linejoin="round"/>
</svg>
