<svg width="26" height="24" viewBox="0 0 26 24" fill="none" xmlns="http://www.w3.org/2000/svg">
<path d="M7.714 3.92163L6.544 3.89463C6.553 4.04763 6.535 4.26363 6.526 4.43463C6.508 4.58763 6.49 4.74963 6.472 4.92063C6.355 4.92063 6.238 4.92063 6.112 4.92063C5.563 4.92063 4.771 4.84863 4.456 4.79463L4.483 5.83863C4.906 5.85663 5.608 5.89263 6.076 5.89263C6.175 5.89263 6.265 5.89263 6.364 5.89263C6.328 6.26163 6.301 6.63963 6.283 7.02663C5.023 7.62063 4.069 8.82663 4.069 9.98763C4.069 10.8966 4.627 11.2926 5.284 11.2926C5.761 11.2926 6.238 11.1486 6.679 10.9326C6.715 11.0586 6.76 11.1846 6.796 11.3016L7.831 10.9866C7.759 10.7706 7.687 10.5456 7.624 10.3206C8.308 9.75363 9.028 8.80863 9.514 7.58463C10.135 7.82763 10.45 8.30463 10.45 8.84463C10.45 9.72663 9.748 10.6086 8.011 10.7976L8.605 11.7426C10.819 11.4096 11.566 10.1766 11.566 8.89863C11.566 7.85463 10.873 7.03563 9.829 6.69363C9.883 6.52263 9.955 6.33363 9.991 6.23463L8.893 5.97363C8.884 6.10863 8.848 6.33363 8.812 6.51363C8.758 6.51363 8.704 6.51363 8.65 6.51363C8.209 6.51363 7.741 6.57663 7.309 6.67563C7.318 6.40563 7.345 6.12663 7.372 5.85663C8.479 5.81163 9.685 5.70363 10.567 5.54163L10.558 4.49763C9.568 4.73163 8.596 4.84863 7.498 4.89363C7.525 4.71363 7.561 4.55163 7.588 4.39863C7.624 4.26363 7.66 4.10163 7.714 3.92163ZM5.131 9.75363C5.131 9.24063 5.581 8.55663 6.256 8.09763C6.274 8.71863 6.346 9.33963 6.445 9.89763C6.121 10.0866 5.797 10.1946 5.545 10.1946C5.257 10.1946 5.131 10.0416 5.131 9.75363ZM7.273 7.65663V7.62963C7.624 7.52163 8.038 7.44063 8.515 7.43163C8.209 8.16063 7.804 8.70963 7.381 9.15063C7.309 8.70063 7.273 8.20563 7.273 7.65663Z" fill="#766969"/>
<path fill-rule="evenodd" clip-rule="evenodd" d="M13.3335 1.33337H2.66683C1.93045 1.33337 1.3335 1.93033 1.3335 2.66671V13.3334C1.3335 14.0698 1.93045 14.6667 2.66683 14.6667H13.3335C14.0699 14.6667 14.6668 14.0698 14.6668 13.3334V2.66671C14.6668 1.93033 14.0699 1.33337 13.3335 1.33337ZM2.66685 13.3334V2.6667H13.3335V13.3334H2.66685Z" fill="#766969"/>
<path fill-rule="evenodd" clip-rule="evenodd" d="M23.3335 9.33337H12.6668C11.9304 9.33337 11.3335 9.93033 11.3335 10.6667V21.3334C11.3335 22.0698 11.9304 22.6667 12.6668 22.6667H23.3335C24.0699 22.6667 24.6668 22.0698 24.6668 21.3334V10.6667C24.6668 9.93033 24.0699 9.33337 23.3335 9.33337ZM12.6668 21.3334V10.6667H23.3335V21.3334H12.6668ZM19.8668 18H16.1334L15.3335 20H14.0002L17.3335 12H18.6668L22.0002 20H20.6668L19.8668 18ZM17.9999 13.3334L19.3333 16.6667H16.6667L17.9999 13.3334Z" fill="#766969"/>
</svg>
