<svg width="24" height="24" viewBox="0 0 24 24" fill="none" xmlns="http://www.w3.org/2000/svg">
<path fill-rule="evenodd" clip-rule="evenodd" d="M19 10C19 5.94079 16.7616 3.12345 13.8653 2.27769C13.7604 2.00635 13.5947 1.75409 13.3694 1.54243C12.5997 0.81919 11.4002 0.81919 10.6304 1.54243C10.4056 1.75364 10.2401 2.00527 10.1352 2.27595C7.23531 3.11808 5 5.92923 5 10C5 12.6339 4.46898 14.1098 3.48596 15.1793C3.32161 15.3582 2.87632 15.7678 2.57468 16.0453L2.57465 16.0453C2.43194 16.1766 2.32139 16.2783 2.28796 16.3119L2 16.604V20.0141H8.08798C8.29384 21.0761 8.87009 21.7867 9.9122 22.4226C11.1941 23.2049 12.8059 23.2049 14.0878 22.4226C15.0075 21.8614 15.6241 20.9989 15.8743 20.0141H22V16.604L21.712 16.3119C21.6817 16.2812 21.5757 16.1834 21.437 16.0555C21.1363 15.7781 20.6823 15.3592 20.5154 15.1769C19.5317 14.1024 19 12.6246 19 10ZM13.7367 20.0141H10.1786C10.3199 20.2769 10.5607 20.4754 10.954 20.7154C11.5963 21.1073 12.4037 21.1073 13.046 20.7154C13.3434 20.5339 13.5758 20.2937 13.7367 20.0141ZM19.0401 16.5274C19.2505 16.7573 19.7015 17.1774 19.9999 17.4519V18.0141H3.99993V17.4524C4.296 17.1811 4.74836 16.7613 4.95841 16.5327C6.29415 15.0794 6.99993 13.1178 6.99993 10C6.99993 6.21989 9.3327 4.01238 11.9999 4.01238C14.6596 4.01238 16.9999 6.23129 16.9999 10C16.9999 13.1078 17.7059 15.07 19.0401 16.5274Z" fill="#5E60CE"/>
</svg>
