<svg width="214" height="216" viewBox="0 0 214 216" fill="none" xmlns="http://www.w3.org/2000/svg">
<circle cx="107.5" cy="106.5" r="101.5" fill="#D9DD0B"/>
<path d="M201 68C198.967 63.9355 197.559 52.5561 178.5 33.5C159.441 14.4439 132.422 5 105.468 5C78.5136 5 52.6635 15.7056 33.6041 34.7617C18.0652 53.7742 14 65.9677 14 68H105.468H201Z" fill="#DD0B0B"/>
<path d="M14 147C16.0326 151.065 17.2993 161.182 36.3587 180.238C55.4181 199.294 82.5783 210 109.532 210C136.486 210 162.337 199.294 181.396 180.238C196.935 161.226 201 149.032 201 147H109.532L14 147Z" fill="#DD0B0B"/>
</svg>
