<svg width="367" height="210" viewBox="0 0 367 210" fill="none" xmlns="http://www.w3.org/2000/svg">
<path d="M17.6 32.7C16.267 32.7 15.267 32.8 14.6 33C14 33.133 13.467 33.433 13 33.9C12.6 34.3 12.233 34.867 11.9 35.6C11.633 36.267 11.5 36.9 11.5 37.5L6 37.4C6.133 34.267 7.133 31.767 9 29.9C10 28.967 11.167 28.3 12.5 27.9C13.9 27.433 15.633 27.167 17.7 27.1H39.7C43.5 27.1 46.933 27.867 50 29.4C53.067 30.867 55.467 32.967 57.2 35.7C59 38.433 59.9 41.6 59.9 45.2C59.9 48.533 59.2 51.433 57.8 53.9C56.467 56.3 54.633 57.9 52.3 58.7C52.233 58.7 52.033 58.8 51.7 59C51.433 59.133 50.633 59.4 49.3 59.8C49.7 59.933 50.167 60.067 50.7 60.2C51.3 60.333 51.9 60.533 52.5 60.8C55.833 62.333 58.433 64.667 60.3 67.8C62.167 70.867 63.1 74.433 63.1 78.5C63.1 85.033 60.667 89.867 55.8 93C51 96.067 44.167 97.6 35.3 97.6C29.7 97.6 25.567 97.433 22.9 97.1L17.6 96.5V32.7ZM37 92.1C50.4 92.1 57.1 87.5 57.1 78.3C57.1 73.567 55.5 69.867 52.3 67.2C49.1 64.467 45.1 63.1 40.3 63.1H30.8V57.6H39.6C43.933 57.6 47.4 56.5 50 54.3C52.6 52.1 53.9 49.033 53.9 45.1C53.9 41.233 52.733 38.267 50.4 36.2C48.133 34.067 45.033 32.9 41.1 32.7H23.6V91.6L33.4 92L37 92.1ZM94.784 97.6C90.184 97.6 86.251 96.433 82.984 94.1C79.718 91.767 77.251 88.667 75.584 84.8C73.918 80.933 73.084 76.667 73.084 72C73.084 66.867 74.084 62.333 76.084 58.4C78.084 54.4 80.951 51.3 84.684 49.1C88.418 46.9 92.784 45.8 97.784 45.8C99.318 45.8 101.251 45.9 103.584 46.1C105.918 46.233 107.984 46.433 109.784 46.7H115.784V88C115.784 89.333 116.084 90.367 116.684 91.1C117.351 91.767 118.151 92.1 119.084 92.1C120.284 92.1 121.251 91.533 121.984 90.4L126.284 93.8C125.284 95.2 124.151 96.167 122.884 96.7C121.684 97.3 120.284 97.6 118.684 97.6C116.351 97.6 114.284 96.8 112.484 95.2C110.751 93.6 109.884 91.667 109.884 89.4C108.284 92.067 106.184 94.1 103.584 95.5C100.984 96.9 98.051 97.6 94.784 97.6ZM94.884 92.2C97.884 92.2 100.584 91.467 102.984 90C105.384 88.533 107.184 86.6 108.384 84.2C109.318 82.267 109.784 80.133 109.784 77.8V51.6L103.184 51.4L97.384 51.2C91.318 51.2 86.751 53.1 83.684 56.9C80.618 60.7 79.084 65.667 79.084 71.8C79.084 77.467 80.418 82.3 83.084 86.3C85.818 90.233 89.751 92.2 94.884 92.2ZM153.523 97.6C150.19 97.6 146.957 97.4 143.823 97C140.557 96.6 138.09 96.133 136.423 95.6V24H142.423V53.3C144.09 50.767 146.257 48.9 148.923 47.7C151.657 46.433 154.557 45.8 157.623 45.8C161.823 45.8 165.523 46.9 168.723 49.1C171.99 51.3 174.49 54.367 176.223 58.3C178.023 62.233 178.923 66.7 178.923 71.7C178.923 79.233 176.823 85.433 172.623 90.3C168.49 95.167 162.123 97.6 153.523 97.6ZM153.423 92.2C160.423 92.2 165.423 90.333 168.423 86.6C171.423 82.8 172.923 77.867 172.923 71.8C172.923 67.467 172.223 63.767 170.823 60.7C169.49 57.567 167.623 55.2 165.223 53.6C162.89 52 160.257 51.2 157.323 51.2C153.923 51.2 150.757 52.233 147.823 54.3C144.557 56.567 142.757 59.733 142.423 63.8V91.3L147.723 91.9C149.457 92.1 151.357 92.2 153.423 92.2ZM197.759 88.2C197.759 89.133 198.059 89.933 198.659 90.6C199.325 91.2 200.092 91.5 200.959 91.5C202.292 91.5 203.259 90.933 203.859 89.8L208.259 93.1C207.725 94.233 206.792 95.2 205.459 96C204.125 96.733 202.625 97.1 200.959 97.1C198.292 97.1 196.092 96.267 194.359 94.6C192.625 92.933 191.759 90.767 191.759 88.1V46.6H197.759V88.2ZM194.459 40.1C193.325 40.1 192.325 39.7 191.459 38.9C190.659 38.033 190.259 37.033 190.259 35.9C190.259 34.7 190.659 33.7 191.459 32.9C192.325 32.033 193.325 31.6 194.459 31.6C195.659 31.6 196.659 32.033 197.459 32.9C198.325 33.7 198.759 34.7 198.759 35.9C198.759 37.033 198.325 38.033 197.459 38.9C196.659 39.7 195.659 40.1 194.459 40.1ZM224.002 88.2C224.002 89.133 224.302 89.933 224.902 90.6C225.568 91.2 226.335 91.5 227.202 91.5C228.535 91.5 229.502 90.933 230.102 89.8L234.502 93.1C233.968 94.233 233.035 95.2 231.702 96C230.368 96.733 228.868 97.1 227.202 97.1C224.535 97.1 222.335 96.267 220.602 94.6C218.868 92.933 218.002 90.767 218.002 88.1V24H224.002V88.2ZM262.291 97.6C257.291 97.6 253.058 96.567 249.591 94.5C246.125 92.433 243.491 89.6 241.691 86C239.958 82.333 239.091 78.2 239.091 73.6C239.091 69.067 239.925 64.667 241.591 60.4C243.325 56.133 245.891 52.633 249.291 49.9C252.758 47.167 256.958 45.8 261.891 45.8C265.158 45.8 268.191 46.433 270.991 47.7C273.791 48.967 275.991 50.767 277.591 53.1C279.258 55.433 280.091 58.133 280.091 61.2C280.091 66.133 277.991 69.967 273.791 72.7C269.591 75.367 263.791 76.667 256.391 76.6L245.391 76.5C245.991 81.633 247.691 85.533 250.491 88.2C253.358 90.867 257.291 92.2 262.291 92.2C265.291 92.2 268.058 91.8 270.591 91C273.191 90.133 275.691 88.833 278.091 87.1L281.091 91.1C278.558 93.1 275.658 94.7 272.391 95.9C269.191 97.033 265.825 97.6 262.291 97.6ZM257.691 71.4C268.625 71.4 274.091 67.967 274.091 61.1C274.091 57.767 272.925 55.3 270.591 53.7C268.325 52.033 265.525 51.2 262.191 51.2C258.458 51.2 255.291 52.267 252.691 54.4C250.158 56.533 248.258 59.167 246.991 62.3C245.725 65.433 245.091 68.467 245.091 71.4H257.691ZM290.144 122.6C288.277 122.6 286.61 122.167 285.144 121.3C283.677 120.5 282.477 119.4 281.544 118L286.144 114.7C286.61 115.367 287.11 115.9 287.644 116.3C288.244 116.767 289.01 117 289.944 117C292.41 117 293.644 115.367 293.644 112.1V46.5H299.644V112.1C299.644 115.433 298.777 118 297.044 119.8C295.31 121.667 293.01 122.6 290.144 122.6ZM296.344 40.1C295.21 40.1 294.21 39.7 293.344 38.9C292.544 38.033 292.144 37.033 292.144 35.9C292.144 34.7 292.544 33.7 293.344 32.9C294.21 32.033 295.21 31.6 296.344 31.6C297.544 31.6 298.544 32.033 299.344 32.9C300.21 33.7 300.644 34.7 300.644 35.9C300.644 37.033 300.21 38.033 299.344 38.9C298.544 39.7 297.544 40.1 296.344 40.1ZM337.566 97.6C332.833 97.6 328.6 96.5 324.866 94.3C321.2 92.1 318.333 89.033 316.266 85.1C314.2 81.167 313.166 76.7 313.166 71.7C313.166 66.7 314.2 62.233 316.266 58.3C318.4 54.3 321.3 51.2 324.966 49C328.7 46.733 332.933 45.6 337.666 45.6C342.333 45.6 346.5 46.733 350.166 49C353.9 51.2 356.8 54.267 358.866 58.2C361 62.133 362.066 66.6 362.066 71.6C362.066 76.6 361 81.067 358.866 85C356.8 88.933 353.9 92.033 350.166 94.3C346.5 96.5 342.3 97.6 337.566 97.6ZM337.666 92.2C343.2 92.2 347.633 90.3 350.966 86.5C354.366 82.7 356.066 77.733 356.066 71.6C356.066 67.533 355.3 63.967 353.766 60.9C352.233 57.767 350.066 55.333 347.266 53.6C344.466 51.867 341.266 51 337.666 51C334 51 330.766 51.867 327.966 53.6C325.166 55.333 323 57.8 321.466 61C319.933 64.133 319.166 67.7 319.166 71.7C319.166 75.7 319.933 79.267 321.466 82.4C323 85.467 325.166 87.867 327.966 89.6C330.766 91.333 334 92.2 337.666 92.2Z" fill="#5E60CE"/>
<path d="M303.6 107.6H278.6V125.6H303.6V107.6Z" fill="white"/>
<path d="M169.1 130.6C169.1 206.6 296.613 208.6 296.613 107.6" stroke="#5E60CE" stroke-width="6"/>
<path d="M169.1 104.6L171.906 113.237H180.988L173.641 118.575L176.447 127.213L169.1 121.875L161.753 127.213L164.559 118.575L157.212 113.237H166.294L169.1 104.6Z" fill="#1DDB49"/>
</svg>
