<svg width="29" height="35" viewBox="0 0 29 35" fill="none" xmlns="http://www.w3.org/2000/svg">
<path d="M6.488 4.288C5.656 4.288 5.08 4.432 4.76 4.72C4.408 5.008 4.2 5.536 4.136 6.304L0.536 6.256C0.536 4.336 1.128 2.864 2.312 1.84C3.272 0.975999 4.68 0.543999 6.536 0.543999H17.336C19.192 0.543999 20.872 0.927999 22.376 1.696C23.912 2.464 25.112 3.52 25.976 4.864C26.84 6.208 27.272 7.744 27.272 9.472C27.272 11.008 26.936 12.336 26.264 13.456C25.592 14.576 24.648 15.424 23.432 16C23.048 16.192 22.488 16.368 21.752 16.528C22.168 16.528 22.712 16.64 23.384 16.864C24.088 17.088 24.792 17.392 25.496 17.776C26.456 18.288 27.224 19.152 27.8 20.368C28.408 21.584 28.712 23.12 28.712 24.976C28.712 28.144 27.544 30.528 25.208 32.128C22.872 33.696 19.768 34.48 15.896 34.48H14.312C12.616 34.48 11 34.4 9.464 34.24L6.488 33.904V4.288ZM16.088 30.832C18.904 30.832 21.064 30.368 22.568 29.44C24.104 28.512 24.872 27.008 24.872 24.928C24.872 22.912 24.184 21.328 22.808 20.176C21.432 18.992 19.704 18.4 17.624 18.4H13.112L13.16 14.848L17.288 14.8C19.144 14.8 20.632 14.32 21.752 13.36C22.84 12.4 23.384 11.104 23.384 9.472C23.384 7.84 22.888 6.56 21.896 5.632C20.904 4.672 19.592 4.192 17.96 4.192H10.424V30.592C12.632 30.752 14.52 30.832 16.088 30.832Z" fill="#5E60CE"/>
</svg>
