<svg width="260" height="260" viewBox="0 0 260 260" fill="none" xmlns="http://www.w3.org/2000/svg">
<path d="M220.25 122.5C220.25 174.838 178.044 217.25 126 217.25C73.9557 217.25 31.75 174.838 31.75 122.5C31.75 70.1624 73.9557 27.75 126 27.75C178.044 27.75 220.25 70.1624 220.25 122.5Z" fill="#5E60CE" stroke="#5E60CE" stroke-width="3.5"/>
<path d="M20.2334 213.497L39.2772 159.771L79.1393 200.515L20.2334 213.497Z" fill="#5E60CE" stroke="#5E60CE" stroke-width="3.5"/>
<path d="M217.066 73.8422L209.192 49.1769C207.267 43.1458 198.733 43.1457 196.808 49.1769L188.934 73.8422C188.736 74.464 188.158 74.886 187.505 74.886H161.877C155.608 74.886 152.972 82.8848 158.012 86.6122L178.867 102.035C179.383 102.417 179.599 103.085 179.404 103.697L171.467 128.56C169.549 134.569 176.453 139.514 181.524 135.763L202.108 120.541C202.638 120.149 203.362 120.149 203.892 120.541L224.476 135.763C229.547 139.514 236.451 134.569 234.533 128.56L226.596 103.697C226.401 103.085 226.617 102.417 227.133 102.035L247.988 86.6122C253.028 82.8848 250.392 74.886 244.123 74.886H218.495C217.842 74.886 217.264 74.464 217.066 73.8422Z" fill="#1DDB49" stroke="white" stroke-width="5" stroke-linejoin="round"/>
</svg>
