<svg width="717" height="619" viewBox="0 0 717 619" fill="none" xmlns="http://www.w3.org/2000/svg">
<g clip-path="url(#clip0)">
<path d="M368.5 328.5C368.5 403.037 307.856 463.5 233 463.5C158.144 463.5 97.5 403.037 97.5 328.5C97.5 253.963 158.144 193.5 233 193.5C307.856 193.5 368.5 253.963 368.5 328.5Z" fill="white" stroke="#5E60CE" stroke-width="13"/>
<path d="M225.96 250.44L210.84 250.08C211.02 252.24 210.66 255.48 210.48 258.72C210.12 262.68 209.58 267.36 209.04 272.58C204.9 272.76 200.94 272.76 196.8 272.76C189.06 272.76 173.4 271.5 167.1 270.42L167.46 283.92C174.84 284.46 188.88 285.18 196.62 285.18C200.22 285.18 203.82 285.18 207.6 285C206.88 293.46 205.98 302.46 205.62 311.46C180.78 322.98 160.62 346.56 160.62 369.78C160.62 385.08 169.98 392.46 181.86 392.46C191.76 392.46 202.56 388.5 212.46 382.56C213.36 386.16 214.26 389.58 215.34 392.64L228.3 388.68C226.86 384.18 225.42 379.32 223.98 374.1C239.28 361.14 253.86 341.16 264.12 315.6C280.86 320.46 290.04 332.7 290.04 346.38C290.04 369.78 269.88 386.52 237.3 389.94L245.04 402C286.8 395.34 303.9 373.02 303.9 347.1C303.9 327.3 290.58 310.74 268.08 304.8C268.08 304.44 268.26 304.26 268.26 304.08C269.16 301.2 270.78 296.34 271.86 293.82L257.64 290.22C257.46 293.28 256.56 297.96 255.66 300.66C255.48 301.38 255.3 301.92 255.12 302.46C252.96 302.28 250.8 302.28 248.46 302.28C239.28 302.28 228.3 303.9 218.22 306.78C218.76 299.22 219.3 291.66 220.2 284.64C242.16 283.56 266.1 281.04 285 277.8L284.82 264.48C266.46 268.8 244.5 271.14 221.64 272.22C222.36 267 223.08 262.32 223.8 258.54C224.34 256.02 225.06 252.78 225.96 250.44ZM217.68 326.76C217.68 324.24 217.68 321.9 217.86 319.38C226.14 316.32 236.58 313.62 248.28 313.62C249.36 313.62 250.44 313.62 251.34 313.62C243.78 333.78 232.8 348.36 220.74 359.7C218.94 349.26 217.68 338.28 217.68 326.76ZM174.3 367.44C174.3 352.68 187.62 334.86 205.08 324.96C205.08 326.04 205.08 327.12 205.08 328.2C205.08 341.7 206.88 356.28 209.4 369.06C200.22 375.54 191.58 378.6 184.56 378.6C177.72 378.6 174.3 374.82 174.3 367.44Z" fill="#5F5858"/>
<path d="M112.421 466.816L124.766 418.016L163.153 450.578L112.421 466.816Z" fill="#5E60CE" stroke="#5E60CE" stroke-width="3.5"/>
<path d="M583.5 433.5C583.5 508.037 522.856 568.5 448 568.5C373.144 568.5 312.5 508.037 312.5 433.5C312.5 358.963 373.144 298.5 448 298.5C522.856 298.5 583.5 358.963 583.5 433.5Z" fill="white" stroke="white" stroke-width="13"/>
<path d="M592.5 437C592.5 511.239 531.878 571.5 457 571.5C382.122 571.5 321.5 511.239 321.5 437C321.5 362.761 382.122 302.5 457 302.5C531.878 302.5 592.5 362.761 592.5 437Z" fill="white" stroke="#5E60CE" stroke-width="13"/>
<path d="M386.52 497.34C382.68 497.34 379.38 496.32 376.62 494.28C373.98 492.24 372.24 489.6 371.4 486.36L379.68 481.86C380.28 483.42 381.12 484.74 382.2 485.82C383.4 486.78 384.78 487.26 386.34 487.26C387.78 487.26 388.92 486.78 389.76 485.82C390.72 484.86 391.68 483.24 392.64 480.96L438.72 370.26H442.32L494.7 495H483.18L466.08 454.14H414.78L401.28 487.62C400.08 490.62 398.1 493.02 395.34 494.82C392.58 496.5 389.64 497.34 386.52 497.34ZM461.76 444.06L442.32 395.64L440.34 388.44L438.54 395.64L419.1 444.06H461.76ZM518.198 368.28H530.798L529.178 469.98H519.818L518.198 368.28ZM524.318 497.34C522.278 497.34 520.478 496.56 518.918 495C517.478 493.56 516.758 491.82 516.758 489.78C516.758 487.62 517.478 485.82 518.918 484.38C520.478 482.82 522.278 482.04 524.318 482.04C526.478 482.04 528.278 482.82 529.718 484.38C531.278 485.82 532.058 487.62 532.058 489.78C532.058 491.82 531.278 493.56 529.718 495C528.278 496.56 526.478 497.34 524.318 497.34Z" fill="#5F5858"/>
<path d="M538.987 550.786L573.64 514.277L591.173 561.461L538.987 550.786Z" fill="#5E60CE" stroke="#5E60CE" stroke-width="3.5"/>
<path d="M50.2952 55.136C50.7992 55.136 51.2432 55.328 51.6272 55.712C52.0352 56.096 52.2392 56.528 52.2392 57.008C52.2392 57.512 52.0352 57.956 51.6272 58.34C51.2432 58.724 50.7992 58.916 50.2952 58.916C49.8152 58.916 49.3832 58.724 48.9992 58.34C48.6152 57.956 48.4232 57.512 48.4232 57.008C48.4232 56.528 48.6152 56.096 48.9992 55.712C49.3832 55.328 49.8152 55.136 50.2952 55.136ZM49.0352 60.608H51.6632L51.9872 81.2H48.7112L49.0352 60.608ZM60.7473 51.716C60.1233 51.716 59.6913 51.824 59.4513 52.04C59.1873 52.256 59.0313 52.652 58.9833 53.228L56.2833 53.192C56.2833 51.752 56.7273 50.648 57.6153 49.88C58.3353 49.232 59.3913 48.908 60.7833 48.908H68.8833C70.2753 48.908 71.5353 49.196 72.6633 49.772C73.8153 50.348 74.7153 51.14 75.3633 52.148C76.0113 53.156 76.3353 54.308 76.3353 55.604C76.3353 56.756 76.0833 57.752 75.5793 58.592C75.0753 59.432 74.3673 60.068 73.4553 60.5C73.1673 60.644 72.7473 60.776 72.1953 60.896C72.5073 60.896 72.9153 60.98 73.4193 61.148C73.9473 61.316 74.4753 61.544 75.0033 61.832C75.7233 62.216 76.2993 62.864 76.7313 63.776C77.1873 64.688 77.4153 65.84 77.4153 67.232C77.4153 69.608 76.5393 71.396 74.7873 72.596C73.0353 73.772 70.7073 74.36 67.8033 74.36H66.6153C65.3433 74.36 64.1313 74.3 62.9793 74.18L60.7473 73.928V51.716ZM67.9473 71.624C70.0593 71.624 71.6793 71.276 72.8073 70.58C73.9593 69.884 74.5353 68.756 74.5353 67.196C74.5353 65.684 74.0193 64.496 72.9873 63.632C71.9553 62.744 70.6593 62.3 69.0993 62.3H65.7153L65.7513 59.636L68.8473 59.6C70.2393 59.6 71.3553 59.24 72.1953 58.52C73.0113 57.8 73.4193 56.828 73.4193 55.604C73.4193 54.38 73.0473 53.42 72.3033 52.724C71.5593 52.004 70.5753 51.644 69.3513 51.644H63.6993V71.444C65.3553 71.564 66.7713 71.624 67.9473 71.624ZM85.2751 70.796C85.2751 71.06 85.3591 71.288 85.5271 71.48C85.6951 71.648 85.9111 71.732 86.1751 71.732C86.5591 71.732 86.8591 71.516 87.0751 71.084L89.1991 72.416C88.8631 73.04 88.4191 73.532 87.8671 73.892C87.3391 74.228 86.7151 74.396 85.9951 74.396C84.8671 74.396 83.9671 74.072 83.2951 73.424C82.6471 72.752 82.3231 71.84 82.3231 70.688V55.964H85.2751V70.796ZM83.7631 52.472C83.2831 52.472 82.8511 52.28 82.4671 51.896C82.0831 51.512 81.8911 51.08 81.8911 50.6C81.8911 50.096 82.0831 49.652 82.4671 49.268C82.8511 48.884 83.2831 48.692 83.7631 48.692C84.2671 48.692 84.7111 48.884 85.0951 49.268C85.5031 49.652 85.7071 50.096 85.7071 50.6C85.7071 51.08 85.5031 51.512 85.0951 51.896C84.7111 52.28 84.2671 52.472 83.7631 52.472ZM99.0769 74.36C97.3009 74.36 95.7769 73.976 94.5049 73.208C93.2569 72.416 92.3089 71.36 91.6609 70.04C91.0129 68.696 90.6889 67.196 90.6889 65.54C90.6889 63.908 91.0009 62.324 91.6249 60.788C92.2489 59.252 93.1849 57.98 94.4329 56.972C95.6809 55.964 97.2169 55.46 99.0409 55.46C100.241 55.46 101.357 55.7 102.389 56.18C103.421 56.636 104.237 57.308 104.837 58.196C105.461 59.06 105.773 60.068 105.773 61.22C105.773 63.068 105.017 64.52 103.505 65.576C101.993 66.632 100.025 67.136 97.6009 67.088L93.8569 67.016C94.1209 68.504 94.6969 69.656 95.5849 70.472C96.4969 71.264 97.6969 71.66 99.1849 71.66C101.129 71.66 102.977 71.012 104.729 69.716L106.349 71.768C104.069 73.496 101.645 74.36 99.0769 74.36ZM97.6009 64.496C99.2089 64.496 100.481 64.22 101.417 63.668C102.353 63.116 102.821 62.288 102.821 61.184C102.821 60.2 102.461 59.444 101.741 58.916C101.045 58.388 100.205 58.124 99.2209 58.124C98.1169 58.124 97.1569 58.46 96.3409 59.132C95.5249 59.78 94.9009 60.596 94.4689 61.58C94.0369 62.564 93.7849 63.536 93.7129 64.496H97.6009ZM129.256 72.416C128.92 73.04 128.476 73.532 127.924 73.892C127.396 74.228 126.772 74.396 126.052 74.396C124.924 74.396 124.024 74.072 123.352 73.424C122.704 72.752 122.38 71.84 122.38 70.688V61.868C122.38 60.668 122.128 59.756 121.624 59.132C121.12 58.484 120.256 58.16 119.032 58.16C117.928 58.16 116.98 58.424 116.188 58.952C115.42 59.48 114.628 60.284 113.812 61.364V74.036H110.86V61.4C110.86 59.528 110.356 58.16 109.348 57.296L111.328 55.46C111.736 55.676 112.132 56.036 112.516 56.54C112.9 57.02 113.212 57.572 113.452 58.196C114.94 56.396 116.86 55.496 119.212 55.496C120.988 55.496 122.428 55.976 123.532 56.936C124.636 57.872 125.236 59.204 125.332 60.932V70.796C125.332 71.06 125.416 71.288 125.584 71.48C125.752 71.648 125.968 71.732 126.232 71.732C126.616 71.732 126.916 71.516 127.132 71.084L129.256 72.416ZM132.107 59.276C131.915 58.844 131.627 58.448 131.243 58.088C130.859 57.704 130.475 57.464 130.091 57.368L131.675 54.956C133.163 55.796 134.279 57.212 135.023 59.204L138.983 69.68L144.059 55.712H147.011L140.315 74.036H137.687L132.107 59.276ZM157.794 74.36C156.018 74.36 154.494 73.976 153.222 73.208C151.974 72.416 151.026 71.36 150.378 70.04C149.73 68.696 149.406 67.196 149.406 65.54C149.406 63.908 149.718 62.324 150.342 60.788C150.966 59.252 151.902 57.98 153.15 56.972C154.398 55.964 155.934 55.46 157.758 55.46C158.958 55.46 160.074 55.7 161.106 56.18C162.138 56.636 162.954 57.308 163.554 58.196C164.178 59.06 164.49 60.068 164.49 61.22C164.49 63.068 163.734 64.52 162.222 65.576C160.71 66.632 158.742 67.136 156.318 67.088L152.574 67.016C152.838 68.504 153.414 69.656 154.302 70.472C155.214 71.264 156.414 71.66 157.902 71.66C159.846 71.66 161.694 71.012 163.446 69.716L165.066 71.768C162.786 73.496 160.362 74.36 157.794 74.36ZM156.318 64.496C157.926 64.496 159.198 64.22 160.134 63.668C161.07 63.116 161.538 62.288 161.538 61.184C161.538 60.2 161.178 59.444 160.458 58.916C159.762 58.388 158.922 58.124 157.938 58.124C156.834 58.124 155.874 58.46 155.058 59.132C154.242 59.78 153.618 60.596 153.186 61.58C152.754 62.564 152.502 63.536 152.43 64.496H156.318ZM187.974 72.416C187.638 73.04 187.194 73.532 186.642 73.892C186.114 74.228 185.49 74.396 184.77 74.396C183.642 74.396 182.742 74.072 182.07 73.424C181.422 72.752 181.098 71.84 181.098 70.688V61.868C181.098 60.668 180.846 59.756 180.342 59.132C179.838 58.484 178.974 58.16 177.75 58.16C176.646 58.16 175.698 58.424 174.906 58.952C174.138 59.48 173.346 60.284 172.53 61.364V74.036H169.578V61.4C169.578 59.528 169.074 58.16 168.066 57.296L170.046 55.46C170.454 55.676 170.85 56.036 171.234 56.54C171.618 57.02 171.93 57.572 172.17 58.196C173.658 56.396 175.578 55.496 177.93 55.496C179.706 55.496 181.146 55.976 182.25 56.936C183.354 57.872 183.954 59.204 184.05 60.932V70.796C184.05 71.06 184.134 71.288 184.302 71.48C184.47 71.648 184.686 71.732 184.95 71.732C185.334 71.732 185.634 71.516 185.85 71.084L187.974 72.416ZM194.272 70.796C194.272 71.06 194.356 71.288 194.524 71.48C194.692 71.648 194.908 71.732 195.172 71.732C195.556 71.732 195.856 71.516 196.072 71.084L198.196 72.416C197.86 73.04 197.416 73.532 196.864 73.892C196.336 74.228 195.712 74.396 194.992 74.396C193.864 74.396 192.964 74.072 192.292 73.424C191.644 72.752 191.32 71.84 191.32 70.688V55.964H194.272V70.796ZM192.76 52.472C192.28 52.472 191.848 52.28 191.464 51.896C191.08 51.512 190.888 51.08 190.888 50.6C190.888 50.096 191.08 49.652 191.464 49.268C191.848 48.884 192.28 48.692 192.76 48.692C193.264 48.692 193.708 48.884 194.092 49.268C194.5 49.652 194.704 50.096 194.704 50.6C194.704 51.08 194.5 51.512 194.092 51.896C193.708 52.28 193.264 52.472 192.76 52.472ZM207.642 74.36C205.914 74.36 204.45 73.94 203.25 73.1C202.05 72.236 201.15 71.096 200.55 69.68C199.974 68.24 199.686 66.668 199.686 64.964C199.686 63.14 200.046 61.508 200.766 60.068C201.51 58.604 202.554 57.464 203.898 56.648C205.266 55.808 206.85 55.388 208.65 55.388C209.37 55.388 210.594 55.472 212.322 55.64V47.792H215.274V70.652C215.274 70.988 215.346 71.252 215.49 71.444C215.658 71.612 215.898 71.696 216.21 71.696C216.618 71.696 216.942 71.48 217.182 71.048L219.234 72.38C218.922 73.004 218.454 73.496 217.83 73.856C217.23 74.192 216.582 74.36 215.886 74.36C215.022 74.336 214.278 74.072 213.654 73.568C213.03 73.064 212.694 72.476 212.646 71.804C212.19 72.62 211.494 73.256 210.558 73.712C209.622 74.144 208.65 74.36 207.642 74.36ZM207.642 71.696C208.578 71.696 209.418 71.456 210.162 70.976C210.906 70.496 211.482 69.848 211.89 69.032C212.178 68.408 212.322 67.736 212.322 67.016V58.484C212.106 58.46 211.71 58.388 211.134 58.268C210.558 58.148 209.97 58.088 209.37 58.088C207.138 58.088 205.458 58.7 204.33 59.924C203.202 61.148 202.638 62.756 202.638 64.748C202.638 66.716 203.082 68.372 203.97 69.716C204.882 71.036 206.106 71.696 207.642 71.696ZM232.905 76.124C230.793 76.124 228.909 75.692 227.253 74.828C225.597 73.988 224.301 72.752 223.365 71.12C222.429 69.488 221.961 67.556 221.961 65.324C221.961 63.092 222.405 61.124 223.293 59.42C224.205 57.692 225.477 56.36 227.109 55.424C228.765 54.464 230.649 53.984 232.761 53.984C234.849 53.984 236.709 54.44 238.341 55.352C239.997 56.24 241.281 57.476 242.193 59.06C243.105 60.62 243.561 62.372 243.561 64.316C243.561 66.356 243.081 67.976 242.121 69.176C241.185 70.376 239.913 70.976 238.305 70.976C237.609 70.976 236.889 70.772 236.145 70.364C235.425 69.956 234.993 69.476 234.849 68.924C234.609 69.428 234.177 69.824 233.553 70.112C232.953 70.376 232.353 70.508 231.753 70.508C230.865 70.508 230.049 70.256 229.305 69.752C228.585 69.248 228.009 68.564 227.577 67.7C227.169 66.812 226.965 65.816 226.965 64.712C226.965 63.56 227.217 62.552 227.721 61.688C228.249 60.8 228.921 60.116 229.737 59.636C230.553 59.156 231.381 58.916 232.221 58.916C232.413 58.916 232.629 58.94 232.869 58.988C233.133 59.012 233.313 59.024 233.409 59.024L234.489 59.096H236.541V66.728C236.757 67.856 237.333 68.42 238.269 68.42C239.013 68.42 239.601 68.048 240.033 67.304C240.465 66.536 240.681 65.552 240.681 64.352C240.681 62.84 240.345 61.508 239.673 60.356C239.025 59.18 238.101 58.268 236.901 57.62C235.701 56.972 234.333 56.648 232.797 56.648C231.165 56.648 229.749 57.02 228.549 57.764C227.349 58.508 226.425 59.54 225.777 60.86C225.153 62.18 224.841 63.68 224.841 65.36C224.841 67.88 225.573 69.86 227.037 71.3C228.501 72.74 230.553 73.46 233.193 73.46C234.489 73.46 235.737 73.304 236.937 72.992C238.137 72.656 239.097 72.224 239.817 71.696L240.645 74.216C239.349 74.936 238.017 75.428 236.649 75.692C235.305 75.98 234.057 76.124 232.905 76.124ZM231.717 67.844C232.533 67.844 233.169 67.376 233.625 66.44C233.673 66.344 233.709 66.248 233.733 66.152C233.757 66.032 233.781 65.948 233.805 65.9V61.58H232.293C231.501 61.58 230.865 61.88 230.385 62.48C229.929 63.056 229.701 63.812 229.701 64.748C229.701 65.612 229.857 66.344 230.169 66.944C230.481 67.544 230.997 67.844 231.717 67.844ZM248.89 48.584H252.166L251.842 69.176H249.214L248.89 48.584ZM250.474 74.648C249.994 74.648 249.562 74.456 249.178 74.072C248.794 73.688 248.602 73.256 248.602 72.776C248.602 72.272 248.794 71.828 249.178 71.444C249.562 71.06 249.994 70.868 250.474 70.868C250.978 70.868 251.422 71.06 251.806 71.444C252.214 71.828 252.418 72.272 252.418 72.776C252.418 73.256 252.214 73.688 251.806 74.072C251.422 74.456 250.978 74.648 250.474 74.648ZM276.49 74.72C274.234 74.72 272.29 74.108 270.658 72.884C269.026 71.636 268.006 70.016 267.598 68.024L270.082 66.944C270.418 68.432 271.174 69.644 272.35 70.58C273.55 71.516 274.954 71.984 276.562 71.984C278.242 71.984 279.61 71.504 280.666 70.544C281.746 69.56 282.286 68.3 282.286 66.764C282.286 65.972 282.13 65.312 281.818 64.784C281.506 64.232 280.966 63.716 280.198 63.236C279.43 62.756 278.338 62.228 276.922 61.652C274.522 60.668 272.794 59.648 271.738 58.592C270.682 57.512 270.154 56.252 270.154 54.812C270.154 53.66 270.454 52.616 271.054 51.68C271.678 50.72 272.518 49.976 273.574 49.448C274.63 48.896 275.806 48.62 277.102 48.62C278.23 48.62 279.25 48.824 280.162 49.232C281.098 49.64 281.83 50.204 282.358 50.924C282.91 51.62 283.186 52.388 283.186 53.228C283.186 54.26 282.85 55.1 282.178 55.748C281.506 56.396 280.654 56.72 279.622 56.72C279.31 56.72 279.07 56.708 278.902 56.684L279.118 54.236C279.262 54.284 279.37 54.308 279.442 54.308C279.682 54.308 279.886 54.212 280.054 54.02C280.246 53.804 280.342 53.552 280.342 53.264C280.342 52.736 280.03 52.292 279.406 51.932C278.782 51.548 278.038 51.356 277.174 51.356C276.07 51.356 275.11 51.68 274.294 52.328C273.478 52.976 273.07 53.756 273.07 54.668C273.07 55.484 273.478 56.252 274.294 56.972C275.11 57.668 276.358 58.364 278.038 59.06C280.606 60.116 282.454 61.244 283.582 62.444C284.71 63.62 285.274 65.048 285.274 66.728C285.274 68.24 284.89 69.608 284.122 70.832C283.354 72.032 282.298 72.98 280.954 73.676C279.634 74.372 278.146 74.72 276.49 74.72ZM297.077 74.36C295.301 74.36 293.777 73.976 292.505 73.208C291.257 72.416 290.309 71.36 289.661 70.04C289.013 68.696 288.689 67.196 288.689 65.54C288.689 63.908 289.001 62.324 289.625 60.788C290.249 59.252 291.185 57.98 292.433 56.972C293.681 55.964 295.217 55.46 297.041 55.46C298.241 55.46 299.357 55.7 300.389 56.18C301.421 56.636 302.237 57.308 302.837 58.196C303.461 59.06 303.773 60.068 303.773 61.22C303.773 63.068 303.017 64.52 301.505 65.576C299.993 66.632 298.025 67.136 295.601 67.088L291.857 67.016C292.121 68.504 292.697 69.656 293.585 70.472C294.497 71.264 295.697 71.66 297.185 71.66C299.129 71.66 300.977 71.012 302.729 69.716L304.349 71.768C302.069 73.496 299.645 74.36 297.077 74.36ZM295.601 64.496C297.209 64.496 298.481 64.22 299.417 63.668C300.353 63.116 300.821 62.288 300.821 61.184C300.821 60.2 300.461 59.444 299.741 58.916C299.045 58.388 298.205 58.124 297.221 58.124C296.117 58.124 295.157 58.46 294.341 59.132C293.525 59.78 292.901 60.596 292.469 61.58C292.037 62.564 291.785 63.536 291.713 64.496H295.601ZM311.416 70.796C311.416 71.06 311.5 71.288 311.668 71.48C311.836 71.648 312.052 71.732 312.316 71.732C312.7 71.732 313 71.516 313.216 71.084L315.34 72.416C315.004 73.04 314.56 73.532 314.008 73.892C313.48 74.228 312.856 74.396 312.136 74.396C311.008 74.396 310.108 74.072 309.436 73.424C308.788 72.752 308.464 71.84 308.464 70.688V47.828H311.416V70.796ZM325.218 74.36C323.442 74.36 321.918 73.976 320.646 73.208C319.398 72.416 318.45 71.36 317.802 70.04C317.154 68.696 316.83 67.196 316.83 65.54C316.83 63.908 317.142 62.324 317.766 60.788C318.39 59.252 319.326 57.98 320.574 56.972C321.822 55.964 323.358 55.46 325.182 55.46C326.382 55.46 327.498 55.7 328.53 56.18C329.562 56.636 330.378 57.308 330.978 58.196C331.602 59.06 331.914 60.068 331.914 61.22C331.914 63.068 331.158 64.52 329.646 65.576C328.134 66.632 326.166 67.136 323.742 67.088L319.998 67.016C320.262 68.504 320.838 69.656 321.726 70.472C322.638 71.264 323.838 71.66 325.326 71.66C327.27 71.66 329.118 71.012 330.87 69.716L332.49 71.768C330.21 73.496 327.786 74.36 325.218 74.36ZM323.742 64.496C325.35 64.496 326.622 64.22 327.558 63.668C328.494 63.116 328.962 62.288 328.962 61.184C328.962 60.2 328.602 59.444 327.882 58.916C327.186 58.388 326.346 58.124 325.362 58.124C324.258 58.124 323.298 58.46 322.482 59.132C321.666 59.78 321.042 60.596 320.61 61.58C320.178 62.564 319.926 63.536 319.854 64.496H323.742ZM344.553 74.216C341.817 74.216 339.681 73.424 338.145 71.84C336.609 70.256 335.841 68.06 335.841 65.252C335.841 63.332 336.189 61.628 336.885 60.14C337.605 58.628 338.601 57.464 339.873 56.648C341.145 55.808 342.609 55.388 344.265 55.388C345.585 55.388 346.773 55.664 347.829 56.216C348.909 56.744 349.725 57.476 350.277 58.412C350.853 59.348 351.093 60.38 350.997 61.508H348.117C348.213 60.524 347.913 59.708 347.217 59.06C346.521 58.388 345.585 58.052 344.409 58.052C343.305 58.052 342.321 58.352 341.457 58.952C340.617 59.552 339.957 60.404 339.477 61.508C339.021 62.612 338.793 63.872 338.793 65.288C338.793 67.304 339.285 68.852 340.269 69.932C341.277 71.012 342.705 71.552 344.553 71.552C345.369 71.552 346.197 71.408 347.037 71.12C347.877 70.832 348.933 70.34 350.205 69.644L351.573 71.876C349.461 73.436 347.121 74.216 344.553 74.216ZM363.458 74.216C360.722 74.216 358.586 73.424 357.05 71.84C355.514 70.256 354.746 68.06 354.746 65.252C354.746 63.332 355.094 61.628 355.79 60.14C356.51 58.628 357.506 57.464 358.778 56.648C360.05 55.808 361.514 55.388 363.17 55.388C364.49 55.388 365.678 55.664 366.734 56.216C367.814 56.744 368.63 57.476 369.182 58.412C369.758 59.348 369.998 60.38 369.902 61.508H367.022C367.118 60.524 366.818 59.708 366.122 59.06C365.426 58.388 364.49 58.052 363.314 58.052C362.21 58.052 361.226 58.352 360.362 58.952C359.522 59.552 358.862 60.404 358.382 61.508C357.926 62.612 357.698 63.872 357.698 65.288C357.698 67.304 358.19 68.852 359.174 69.932C360.182 71.012 361.61 71.552 363.458 71.552C364.274 71.552 365.102 71.408 365.942 71.12C366.782 70.832 367.838 70.34 369.11 69.644L370.478 71.876C368.366 73.436 366.026 74.216 363.458 74.216ZM377.366 70.796C377.366 71.06 377.45 71.288 377.618 71.48C377.786 71.648 378.002 71.732 378.266 71.732C378.65 71.732 378.95 71.516 379.166 71.084L381.29 72.416C380.954 73.04 380.51 73.532 379.958 73.892C379.43 74.228 378.806 74.396 378.086 74.396C376.958 74.396 376.058 74.072 375.386 73.424C374.738 72.752 374.414 71.84 374.414 70.688V55.964H377.366V70.796ZM375.854 52.472C375.374 52.472 374.942 52.28 374.558 51.896C374.174 51.512 373.982 51.08 373.982 50.6C373.982 50.096 374.174 49.652 374.558 49.268C374.942 48.884 375.374 48.692 375.854 48.692C376.358 48.692 376.802 48.884 377.186 49.268C377.594 49.652 377.798 50.096 377.798 50.6C377.798 51.08 377.594 51.512 377.186 51.896C376.802 52.28 376.358 52.472 375.854 52.472ZM391.636 74.36C389.932 74.36 388.396 73.952 387.028 73.136C385.684 72.32 384.628 71.204 383.86 69.788C383.092 68.348 382.708 66.728 382.708 64.928C382.708 63.128 383.092 61.508 383.86 60.068C384.652 58.604 385.72 57.464 387.064 56.648C388.432 55.808 389.968 55.388 391.672 55.388C393.376 55.388 394.9 55.796 396.244 56.612C397.612 57.428 398.68 58.568 399.448 60.032C400.216 61.472 400.6 63.092 400.6 64.892C400.6 66.692 400.216 68.312 399.448 69.752C398.68 71.192 397.612 72.32 396.244 73.136C394.876 73.952 393.34 74.36 391.636 74.36ZM391.672 71.696C393.472 71.696 394.912 71.072 395.992 69.824C397.096 68.576 397.648 66.932 397.648 64.892C397.648 62.828 397.096 61.172 395.992 59.924C394.912 58.676 393.472 58.052 391.672 58.052C390.496 58.052 389.452 58.34 388.54 58.916C387.628 59.492 386.92 60.296 386.416 61.328C385.912 62.36 385.66 63.548 385.66 64.892C385.66 66.932 386.212 68.576 387.316 69.824C388.42 71.072 389.872 71.696 391.672 71.696ZM423.351 72.416C423.015 73.04 422.571 73.532 422.019 73.892C421.491 74.228 420.867 74.396 420.147 74.396C419.019 74.396 418.119 74.072 417.447 73.424C416.799 72.752 416.475 71.84 416.475 70.688V61.868C416.475 60.668 416.223 59.756 415.719 59.132C415.215 58.484 414.351 58.16 413.127 58.16C412.023 58.16 411.075 58.424 410.283 58.952C409.515 59.48 408.723 60.284 407.907 61.364V74.036H404.955V61.4C404.955 59.528 404.451 58.16 403.443 57.296L405.423 55.46C405.831 55.676 406.227 56.036 406.611 56.54C406.995 57.02 407.307 57.572 407.547 58.196C409.035 56.396 410.955 55.496 413.307 55.496C415.083 55.496 416.523 55.976 417.627 56.936C418.731 57.872 419.331 59.204 419.427 60.932V70.796C419.427 71.06 419.511 71.288 419.679 71.48C419.847 71.648 420.063 71.732 420.327 71.732C420.711 71.732 421.011 71.516 421.227 71.084L423.351 72.416ZM432.583 74.36C430.975 74.36 429.583 73.94 428.407 73.1C427.255 72.236 426.367 71.084 425.743 69.644C425.143 68.204 424.843 66.644 424.843 64.964C424.843 63.14 425.191 61.508 425.887 60.068C426.583 58.628 427.603 57.488 428.947 56.648C430.315 55.808 431.947 55.388 433.843 55.388C434.395 55.388 435.079 55.424 435.895 55.496C436.735 55.544 437.443 55.616 438.019 55.712H440.431V70.652C440.431 70.988 440.503 71.252 440.647 71.444C440.815 71.612 441.055 71.696 441.367 71.696C441.775 71.696 442.099 71.492 442.339 71.084L444.355 72.416C444.043 73.016 443.587 73.496 442.987 73.856C442.411 74.192 441.787 74.36 441.115 74.36C440.227 74.36 439.459 74.108 438.811 73.604C438.187 73.076 437.851 72.464 437.803 71.768V71.804C437.395 72.596 436.711 73.22 435.751 73.676C434.791 74.132 433.735 74.36 432.583 74.36ZM432.799 71.696C433.759 71.696 434.611 71.444 435.355 70.94C436.099 70.436 436.663 69.8 437.047 69.032C437.263 68.624 437.383 68.276 437.407 67.988C437.455 67.7 437.479 67.376 437.479 67.016V58.304L435.967 58.196C434.767 58.1 433.963 58.052 433.555 58.052C431.731 58.052 430.315 58.7 429.307 59.996C428.299 61.292 427.795 62.936 427.795 64.928C427.795 66.776 428.239 68.372 429.127 69.716C430.015 71.036 431.239 71.696 432.799 71.696ZM470.52 71.804C470.016 72.596 469.224 73.208 468.144 73.64C467.064 74.072 465.948 74.288 464.796 74.288C462.972 74.288 461.496 73.832 460.368 72.92C459.24 71.984 458.652 70.604 458.604 68.78V61.436C458.604 59.564 458.1 58.196 457.092 57.332L459.072 55.496C459.672 55.832 460.224 56.432 460.728 57.296C461.256 58.16 461.532 59.084 461.556 60.068V67.844C461.556 69.068 461.82 70.004 462.348 70.652C462.876 71.3 463.752 71.624 464.976 71.624C466.056 71.624 466.968 71.372 467.712 70.868C468.456 70.364 469.272 69.524 470.16 68.348L470.196 56H473.148V70.652C473.148 70.988 473.22 71.252 473.364 71.444C473.532 71.612 473.772 71.696 474.084 71.696C474.492 71.696 474.816 71.492 475.056 71.084L477.072 72.416C476.76 73.016 476.304 73.496 475.704 73.856C475.128 74.192 474.504 74.36 473.832 74.36C472.944 74.36 472.176 74.108 471.528 73.604C470.904 73.076 470.568 72.464 470.52 71.768V71.804ZM498.829 72.416C498.493 73.04 498.049 73.532 497.497 73.892C496.969 74.228 496.345 74.396 495.625 74.396C494.497 74.396 493.597 74.072 492.925 73.424C492.277 72.752 491.953 71.84 491.953 70.688V61.868C491.953 60.668 491.701 59.756 491.197 59.132C490.693 58.484 489.829 58.16 488.605 58.16C487.501 58.16 486.553 58.424 485.761 58.952C484.993 59.48 484.201 60.284 483.385 61.364V74.036H480.433V61.4C480.433 59.528 479.929 58.16 478.921 57.296L480.901 55.46C481.309 55.676 481.705 56.036 482.089 56.54C482.473 57.02 482.785 57.572 483.025 58.196C484.513 56.396 486.433 55.496 488.785 55.496C490.561 55.496 492.001 55.976 493.105 56.936C494.209 57.872 494.809 59.204 494.905 60.932V70.796C494.905 71.06 494.989 71.288 495.157 71.48C495.325 71.648 495.541 71.732 495.805 71.732C496.189 71.732 496.489 71.516 496.705 71.084L498.829 72.416ZM520.555 74.216C517.819 74.216 515.683 73.424 514.147 71.84C512.611 70.256 511.843 68.06 511.843 65.252C511.843 63.332 512.191 61.628 512.887 60.14C513.607 58.628 514.603 57.464 515.875 56.648C517.147 55.808 518.611 55.388 520.267 55.388C521.587 55.388 522.775 55.664 523.831 56.216C524.911 56.744 525.727 57.476 526.279 58.412C526.855 59.348 527.095 60.38 526.999 61.508H524.119C524.215 60.524 523.915 59.708 523.219 59.06C522.523 58.388 521.587 58.052 520.411 58.052C519.307 58.052 518.323 58.352 517.459 58.952C516.619 59.552 515.959 60.404 515.479 61.508C515.023 62.612 514.795 63.872 514.795 65.288C514.795 67.304 515.287 68.852 516.271 69.932C517.279 71.012 518.707 71.552 520.555 71.552C521.371 71.552 522.199 71.408 523.039 71.12C523.879 70.832 524.935 70.34 526.207 69.644L527.575 71.876C525.463 73.436 523.123 74.216 520.555 74.216ZM546.236 70.796C546.236 71.06 546.32 71.288 546.488 71.48C546.656 71.648 546.872 71.732 547.136 71.732C547.52 71.732 547.82 71.516 548.036 71.084L550.16 72.416C549.824 73.04 549.38 73.532 548.828 73.892C548.3 74.228 547.676 74.396 546.956 74.396C545.828 74.396 544.928 74.072 544.256 73.424C543.608 72.752 543.284 71.84 543.284 70.688V61.472C543.284 59.192 542.12 58.052 539.792 58.052C538.736 58.052 537.824 58.316 537.056 58.844C536.288 59.348 535.484 60.152 534.644 61.256V73.928H531.692V47.72H534.644V57.656C536.204 56.096 538.004 55.316 540.044 55.316C542.036 55.316 543.56 55.844 544.616 56.9C545.696 57.956 546.236 59.444 546.236 61.364V70.796ZM559.36 74.36C557.752 74.36 556.36 73.94 555.184 73.1C554.032 72.236 553.144 71.084 552.52 69.644C551.92 68.204 551.62 66.644 551.62 64.964C551.62 63.14 551.968 61.508 552.664 60.068C553.36 58.628 554.38 57.488 555.724 56.648C557.092 55.808 558.724 55.388 560.62 55.388C561.172 55.388 561.856 55.424 562.672 55.496C563.512 55.544 564.22 55.616 564.796 55.712H567.208V70.652C567.208 70.988 567.28 71.252 567.424 71.444C567.592 71.612 567.832 71.696 568.144 71.696C568.552 71.696 568.876 71.492 569.116 71.084L571.132 72.416C570.82 73.016 570.364 73.496 569.764 73.856C569.188 74.192 568.564 74.36 567.892 74.36C567.004 74.36 566.236 74.108 565.588 73.604C564.964 73.076 564.628 72.464 564.58 71.768V71.804C564.172 72.596 563.488 73.22 562.528 73.676C561.568 74.132 560.512 74.36 559.36 74.36ZM559.576 71.696C560.536 71.696 561.388 71.444 562.132 70.94C562.876 70.436 563.44 69.8 563.824 69.032C564.04 68.624 564.16 68.276 564.184 67.988C564.232 67.7 564.256 67.376 564.256 67.016V58.304L562.744 58.196C561.544 58.1 560.74 58.052 560.332 58.052C558.508 58.052 557.092 58.7 556.084 59.996C555.076 61.292 554.572 62.936 554.572 64.928C554.572 66.776 555.016 68.372 555.904 69.716C556.792 71.036 558.016 71.696 559.576 71.696ZM579.034 74.36C577.354 74.36 576.082 73.856 575.218 72.848C574.378 71.816 573.958 70.388 573.958 68.564V51.356H576.91V56H582.418V58.664H576.91V68.564C576.91 69.428 577.09 70.16 577.45 70.76C577.81 71.336 578.338 71.624 579.034 71.624C579.73 71.624 580.318 71.432 580.798 71.048C581.278 70.64 581.65 70.1 581.914 69.428L584.218 70.904C583.066 73.208 581.338 74.36 579.034 74.36ZM606.579 55.496C608.259 55.496 609.687 55.916 610.863 56.756C612.063 57.596 612.963 58.724 613.563 60.14C614.187 61.532 614.499 63.068 614.499 64.748C614.499 66.596 614.139 68.252 613.419 69.716C612.723 71.156 611.691 72.296 610.323 73.136C608.979 73.952 607.395 74.36 605.571 74.36C604.851 74.36 603.627 74.252 601.899 74.036V83.36H599.055V61.4C599.055 59.528 598.551 58.16 597.543 57.296L599.523 55.46C599.883 55.676 600.243 56 600.603 56.432C600.963 56.84 601.263 57.32 601.503 57.872C602.079 57.152 602.835 56.576 603.771 56.144C604.707 55.712 605.643 55.496 606.579 55.496ZM605.391 71.696C607.407 71.696 608.931 71.084 609.963 69.86C611.019 68.636 611.547 67.004 611.547 64.964C611.547 63.044 611.103 61.436 610.215 60.14C609.327 58.82 608.139 58.16 606.651 58.16C605.475 58.16 604.407 58.544 603.447 59.312C602.511 60.056 601.995 61.016 601.899 62.192V71.48C603.339 71.624 604.503 71.696 605.391 71.696ZM625.451 74.36C623.843 74.36 622.451 73.94 621.275 73.1C620.123 72.236 619.235 71.084 618.611 69.644C618.011 68.204 617.711 66.644 617.711 64.964C617.711 63.14 618.059 61.508 618.755 60.068C619.451 58.628 620.471 57.488 621.815 56.648C623.183 55.808 624.815 55.388 626.711 55.388C627.263 55.388 627.947 55.424 628.763 55.496C629.603 55.544 630.311 55.616 630.887 55.712H633.299V70.652C633.299 70.988 633.371 71.252 633.515 71.444C633.683 71.612 633.923 71.696 634.235 71.696C634.643 71.696 634.967 71.492 635.207 71.084L637.223 72.416C636.911 73.016 636.455 73.496 635.855 73.856C635.279 74.192 634.655 74.36 633.983 74.36C633.095 74.36 632.327 74.108 631.679 73.604C631.055 73.076 630.719 72.464 630.671 71.768V71.804C630.263 72.596 629.579 73.22 628.619 73.676C627.659 74.132 626.603 74.36 625.451 74.36ZM625.667 71.696C626.627 71.696 627.479 71.444 628.223 70.94C628.967 70.436 629.531 69.8 629.915 69.032C630.131 68.624 630.251 68.276 630.275 67.988C630.323 67.7 630.347 67.376 630.347 67.016V58.304L628.835 58.196C627.635 58.1 626.831 58.052 626.423 58.052C624.599 58.052 623.183 58.7 622.175 59.996C621.167 61.292 620.663 62.936 620.663 64.928C620.663 66.776 621.107 68.372 621.995 69.716C622.883 71.036 624.107 71.696 625.667 71.696ZM648.005 55.388C648.701 55.388 649.529 55.508 650.489 55.748L650.417 58.592C649.457 58.328 648.677 58.196 648.077 58.196C646.949 58.196 646.073 58.46 645.449 58.988C644.729 59.564 644.105 60.332 643.577 61.292V74.036H640.625V61.292C640.625 59.42 640.121 58.052 639.113 57.188L641.093 55.352C641.453 55.568 641.813 55.892 642.173 56.324C642.557 56.756 642.869 57.248 643.109 57.8C643.637 57.128 644.177 56.612 644.729 56.252C645.641 55.676 646.733 55.388 648.005 55.388ZM659.955 74.36C658.347 74.36 656.955 73.94 655.779 73.1C654.627 72.236 653.739 71.084 653.115 69.644C652.515 68.204 652.215 66.644 652.215 64.964C652.215 63.14 652.563 61.508 653.259 60.068C653.955 58.628 654.975 57.488 656.319 56.648C657.687 55.808 659.319 55.388 661.215 55.388C661.767 55.388 662.451 55.424 663.267 55.496C664.107 55.544 664.815 55.616 665.391 55.712H667.803V70.652C667.803 70.988 667.875 71.252 668.019 71.444C668.187 71.612 668.427 71.696 668.739 71.696C669.147 71.696 669.471 71.492 669.711 71.084L671.727 72.416C671.415 73.016 670.959 73.496 670.359 73.856C669.783 74.192 669.159 74.36 668.487 74.36C667.599 74.36 666.831 74.108 666.183 73.604C665.559 73.076 665.223 72.464 665.175 71.768V71.804C664.767 72.596 664.083 73.22 663.123 73.676C662.163 74.132 661.107 74.36 659.955 74.36ZM660.171 71.696C661.131 71.696 661.983 71.444 662.727 70.94C663.471 70.436 664.035 69.8 664.419 69.032C664.635 68.624 664.755 68.276 664.779 67.988C664.827 67.7 664.851 67.376 664.851 67.016V58.304L663.339 58.196C662.139 58.1 661.335 58.052 660.927 58.052C659.103 58.052 657.687 58.7 656.679 59.996C655.671 61.292 655.167 62.936 655.167 64.928C655.167 66.776 655.611 68.372 656.499 69.716C657.387 71.036 658.611 71.696 660.171 71.696ZM205.222 119.36C203.446 119.36 201.922 118.976 200.65 118.208C199.402 117.416 198.454 116.36 197.806 115.04C197.158 113.696 196.834 112.196 196.834 110.54C196.834 108.908 197.146 107.324 197.77 105.788C198.394 104.252 199.33 102.98 200.578 101.972C201.826 100.964 203.362 100.46 205.186 100.46C206.386 100.46 207.502 100.7 208.534 101.18C209.566 101.636 210.382 102.308 210.982 103.196C211.606 104.06 211.918 105.068 211.918 106.22C211.918 108.068 211.162 109.52 209.65 110.576C208.138 111.632 206.17 112.136 203.746 112.088L200.002 112.016C200.266 113.504 200.842 114.656 201.73 115.472C202.642 116.264 203.842 116.66 205.33 116.66C207.274 116.66 209.122 116.012 210.874 114.716L212.494 116.768C210.214 118.496 207.79 119.36 205.222 119.36ZM203.746 109.496C205.354 109.496 206.626 109.22 207.562 108.668C208.498 108.116 208.966 107.288 208.966 106.184C208.966 105.2 208.606 104.444 207.886 103.916C207.19 103.388 206.35 103.124 205.366 103.124C204.262 103.124 203.302 103.46 202.486 104.132C201.67 104.78 201.046 105.596 200.614 106.58C200.182 107.564 199.93 108.536 199.858 109.496H203.746ZM244.869 117.416C244.533 118.04 244.089 118.532 243.537 118.892C243.009 119.228 242.385 119.396 241.665 119.396C240.537 119.396 239.637 119.072 238.965 118.424C238.317 117.752 237.993 116.84 237.993 115.688V106.4C237.897 105.224 237.609 104.396 237.129 103.916C236.649 103.436 235.929 103.196 234.969 103.196C234.009 103.196 233.145 103.436 232.377 103.916C231.633 104.372 230.973 105.164 230.397 106.292V119.036H227.445V106.868C227.445 105.692 227.193 104.792 226.689 104.168C226.185 103.52 225.441 103.196 224.457 103.196C223.473 103.196 222.561 103.484 221.721 104.06C220.881 104.612 220.269 105.32 219.885 106.184V119.036H216.933V106.4C216.933 104.528 216.429 103.16 215.421 102.296L217.401 100.46C217.785 100.676 218.169 101.024 218.553 101.504C218.937 101.96 219.249 102.488 219.489 103.088C220.161 102.296 220.941 101.672 221.829 101.216C222.717 100.76 223.653 100.532 224.637 100.532C225.693 100.532 226.665 100.796 227.553 101.324C228.441 101.852 229.125 102.56 229.605 103.448C230.301 102.56 231.117 101.852 232.053 101.324C232.989 100.796 233.973 100.532 235.005 100.532C236.805 100.532 238.245 101.024 239.325 102.008C240.405 102.992 240.945 104.432 240.945 106.328V115.796C240.945 116.06 241.029 116.288 241.197 116.48C241.365 116.648 241.581 116.732 241.845 116.732C242.229 116.732 242.529 116.516 242.745 116.084L244.869 117.416ZM255.845 100.496C257.525 100.496 258.953 100.916 260.129 101.756C261.329 102.596 262.229 103.724 262.829 105.14C263.453 106.532 263.765 108.068 263.765 109.748C263.765 111.596 263.405 113.252 262.685 114.716C261.989 116.156 260.957 117.296 259.589 118.136C258.245 118.952 256.661 119.36 254.837 119.36C254.117 119.36 252.893 119.252 251.165 119.036V128.36H248.321V106.4C248.321 104.528 247.817 103.16 246.809 102.296L248.789 100.46C249.149 100.676 249.509 101 249.869 101.432C250.229 101.84 250.529 102.32 250.769 102.872C251.345 102.152 252.101 101.576 253.037 101.144C253.973 100.712 254.909 100.496 255.845 100.496ZM254.657 116.696C256.673 116.696 258.197 116.084 259.229 114.86C260.285 113.636 260.813 112.004 260.813 109.964C260.813 108.044 260.369 106.436 259.481 105.14C258.593 103.82 257.405 103.16 255.917 103.16C254.741 103.16 253.673 103.544 252.713 104.312C251.777 105.056 251.261 106.016 251.165 107.192V116.48C252.605 116.624 253.769 116.696 254.657 116.696ZM275.365 119.36C273.589 119.36 272.065 118.976 270.793 118.208C269.545 117.416 268.597 116.36 267.949 115.04C267.301 113.696 266.977 112.196 266.977 110.54C266.977 108.908 267.289 107.324 267.913 105.788C268.537 104.252 269.473 102.98 270.721 101.972C271.969 100.964 273.505 100.46 275.329 100.46C276.529 100.46 277.645 100.7 278.677 101.18C279.709 101.636 280.525 102.308 281.125 103.196C281.749 104.06 282.061 105.068 282.061 106.22C282.061 108.068 281.305 109.52 279.793 110.576C278.281 111.632 276.313 112.136 273.889 112.088L270.145 112.016C270.409 113.504 270.985 114.656 271.873 115.472C272.785 116.264 273.985 116.66 275.473 116.66C277.417 116.66 279.265 116.012 281.017 114.716L282.637 116.768C280.357 118.496 277.933 119.36 275.365 119.36ZM273.889 109.496C275.497 109.496 276.769 109.22 277.705 108.668C278.641 108.116 279.109 107.288 279.109 106.184C279.109 105.2 278.749 104.444 278.029 103.916C277.333 103.388 276.493 103.124 275.509 103.124C274.405 103.124 273.445 103.46 272.629 104.132C271.813 104.78 271.189 105.596 270.757 106.58C270.325 107.564 270.073 108.536 270.001 109.496H273.889ZM294.888 103.7H286.356V100.928H299.568V102.008L290.352 115.472L292.512 116.228C293.784 116.636 295.008 116.84 296.184 116.84C296.832 116.84 297.396 116.744 297.876 116.552C298.38 116.36 299.004 115.988 299.748 115.436L301.08 117.812C300.192 118.484 299.388 118.952 298.668 119.216C297.948 119.504 297.144 119.648 296.256 119.648C294.912 119.648 293.424 119.396 291.792 118.892L288.696 117.884L287.148 120.116L284.88 118.388L294.888 103.7ZM311.647 119.36C310.039 119.36 308.647 118.94 307.471 118.1C306.319 117.236 305.431 116.084 304.807 114.644C304.207 113.204 303.907 111.644 303.907 109.964C303.907 108.14 304.255 106.508 304.951 105.068C305.647 103.628 306.667 102.488 308.011 101.648C309.379 100.808 311.011 100.388 312.907 100.388C313.459 100.388 314.143 100.424 314.959 100.496C315.799 100.544 316.507 100.616 317.083 100.712H319.495V115.652C319.495 115.988 319.567 116.252 319.711 116.444C319.879 116.612 320.119 116.696 320.431 116.696C320.839 116.696 321.163 116.492 321.403 116.084L323.419 117.416C323.107 118.016 322.651 118.496 322.051 118.856C321.475 119.192 320.851 119.36 320.179 119.36C319.291 119.36 318.523 119.108 317.875 118.604C317.251 118.076 316.915 117.464 316.867 116.768V116.804C316.459 117.596 315.775 118.22 314.815 118.676C313.855 119.132 312.799 119.36 311.647 119.36ZM311.863 116.696C312.823 116.696 313.675 116.444 314.419 115.94C315.163 115.436 315.727 114.8 316.111 114.032C316.327 113.624 316.447 113.276 316.471 112.988C316.519 112.7 316.543 112.376 316.543 112.016V103.304L315.031 103.196C313.831 103.1 313.027 103.052 312.619 103.052C310.795 103.052 309.379 103.7 308.371 104.996C307.363 106.292 306.859 107.936 306.859 109.928C306.859 111.776 307.303 113.372 308.191 114.716C309.079 116.036 310.303 116.696 311.863 116.696ZM334.201 100.388C334.897 100.388 335.725 100.508 336.685 100.748L336.613 103.592C335.653 103.328 334.873 103.196 334.273 103.196C333.145 103.196 332.269 103.46 331.645 103.988C330.925 104.564 330.301 105.332 329.773 106.292V119.036H326.821V106.292C326.821 104.42 326.317 103.052 325.309 102.188L327.289 100.352C327.649 100.568 328.009 100.892 328.369 101.324C328.753 101.756 329.065 102.248 329.305 102.8C329.833 102.128 330.373 101.612 330.925 101.252C331.837 100.676 332.929 100.388 334.201 100.388ZM357.638 119.36C356.03 119.36 354.638 118.94 353.462 118.1C352.31 117.236 351.422 116.084 350.798 114.644C350.198 113.204 349.898 111.644 349.898 109.964C349.898 108.14 350.246 106.508 350.942 105.068C351.638 103.628 352.658 102.488 354.002 101.648C355.37 100.808 357.002 100.388 358.898 100.388C359.45 100.388 360.134 100.424 360.95 100.496C361.79 100.544 362.498 100.616 363.074 100.712H365.486V115.652C365.486 115.988 365.558 116.252 365.702 116.444C365.87 116.612 366.11 116.696 366.422 116.696C366.83 116.696 367.154 116.492 367.394 116.084L369.41 117.416C369.098 118.016 368.642 118.496 368.042 118.856C367.466 119.192 366.842 119.36 366.17 119.36C365.282 119.36 364.514 119.108 363.866 118.604C363.242 118.076 362.906 117.464 362.858 116.768V116.804C362.45 117.596 361.766 118.22 360.806 118.676C359.846 119.132 358.79 119.36 357.638 119.36ZM357.854 116.696C358.814 116.696 359.666 116.444 360.41 115.94C361.154 115.436 361.718 114.8 362.102 114.032C362.318 113.624 362.438 113.276 362.462 112.988C362.51 112.7 362.534 112.376 362.534 112.016V103.304L361.022 103.196C359.822 103.1 359.018 103.052 358.61 103.052C356.786 103.052 355.37 103.7 354.362 104.996C353.354 106.292 352.85 107.936 352.85 109.928C352.85 111.776 353.294 113.372 354.182 114.716C355.07 116.036 356.294 116.696 357.854 116.696ZM391.111 119.216C388.375 119.216 386.239 118.424 384.703 116.84C383.167 115.256 382.399 113.06 382.399 110.252C382.399 108.332 382.747 106.628 383.443 105.14C384.163 103.628 385.159 102.464 386.431 101.648C387.703 100.808 389.167 100.388 390.823 100.388C392.143 100.388 393.331 100.664 394.387 101.216C395.467 101.744 396.283 102.476 396.835 103.412C397.411 104.348 397.651 105.38 397.555 106.508H394.675C394.771 105.524 394.471 104.708 393.775 104.06C393.079 103.388 392.143 103.052 390.967 103.052C389.863 103.052 388.879 103.352 388.015 103.952C387.175 104.552 386.515 105.404 386.035 106.508C385.579 107.612 385.351 108.872 385.351 110.288C385.351 112.304 385.843 113.852 386.827 114.932C387.835 116.012 389.263 116.552 391.111 116.552C391.927 116.552 392.755 116.408 393.595 116.12C394.435 115.832 395.491 115.34 396.763 114.644L398.131 116.876C396.019 118.436 393.679 119.216 391.111 119.216ZM416.792 115.796C416.792 116.06 416.876 116.288 417.044 116.48C417.212 116.648 417.428 116.732 417.692 116.732C418.076 116.732 418.376 116.516 418.592 116.084L420.716 117.416C420.38 118.04 419.936 118.532 419.384 118.892C418.856 119.228 418.232 119.396 417.512 119.396C416.384 119.396 415.484 119.072 414.812 118.424C414.164 117.752 413.84 116.84 413.84 115.688V106.472C413.84 104.192 412.676 103.052 410.348 103.052C409.292 103.052 408.38 103.316 407.612 103.844C406.844 104.348 406.04 105.152 405.2 106.256V118.928H402.248V92.72H405.2V102.656C406.76 101.096 408.56 100.316 410.6 100.316C412.592 100.316 414.116 100.844 415.172 101.9C416.252 102.956 416.792 104.444 416.792 106.364V115.796ZM429.916 119.36C428.308 119.36 426.916 118.94 425.74 118.1C424.588 117.236 423.7 116.084 423.076 114.644C422.476 113.204 422.176 111.644 422.176 109.964C422.176 108.14 422.524 106.508 423.22 105.068C423.916 103.628 424.936 102.488 426.28 101.648C427.648 100.808 429.28 100.388 431.176 100.388C431.728 100.388 432.412 100.424 433.228 100.496C434.068 100.544 434.776 100.616 435.352 100.712H437.764V115.652C437.764 115.988 437.836 116.252 437.98 116.444C438.148 116.612 438.388 116.696 438.7 116.696C439.108 116.696 439.432 116.492 439.672 116.084L441.688 117.416C441.376 118.016 440.92 118.496 440.32 118.856C439.744 119.192 439.12 119.36 438.448 119.36C437.56 119.36 436.792 119.108 436.144 118.604C435.52 118.076 435.184 117.464 435.136 116.768V116.804C434.728 117.596 434.044 118.22 433.084 118.676C432.124 119.132 431.068 119.36 429.916 119.36ZM430.132 116.696C431.092 116.696 431.944 116.444 432.688 115.94C433.432 115.436 433.996 114.8 434.38 114.032C434.596 113.624 434.716 113.276 434.74 112.988C434.788 112.7 434.812 112.376 434.812 112.016V103.304L433.3 103.196C432.1 103.1 431.296 103.052 430.888 103.052C429.064 103.052 427.648 103.7 426.64 104.996C425.632 106.292 425.128 107.936 425.128 109.928C425.128 111.776 425.572 113.372 426.46 114.716C427.348 116.036 428.572 116.696 430.132 116.696ZM449.59 119.36C447.91 119.36 446.638 118.856 445.774 117.848C444.934 116.816 444.514 115.388 444.514 113.564V96.356H447.466V101H452.974V103.664H447.466V113.564C447.466 114.428 447.646 115.16 448.006 115.76C448.366 116.336 448.894 116.624 449.59 116.624C450.286 116.624 450.874 116.432 451.354 116.048C451.834 115.64 452.206 115.1 452.47 114.428L454.774 115.904C453.622 118.208 451.894 119.36 449.59 119.36ZM463.292 119.36C461.612 119.36 460.34 118.856 459.476 117.848C458.636 116.816 458.216 115.388 458.216 113.564V96.356H461.168V101H466.676V103.664H461.168V113.564C461.168 114.428 461.348 115.16 461.708 115.76C462.068 116.336 462.596 116.624 463.292 116.624C463.988 116.624 464.576 116.432 465.056 116.048C465.536 115.64 465.908 115.1 466.172 114.428L468.476 115.904C467.324 118.208 465.596 119.36 463.292 119.36ZM478.594 119.36C476.818 119.36 475.294 118.976 474.022 118.208C472.774 117.416 471.826 116.36 471.178 115.04C470.53 113.696 470.206 112.196 470.206 110.54C470.206 108.908 470.518 107.324 471.142 105.788C471.766 104.252 472.702 102.98 473.95 101.972C475.198 100.964 476.734 100.46 478.558 100.46C479.758 100.46 480.874 100.7 481.906 101.18C482.938 101.636 483.754 102.308 484.354 103.196C484.978 104.06 485.29 105.068 485.29 106.22C485.29 108.068 484.534 109.52 483.022 110.576C481.51 111.632 479.542 112.136 477.118 112.088L473.374 112.016C473.638 113.504 474.214 114.656 475.102 115.472C476.014 116.264 477.214 116.66 478.702 116.66C480.646 116.66 482.494 116.012 484.246 114.716L485.866 116.768C483.586 118.496 481.162 119.36 478.594 119.36ZM477.118 109.496C478.726 109.496 479.998 109.22 480.934 108.668C481.87 108.116 482.338 107.288 482.338 106.184C482.338 105.2 481.978 104.444 481.258 103.916C480.562 103.388 479.722 103.124 478.738 103.124C477.634 103.124 476.674 103.46 475.858 104.132C475.042 104.78 474.418 105.596 473.986 106.58C473.554 107.564 473.302 108.536 473.23 109.496H477.118ZM496.921 119.36C495.313 119.36 493.921 118.94 492.745 118.1C491.593 117.236 490.705 116.084 490.081 114.644C489.481 113.204 489.181 111.644 489.181 109.964C489.181 108.14 489.529 106.508 490.225 105.068C490.921 103.628 491.941 102.488 493.285 101.648C494.653 100.808 496.285 100.388 498.181 100.388C498.733 100.388 499.417 100.424 500.233 100.496C501.073 100.544 501.781 100.616 502.357 100.712H504.769V115.652C504.769 115.988 504.841 116.252 504.985 116.444C505.153 116.612 505.393 116.696 505.705 116.696C506.113 116.696 506.437 116.492 506.677 116.084L508.693 117.416C508.381 118.016 507.925 118.496 507.325 118.856C506.749 119.192 506.125 119.36 505.453 119.36C504.565 119.36 503.797 119.108 503.149 118.604C502.525 118.076 502.189 117.464 502.141 116.768V116.804C501.733 117.596 501.049 118.22 500.089 118.676C499.129 119.132 498.073 119.36 496.921 119.36ZM497.137 116.696C498.097 116.696 498.949 116.444 499.693 115.94C500.437 115.436 501.001 114.8 501.385 114.032C501.601 113.624 501.721 113.276 501.745 112.988C501.793 112.7 501.817 112.376 501.817 112.016V103.304L500.305 103.196C499.105 103.1 498.301 103.052 497.893 103.052C496.069 103.052 494.653 103.7 493.645 104.996C492.637 106.292 492.133 107.936 492.133 109.928C492.133 111.776 492.577 113.372 493.465 114.716C494.353 116.036 495.577 116.696 497.137 116.696ZM519.475 100.388C520.171 100.388 520.999 100.508 521.959 100.748L521.887 103.592C520.927 103.328 520.147 103.196 519.547 103.196C518.419 103.196 517.543 103.46 516.919 103.988C516.199 104.564 515.575 105.332 515.047 106.292V119.036H512.095V106.292C512.095 104.42 511.591 103.052 510.583 102.188L512.563 100.352C512.923 100.568 513.283 100.892 513.643 101.324C514.027 101.756 514.339 102.248 514.579 102.8C515.107 102.128 515.647 101.612 516.199 101.252C517.111 100.676 518.203 100.388 519.475 100.388Z" fill="#5E60CE"/>
</g>
<defs>
<clipPath id="clip0">
<rect width="717" height="619" fill="white"/>
</clipPath>
</defs>
</svg>
