<svg width="717" height="463" viewBox="0 0 717 463" fill="none" xmlns="http://www.w3.org/2000/svg">
<path d="M374.5 180C374.5 248.184 319.007 303.5 250.5 303.5C181.993 303.5 126.5 248.184 126.5 180C126.5 111.816 181.993 56.5 250.5 56.5C319.007 56.5 374.5 111.816 374.5 180Z" fill="white" stroke="#5E60CE" stroke-width="13"/>
<path d="M261.24 134.328H228.984V118.488H217.176V134.328H185.064V143.832H261.24V134.328ZM203.496 174.936C203.496 166.008 211.416 160.248 223.08 160.248C234.744 160.248 242.808 166.008 242.808 174.936C242.808 184.008 234.744 189.768 223.08 189.768C211.416 189.768 203.496 184.008 203.496 174.936ZM254.04 174.936C254.04 160.536 241.368 151.032 223.08 151.032C204.792 151.032 192.264 160.536 192.264 174.936C192.264 189.48 204.792 198.984 223.08 198.984C241.368 198.984 254.04 189.48 254.04 174.936ZM216.312 207.768H204.504V244.776H290.616V235.128H216.312V207.768ZM284.856 161.112V118.488H273.048V215.4H284.856V171.048H303.864V161.112H284.856Z" fill="#5F5858"/>
<path d="M139.906 307.233L151.147 262.797L186.101 292.447L139.906 307.233Z" fill="#5E60CE" stroke="#5E60CE" stroke-width="3.5"/>
<path d="M574.5 278C574.5 346.184 519.007 401.5 450.5 401.5C381.993 401.5 326.5 346.184 326.5 278C326.5 209.816 381.993 154.5 450.5 154.5C519.007 154.5 574.5 209.816 574.5 278Z" fill="white" stroke="white" stroke-width="13"/>
<path d="M580.5 280C580.5 348.184 525.007 403.5 456.5 403.5C387.993 403.5 332.5 348.184 332.5 280C332.5 211.816 387.993 156.5 456.5 156.5C525.007 156.5 580.5 211.816 580.5 280Z" fill="white" stroke="#5E60CE" stroke-width="13"/>
<path d="M489.008 344.04V321H411.392V344.04H402.752V312.936L410.672 312.648C417.584 300.456 422.864 289.944 426.512 281.112C430.16 272.28 432.848 263.592 434.576 255.048C436.304 246.504 437.84 235.656 439.184 222.504H484.976L484.832 312.936H497.648V344.04H489.008ZM446.816 230.568C444.992 246.888 442.16 260.856 438.32 272.472C434.48 284.088 428.24 297.576 419.6 312.936H476.336V230.568H446.816Z" fill="#5F5858"/>
<path d="M532.444 384.614L563.998 351.369L579.964 394.334L532.444 384.614Z" fill="#5E60CE" stroke="#5E60CE" stroke-width="3.5"/>
</svg>
