<svg width="214" height="216" viewBox="0 0 214 216" fill="none" xmlns="http://www.w3.org/2000/svg">
<circle cx="107.5" cy="106.5" r="101.5" fill="white"/>
<path d="M146.508 200.789C150.562 198.735 161.933 197.265 180.885 178.102C199.837 158.939 209.134 131.869 208.987 104.916C208.841 77.9618 197.995 52.1704 178.835 33.2149C159.738 17.7798 147.523 13.781 145.491 13.792L145.988 105.258L146.508 200.789Z" fill="#EF4135"/>
<path d="M68.4917 13.2107C64.4383 15.2654 53.0668 16.7353 34.1147 35.8981C15.1625 55.0609 5.86583 82.1308 6.01251 109.084C6.15919 136.038 17.0053 161.83 36.1649 180.785C55.2616 196.22 67.4771 200.219 69.5093 200.208L69.0116 108.742L68.4917 13.2107Z" fill="#0055A4"/>
</svg>
