<svg width="89" height="90" viewBox="0 0 89 90" fill="none" xmlns="http://www.w3.org/2000/svg">
<circle cx="44.5" cy="44.5" r="40.5" fill="#5E60CE"/>
<path d="M43.091 26.1103C43.6757 24.2389 46.3243 24.2389 46.909 26.1103L50.1743 36.562C50.4352 37.397 51.2085 37.9656 52.0833 37.9656H62.812C64.7304 37.9656 65.5483 40.4047 64.0177 41.5613L55.2048 48.2203C54.5312 48.7293 54.2498 49.6065 54.5015 50.4124L57.8356 61.0842C58.4156 62.9407 56.2727 64.4488 54.7209 63.2763L46.2057 56.8422C45.4923 56.3031 44.5077 56.3031 43.7943 56.8422L35.2791 63.2763C33.7273 64.4488 31.5844 62.9407 32.1644 61.0842L35.4985 50.4124C35.7502 49.6065 35.4688 48.7293 34.7952 48.2203L25.9823 41.5613C24.4517 40.4047 25.2696 37.9656 27.188 37.9656H37.9167C38.7915 37.9656 39.5648 37.397 39.8257 36.562L43.091 26.1103Z" fill="white"/>
</svg>
