<svg width="717" height="463" viewBox="0 0 717 463" fill="none" xmlns="http://www.w3.org/2000/svg">
<path d="M174 139.1C172.667 139.1 171.667 139.2 171 139.4C170.4 139.533 169.867 139.833 169.4 140.3C169 140.7 168.633 141.267 168.3 142C168.033 142.667 167.9 143.3 167.9 143.9L162.4 143.8C162.533 140.667 163.533 138.167 165.4 136.3C166.4 135.367 167.567 134.7 168.9 134.3C170.3 133.833 172.033 133.567 174.1 133.5H196.1C199.9 133.5 203.333 134.267 206.4 135.8C209.467 137.267 211.867 139.367 213.6 142.1C215.4 144.833 216.3 148 216.3 151.6C216.3 154.933 215.6 157.833 214.2 160.3C212.867 162.7 211.033 164.3 208.7 165.1C208.633 165.1 208.433 165.2 208.1 165.4C207.833 165.533 207.033 165.8 205.7 166.2C206.1 166.333 206.567 166.467 207.1 166.6C207.7 166.733 208.3 166.933 208.9 167.2C212.233 168.733 214.833 171.067 216.7 174.2C218.567 177.267 219.5 180.833 219.5 184.9C219.5 191.433 217.067 196.267 212.2 199.4C207.4 202.467 200.567 204 191.7 204C186.1 204 181.967 203.833 179.3 203.5L174 202.9V139.1ZM193.4 198.5C206.8 198.5 213.5 193.9 213.5 184.7C213.5 179.967 211.9 176.267 208.7 173.6C205.5 170.867 201.5 169.5 196.7 169.5H187.2V164H196C200.333 164 203.8 162.9 206.4 160.7C209 158.5 210.3 155.433 210.3 151.5C210.3 147.633 209.133 144.667 206.8 142.6C204.533 140.467 201.433 139.3 197.5 139.1H180V198L189.8 198.4L193.4 198.5ZM251.184 204C246.584 204 242.651 202.833 239.384 200.5C236.118 198.167 233.651 195.067 231.984 191.2C230.318 187.333 229.484 183.067 229.484 178.4C229.484 173.267 230.484 168.733 232.484 164.8C234.484 160.8 237.351 157.7 241.084 155.5C244.818 153.3 249.184 152.2 254.184 152.2C255.718 152.2 257.651 152.3 259.984 152.5C262.318 152.633 264.384 152.833 266.184 153.1H272.184V194.4C272.184 195.733 272.484 196.767 273.084 197.5C273.751 198.167 274.551 198.5 275.484 198.5C276.684 198.5 277.651 197.933 278.384 196.8L282.684 200.2C281.684 201.6 280.551 202.567 279.284 203.1C278.084 203.7 276.684 204 275.084 204C272.751 204 270.684 203.2 268.884 201.6C267.151 200 266.284 198.067 266.284 195.8C264.684 198.467 262.584 200.5 259.984 201.9C257.384 203.3 254.451 204 251.184 204ZM251.284 198.6C254.284 198.6 256.984 197.867 259.384 196.4C261.784 194.933 263.584 193 264.784 190.6C265.718 188.667 266.184 186.533 266.184 184.2V158L259.584 157.8L253.784 157.6C247.718 157.6 243.151 159.5 240.084 163.3C237.018 167.1 235.484 172.067 235.484 178.2C235.484 183.867 236.818 188.7 239.484 192.7C242.218 196.633 246.151 198.6 251.284 198.6ZM309.923 204C306.59 204 303.357 203.8 300.223 203.4C296.957 203 294.49 202.533 292.823 202V130.4H298.823V159.7C300.49 157.167 302.657 155.3 305.323 154.1C308.057 152.833 310.957 152.2 314.023 152.2C318.223 152.2 321.923 153.3 325.123 155.5C328.39 157.7 330.89 160.767 332.623 164.7C334.423 168.633 335.323 173.1 335.323 178.1C335.323 185.633 333.223 191.833 329.023 196.7C324.89 201.567 318.523 204 309.923 204ZM309.823 198.6C316.823 198.6 321.823 196.733 324.823 193C327.823 189.2 329.323 184.267 329.323 178.2C329.323 173.867 328.623 170.167 327.223 167.1C325.89 163.967 324.023 161.6 321.623 160C319.29 158.4 316.657 157.6 313.723 157.6C310.323 157.6 307.157 158.633 304.223 160.7C300.957 162.967 299.157 166.133 298.823 170.2V197.7L304.123 198.3C305.857 198.5 307.757 198.6 309.823 198.6ZM354.159 194.6C354.159 195.533 354.459 196.333 355.059 197C355.725 197.6 356.492 197.9 357.359 197.9C358.692 197.9 359.659 197.333 360.259 196.2L364.659 199.5C364.125 200.633 363.192 201.6 361.859 202.4C360.525 203.133 359.025 203.5 357.359 203.5C354.692 203.5 352.492 202.667 350.759 201C349.025 199.333 348.159 197.167 348.159 194.5V153H354.159V194.6ZM350.859 146.5C349.725 146.5 348.725 146.1 347.859 145.3C347.059 144.433 346.659 143.433 346.659 142.3C346.659 141.1 347.059 140.1 347.859 139.3C348.725 138.433 349.725 138 350.859 138C352.059 138 353.059 138.433 353.859 139.3C354.725 140.1 355.159 141.1 355.159 142.3C355.159 143.433 354.725 144.433 353.859 145.3C353.059 146.1 352.059 146.5 350.859 146.5ZM380.402 194.6C380.402 195.533 380.702 196.333 381.302 197C381.968 197.6 382.735 197.9 383.602 197.9C384.935 197.9 385.902 197.333 386.502 196.2L390.902 199.5C390.368 200.633 389.435 201.6 388.102 202.4C386.768 203.133 385.268 203.5 383.602 203.5C380.935 203.5 378.735 202.667 377.002 201C375.268 199.333 374.402 197.167 374.402 194.5V130.4H380.402V194.6ZM418.691 204C413.691 204 409.458 202.967 405.991 200.9C402.525 198.833 399.891 196 398.091 192.4C396.358 188.733 395.491 184.6 395.491 180C395.491 175.467 396.325 171.067 397.991 166.8C399.725 162.533 402.291 159.033 405.691 156.3C409.158 153.567 413.358 152.2 418.291 152.2C421.558 152.2 424.591 152.833 427.391 154.1C430.191 155.367 432.391 157.167 433.991 159.5C435.658 161.833 436.491 164.533 436.491 167.6C436.491 172.533 434.391 176.367 430.191 179.1C425.991 181.767 420.191 183.067 412.791 183L401.791 182.9C402.391 188.033 404.091 191.933 406.891 194.6C409.758 197.267 413.691 198.6 418.691 198.6C421.691 198.6 424.458 198.2 426.991 197.4C429.591 196.533 432.091 195.233 434.491 193.5L437.491 197.5C434.958 199.5 432.058 201.1 428.791 202.3C425.591 203.433 422.225 204 418.691 204ZM414.091 177.8C425.025 177.8 430.491 174.367 430.491 167.5C430.491 164.167 429.325 161.7 426.991 160.1C424.725 158.433 421.925 157.6 418.591 157.6C414.858 157.6 411.691 158.667 409.091 160.8C406.558 162.933 404.658 165.567 403.391 168.7C402.125 171.833 401.491 174.867 401.491 177.8H414.091ZM446.544 229C444.677 229 443.01 228.567 441.544 227.7C440.077 226.9 438.877 225.8 437.944 224.4L442.544 221.1C443.01 221.767 443.51 222.3 444.044 222.7C444.644 223.167 445.41 223.4 446.344 223.4C448.81 223.4 450.044 221.767 450.044 218.5V152.9H456.044V218.5C456.044 221.833 455.177 224.4 453.444 226.2C451.71 228.067 449.41 229 446.544 229ZM452.744 146.5C451.61 146.5 450.61 146.1 449.744 145.3C448.944 144.433 448.544 143.433 448.544 142.3C448.544 141.1 448.944 140.1 449.744 139.3C450.61 138.433 451.61 138 452.744 138C453.944 138 454.944 138.433 455.744 139.3C456.61 140.1 457.044 141.1 457.044 142.3C457.044 143.433 456.61 144.433 455.744 145.3C454.944 146.1 453.944 146.5 452.744 146.5ZM493.966 204C489.233 204 485 202.9 481.266 200.7C477.6 198.5 474.733 195.433 472.666 191.5C470.6 187.567 469.566 183.1 469.566 178.1C469.566 173.1 470.6 168.633 472.666 164.7C474.8 160.7 477.7 157.6 481.366 155.4C485.1 153.133 489.333 152 494.066 152C498.733 152 502.9 153.133 506.566 155.4C510.3 157.6 513.2 160.667 515.266 164.6C517.4 168.533 518.466 173 518.466 178C518.466 183 517.4 187.467 515.266 191.4C513.2 195.333 510.3 198.433 506.566 200.7C502.9 202.9 498.7 204 493.966 204ZM494.066 198.6C499.6 198.6 504.033 196.7 507.366 192.9C510.766 189.1 512.466 184.133 512.466 178C512.466 173.933 511.7 170.367 510.166 167.3C508.633 164.167 506.466 161.733 503.666 160C500.866 158.267 497.666 157.4 494.066 157.4C490.4 157.4 487.166 158.267 484.366 160C481.566 161.733 479.4 164.2 477.866 167.4C476.333 170.533 475.566 174.1 475.566 178.1C475.566 182.1 476.333 185.667 477.866 188.8C479.4 191.867 481.566 194.267 484.366 196C487.166 197.733 490.4 198.6 494.066 198.6Z" fill="#5E60CE"/>
<rect x="435" y="214" width="25" height="18" fill="white"/>
<path d="M325.5 237C325.5 313 453.013 315 453.013 214" stroke="#5E60CE" stroke-width="6"/>
<path d="M325.5 211L328.306 219.637H337.388L330.041 224.975L332.847 233.613L325.5 228.275L318.153 233.613L320.959 224.975L313.612 219.637H322.694L325.5 211Z" fill="#1DDB49"/>
<path d="M392.744 335.408C392.328 335.408 392.04 335.48 391.88 335.624C391.704 335.768 391.6 336.032 391.568 336.416L389.768 336.392C389.768 335.432 390.064 334.696 390.656 334.184C391.136 333.752 391.84 333.536 392.768 333.536H403.496V335.36H394.712V340.376H400.712V342.2H394.712V348.2H403.496V350.024H392.744V335.408ZM408.557 347.864C408.557 348.04 408.613 348.192 408.725 348.32C408.837 348.432 408.981 348.488 409.157 348.488C409.413 348.488 409.613 348.344 409.757 348.056L411.173 348.944C410.949 349.36 410.653 349.688 410.285 349.928C409.933 350.152 409.517 350.264 409.037 350.264C408.285 350.264 407.685 350.048 407.237 349.616C406.805 349.168 406.589 348.56 406.589 347.792V332.552H408.557V347.864ZM425.656 350.144C423.832 350.144 422.408 349.616 421.384 348.56C420.36 347.504 419.848 346.04 419.848 344.168C419.848 342.888 420.08 341.752 420.544 340.76C421.024 339.752 421.688 338.976 422.536 338.432C423.384 337.872 424.36 337.592 425.464 337.592C426.344 337.592 427.136 337.776 427.84 338.144C428.56 338.496 429.104 338.984 429.472 339.608C429.856 340.232 430.016 340.92 429.952 341.672H428.032C428.096 341.016 427.896 340.472 427.432 340.04C426.968 339.592 426.344 339.368 425.56 339.368C424.824 339.368 424.168 339.568 423.592 339.968C423.032 340.368 422.592 340.936 422.272 341.672C421.968 342.408 421.816 343.248 421.816 344.192C421.816 345.536 422.144 346.568 422.8 347.288C423.472 348.008 424.424 348.368 425.656 348.368C426.2 348.368 426.752 348.272 427.312 348.08C427.872 347.888 428.576 347.56 429.424 347.096L430.336 348.584C428.928 349.624 427.368 350.144 425.656 350.144ZM442.776 347.864C442.776 348.04 442.832 348.192 442.944 348.32C443.056 348.432 443.2 348.488 443.376 348.488C443.632 348.488 443.832 348.344 443.976 348.056L445.392 348.944C445.168 349.36 444.872 349.688 444.504 349.928C444.152 350.152 443.736 350.264 443.256 350.264C442.504 350.264 441.904 350.048 441.456 349.616C441.024 349.168 440.808 348.56 440.808 347.792V341.648C440.808 340.128 440.032 339.368 438.48 339.368C437.776 339.368 437.168 339.544 436.656 339.896C436.144 340.232 435.608 340.768 435.048 341.504V349.952H433.08V332.48H435.048V339.104C436.088 338.064 437.288 337.544 438.648 337.544C439.976 337.544 440.992 337.896 441.696 338.6C442.416 339.304 442.776 340.296 442.776 341.576V347.864ZM451.526 350.24C450.454 350.24 449.526 349.96 448.742 349.4C447.974 348.824 447.382 348.056 446.966 347.096C446.566 346.136 446.366 345.096 446.366 343.976C446.366 342.76 446.598 341.672 447.062 340.712C447.526 339.752 448.206 338.992 449.102 338.432C450.014 337.872 451.102 337.592 452.366 337.592C452.734 337.592 453.19 337.616 453.734 337.664C454.294 337.696 454.766 337.744 455.15 337.808H456.758V347.768C456.758 347.992 456.806 348.168 456.902 348.296C457.014 348.408 457.174 348.464 457.382 348.464C457.654 348.464 457.87 348.328 458.03 348.056L459.374 348.944C459.166 349.344 458.862 349.664 458.462 349.904C458.078 350.128 457.662 350.24 457.214 350.24C456.622 350.24 456.11 350.072 455.678 349.736C455.262 349.384 455.038 348.976 455.006 348.512V348.536C454.734 349.064 454.278 349.48 453.638 349.784C452.998 350.088 452.294 350.24 451.526 350.24ZM451.67 348.464C452.31 348.464 452.878 348.296 453.374 347.96C453.87 347.624 454.246 347.2 454.502 346.688C454.646 346.416 454.726 346.184 454.742 345.992C454.774 345.8 454.79 345.584 454.79 345.344V339.536L453.782 339.464C452.982 339.4 452.446 339.368 452.174 339.368C450.958 339.368 450.014 339.8 449.342 340.664C448.67 341.528 448.334 342.624 448.334 343.952C448.334 345.184 448.63 346.248 449.222 347.144C449.814 348.024 450.63 348.464 451.67 348.464ZM464.642 350.24C463.522 350.24 462.674 349.904 462.098 349.232C461.538 348.544 461.258 347.592 461.258 346.376V334.904H463.226V338H466.898V339.776H463.226V346.376C463.226 346.952 463.346 347.44 463.586 347.84C463.826 348.224 464.178 348.416 464.642 348.416C465.106 348.416 465.498 348.288 465.818 348.032C466.138 347.76 466.386 347.4 466.562 346.952L468.098 347.936C467.33 349.472 466.178 350.24 464.642 350.24ZM496.517 348.944C496.293 349.36 495.997 349.688 495.629 349.928C495.277 350.152 494.861 350.264 494.381 350.264C493.629 350.264 493.029 350.048 492.581 349.616C492.149 349.168 491.933 348.56 491.933 347.792V341.6C491.869 340.816 491.677 340.264 491.357 339.944C491.037 339.624 490.557 339.464 489.917 339.464C489.277 339.464 488.701 339.624 488.189 339.944C487.693 340.248 487.253 340.776 486.869 341.528V350.024H484.901V341.912C484.901 341.128 484.733 340.528 484.397 340.112C484.061 339.68 483.565 339.464 482.909 339.464C482.253 339.464 481.645 339.656 481.085 340.04C480.525 340.408 480.117 340.88 479.861 341.456V350.024H477.893V341.6C477.893 340.352 477.557 339.44 476.885 338.864L478.205 337.64C478.461 337.784 478.717 338.016 478.973 338.336C479.229 338.64 479.437 338.992 479.597 339.392C480.045 338.864 480.565 338.448 481.157 338.144C481.749 337.84 482.373 337.688 483.029 337.688C483.733 337.688 484.381 337.864 484.973 338.216C485.565 338.568 486.021 339.04 486.341 339.632C486.805 339.04 487.349 338.568 487.973 338.216C488.597 337.864 489.253 337.688 489.941 337.688C491.141 337.688 492.101 338.016 492.821 338.672C493.541 339.328 493.901 340.288 493.901 341.552V347.864C493.901 348.04 493.957 348.192 494.069 348.32C494.181 348.432 494.325 348.488 494.501 348.488C494.757 348.488 494.957 348.344 495.101 348.056L496.517 348.944ZM506.547 348.536C506.211 349.064 505.683 349.472 504.963 349.76C504.243 350.048 503.499 350.192 502.731 350.192C501.515 350.192 500.531 349.888 499.779 349.28C499.027 348.656 498.635 347.736 498.603 346.52V341.624C498.603 340.376 498.267 339.464 497.595 338.888L498.915 337.664C499.315 337.888 499.683 338.288 500.019 338.864C500.371 339.44 500.555 340.056 500.571 340.712V345.896C500.571 346.712 500.747 347.336 501.099 347.768C501.451 348.2 502.035 348.416 502.851 348.416C503.571 348.416 504.179 348.248 504.675 347.912C505.171 347.576 505.715 347.016 506.307 346.232L506.331 338H508.299V347.768C508.299 347.992 508.347 348.168 508.443 348.296C508.555 348.408 508.715 348.464 508.923 348.464C509.195 348.464 509.411 348.328 509.571 348.056L510.915 348.944C510.707 349.344 510.403 349.664 510.003 349.904C509.619 350.128 509.203 350.24 508.755 350.24C508.163 350.24 507.651 350.072 507.219 349.736C506.803 349.384 506.579 348.976 506.547 348.512V348.536ZM515.093 347.864C515.093 348.04 515.149 348.192 515.261 348.32C515.373 348.432 515.517 348.488 515.693 348.488C515.949 348.488 516.149 348.344 516.293 348.056L517.709 348.944C517.485 349.36 517.189 349.688 516.821 349.928C516.469 350.152 516.053 350.264 515.573 350.264C514.821 350.264 514.221 350.048 513.773 349.616C513.341 349.168 513.125 348.56 513.125 347.792V332.552H515.093V347.864ZM522.993 350.24C521.873 350.24 521.025 349.904 520.449 349.232C519.889 348.544 519.609 347.592 519.609 346.376V334.904H521.577V338H525.249V339.776H521.577V346.376C521.577 346.952 521.697 347.44 521.937 347.84C522.177 348.224 522.529 348.416 522.993 348.416C523.457 348.416 523.849 348.288 524.169 348.032C524.489 347.76 524.737 347.4 524.913 346.952L526.449 347.936C525.681 349.472 524.529 350.24 522.993 350.24ZM530.807 347.864C530.807 348.04 530.863 348.192 530.975 348.32C531.087 348.432 531.231 348.488 531.407 348.488C531.663 348.488 531.863 348.344 532.007 348.056L533.423 348.944C533.199 349.36 532.903 349.688 532.535 349.928C532.183 350.152 531.767 350.264 531.287 350.264C530.535 350.264 529.935 350.048 529.487 349.616C529.055 349.168 528.839 348.56 528.839 347.792V337.976H530.807V347.864ZM529.799 335.648C529.479 335.648 529.191 335.52 528.935 335.264C528.679 335.008 528.551 334.72 528.551 334.4C528.551 334.064 528.679 333.768 528.935 333.512C529.191 333.256 529.479 333.128 529.799 333.128C530.135 333.128 530.431 333.256 530.687 333.512C530.959 333.768 531.095 334.064 531.095 334.4C531.095 334.72 530.959 335.008 530.687 335.264C530.431 335.52 530.135 335.648 529.799 335.648ZM537.621 347.864C537.621 348.04 537.677 348.192 537.789 348.32C537.901 348.432 538.045 348.488 538.221 348.488C538.477 348.488 538.677 348.344 538.821 348.056L540.237 348.944C540.013 349.36 539.717 349.688 539.349 349.928C538.997 350.152 538.581 350.264 538.101 350.264C537.349 350.264 536.749 350.048 536.301 349.616C535.869 349.168 535.653 348.56 535.653 347.792V332.552H537.621V347.864ZM544.435 347.864C544.435 348.04 544.491 348.192 544.603 348.32C544.715 348.432 544.859 348.488 545.035 348.488C545.291 348.488 545.491 348.344 545.635 348.056L547.051 348.944C546.827 349.36 546.531 349.688 546.163 349.928C545.811 350.152 545.395 350.264 544.915 350.264C544.163 350.264 543.563 350.048 543.115 349.616C542.683 349.168 542.467 348.56 542.467 347.792V337.976H544.435V347.864ZM543.427 335.648C543.107 335.648 542.819 335.52 542.563 335.264C542.307 335.008 542.179 334.72 542.179 334.4C542.179 334.064 542.307 333.768 542.563 333.512C542.819 333.256 543.107 333.128 543.427 333.128C543.763 333.128 544.059 333.256 544.315 333.512C544.587 333.768 544.723 334.064 544.723 334.4C544.723 334.72 544.587 335.008 544.315 335.264C544.059 335.52 543.763 335.648 543.427 335.648ZM561.574 348.944C561.35 349.36 561.054 349.688 560.686 349.928C560.334 350.152 559.918 350.264 559.438 350.264C558.686 350.264 558.086 350.048 557.638 349.616C557.206 349.168 556.99 348.56 556.99 347.792V341.912C556.99 341.112 556.822 340.504 556.486 340.088C556.15 339.656 555.574 339.44 554.758 339.44C554.022 339.44 553.39 339.616 552.862 339.968C552.35 340.32 551.822 340.856 551.278 341.576V350.024H549.31V341.6C549.31 340.352 548.974 339.44 548.302 338.864L549.622 337.64C549.894 337.784 550.158 338.024 550.414 338.36C550.67 338.68 550.878 339.048 551.038 339.464C552.03 338.264 553.31 337.664 554.878 337.664C556.062 337.664 557.022 337.984 557.758 338.624C558.494 339.248 558.894 340.136 558.958 341.288V347.864C558.958 348.04 559.014 348.192 559.126 348.32C559.238 348.432 559.382 348.488 559.558 348.488C559.814 348.488 560.014 348.344 560.158 348.056L561.574 348.944ZM569.121 356.528C568.433 356.528 567.801 356.36 567.225 356.024C566.649 355.704 566.185 355.256 565.833 354.68C565.497 354.12 565.329 353.504 565.329 352.832C565.329 351.712 565.761 350.768 566.625 350C565.313 349.616 564.297 348.912 563.577 347.888C562.873 346.864 562.521 345.608 562.521 344.12C562.521 342.856 562.777 341.728 563.289 340.736C563.801 339.744 564.505 338.976 565.401 338.432C566.313 337.872 567.353 337.592 568.521 337.592L570.009 337.64L571.377 337.808H573.009V352.304C573.009 353.568 572.649 354.584 571.929 355.352C571.209 356.136 570.273 356.528 569.121 356.528ZM567.729 348.392C568.449 348.392 569.145 348.104 569.817 347.528C570.185 347.224 570.481 346.888 570.705 346.52C570.929 346.152 571.041 345.824 571.041 345.536V339.392L569.169 339.368H568.425C567.689 339.368 567.017 339.568 566.409 339.968C565.817 340.368 565.345 340.92 564.993 341.624C564.657 342.312 564.489 343.088 564.489 343.952C564.489 344.752 564.633 345.496 564.921 346.184C565.225 346.856 565.625 347.392 566.121 347.792C566.617 348.192 567.153 348.392 567.729 348.392ZM569.217 354.752C569.777 354.752 570.217 354.536 570.537 354.104C570.873 353.672 571.041 353.096 571.041 352.376V348.44C571.009 348.488 570.929 348.6 570.801 348.776C570.673 348.936 570.537 349.088 570.393 349.232C570.025 349.584 569.361 350.048 568.401 350.624C567.633 351.088 567.249 351.824 567.249 352.832C567.249 353.344 567.441 353.792 567.825 354.176C568.225 354.56 568.689 354.752 569.217 354.752ZM584.871 348.536C584.535 349.064 584.007 349.472 583.287 349.76C582.567 350.048 581.823 350.192 581.055 350.192C579.839 350.192 578.855 349.888 578.103 349.28C577.351 348.656 576.959 347.736 576.927 346.52V341.624C576.927 340.376 576.591 339.464 575.919 338.888L577.239 337.664C577.639 337.888 578.007 338.288 578.343 338.864C578.695 339.44 578.879 340.056 578.895 340.712V345.896C578.895 346.712 579.071 347.336 579.423 347.768C579.775 348.2 580.359 348.416 581.175 348.416C581.895 348.416 582.503 348.248 582.999 347.912C583.495 347.576 584.039 347.016 584.631 346.232L584.655 338H586.623V347.768C586.623 347.992 586.671 348.168 586.767 348.296C586.879 348.408 587.039 348.464 587.247 348.464C587.519 348.464 587.735 348.328 587.895 348.056L589.239 348.944C589.031 349.344 588.727 349.664 588.327 349.904C587.943 350.128 587.527 350.24 587.079 350.24C586.487 350.24 585.975 350.072 585.543 349.736C585.127 349.384 584.903 348.976 584.871 348.512V348.536ZM578.823 336.464C578.503 336.464 578.215 336.336 577.959 336.08C577.703 335.824 577.575 335.536 577.575 335.216C577.575 334.88 577.703 334.584 577.959 334.328C578.215 334.072 578.503 333.944 578.823 333.944C579.159 333.944 579.455 334.072 579.711 334.328C579.983 334.584 580.119 334.88 580.119 335.216C580.119 335.536 579.983 335.824 579.711 336.08C579.455 336.336 579.159 336.464 578.823 336.464ZM583.983 336.464C583.663 336.464 583.375 336.336 583.119 336.08C582.863 335.824 582.735 335.536 582.735 335.216C582.735 334.88 582.863 334.584 583.119 334.328C583.375 334.072 583.663 333.944 583.983 333.944C584.319 333.944 584.615 334.072 584.871 334.328C585.143 334.584 585.279 334.88 585.279 335.216C585.279 335.536 585.143 335.824 584.871 336.08C584.615 336.336 584.319 336.464 583.983 336.464ZM595.804 350.24C594.62 350.24 593.604 349.984 592.756 349.472C591.924 348.944 591.292 348.24 590.86 347.36C590.428 346.464 590.212 345.464 590.212 344.36C590.212 343.272 590.42 342.216 590.836 341.192C591.252 340.168 591.876 339.32 592.708 338.648C593.54 337.976 594.564 337.64 595.78 337.64C596.58 337.64 597.324 337.8 598.012 338.12C598.7 338.424 599.244 338.872 599.644 339.464C600.06 340.04 600.268 340.712 600.268 341.48C600.268 342.712 599.764 343.68 598.756 344.384C597.748 345.088 596.436 345.424 594.82 345.392L592.324 345.344C592.5 346.336 592.884 347.104 593.476 347.648C594.084 348.176 594.884 348.44 595.876 348.44C597.172 348.44 598.404 348.008 599.572 347.144L600.652 348.512C599.132 349.664 597.516 350.24 595.804 350.24ZM594.82 343.664C595.892 343.664 596.74 343.48 597.364 343.112C597.988 342.744 598.3 342.192 598.3 341.456C598.3 340.8 598.06 340.296 597.58 339.944C597.116 339.592 596.556 339.416 595.9 339.416C595.164 339.416 594.524 339.64 593.98 340.088C593.436 340.52 593.02 341.064 592.732 341.72C592.444 342.376 592.276 343.024 592.228 343.664H594.82Z" fill="#5E60CE"/>
</svg>
