<svg width="214" height="216" viewBox="0 0 214 216" fill="none" xmlns="http://www.w3.org/2000/svg">
<circle cx="107.5" cy="107.5" r="94.5" stroke="white" stroke-width="14"/>
<circle cx="107.5" cy="107.5" r="91.5" fill="#012169"/>
<rect x="84.5" y="14.5" width="45" height="186" rx="8.5" fill="#C8102E" stroke="white" stroke-width="9"/>
<rect x="11.5" y="130.5" width="45" height="73" rx="9.5" transform="rotate(-90 11.5 130.5)" fill="#C8102E" stroke="white" stroke-width="9"/>
<rect x="47.2224" y="182.154" width="22.1425" height="56.8326" rx="3.5" transform="rotate(-133.741 47.2224 182.154)" fill="#C8102E" stroke="white" stroke-width="5"/>
<rect x="142.271" y="90.4224" width="22.1425" height="57.3064" rx="3.5" transform="rotate(-133.741 142.271 90.4224)" fill="#C8102E" stroke="white" stroke-width="5"/>
<rect x="79.1919" y="148.188" width="17.1425" height="31.3678" rx="1" transform="rotate(-133.741 79.1919 148.188)" fill="#C8102E"/>
<rect x="130.5" y="130.5" width="45" height="73" rx="10.5" transform="rotate(-90 130.5 130.5)" fill="#C8102E" stroke="white" stroke-width="9"/>
<rect x="75" y="126" width="36" height="66" transform="rotate(-90 75 126)" fill="#C8102E"/>
<rect x="129.717" y="98.7275" width="17.1425" height="31.3678" rx="1" transform="rotate(-133.741 129.717 98.7275)" fill="#C8102E"/>
<rect x="181.703" y="167.469" width="22.1425" height="56.0385" rx="3.5" transform="rotate(136.26 181.703 167.469)" fill="#C8102E" stroke="white" stroke-width="5"/>
<rect x="87.0794" y="73.0548" width="22.1425" height="55.1864" rx="3.5" transform="rotate(136.26 87.0794 73.0548)" fill="#C8102E" stroke="white" stroke-width="5"/>
<rect x="149.23" y="136.941" width="17.1425" height="31.3678" rx="1" transform="rotate(136.26 149.23 136.941)" fill="#C8102E"/>
<rect x="95.9985" y="86.416" width="17.1425" height="31.3678" rx="1" transform="rotate(136.26 95.9985 86.416)" fill="#C8102E"/>
</svg>
