<svg width="717" height="463" viewBox="0 0 717 463" fill="none" xmlns="http://www.w3.org/2000/svg">
<path d="M374.5 180C374.5 248.184 319.007 303.5 250.5 303.5C181.993 303.5 126.5 248.184 126.5 180C126.5 111.816 181.993 56.5 250.5 56.5C319.007 56.5 374.5 111.816 374.5 180Z" fill="white" stroke="#5E60CE" stroke-width="13"/>
<path d="M244.968 122.952L232.872 122.664C233.016 124.392 232.728 126.984 232.584 129.576C232.296 132.744 231.864 136.488 231.432 140.664C228.12 140.808 224.952 140.808 221.64 140.808C215.448 140.808 202.92 139.8 197.88 138.936L198.168 149.736C204.072 150.168 215.304 150.744 221.496 150.744C224.376 150.744 227.256 150.744 230.28 150.6C229.704 157.368 228.984 164.568 228.696 171.768C208.824 180.984 192.696 199.848 192.696 218.424C192.696 230.664 200.184 236.568 209.688 236.568C217.608 236.568 226.248 233.4 234.168 228.648C234.888 231.528 235.608 234.264 236.472 236.712L246.84 233.544C245.688 229.944 244.536 226.056 243.384 221.88C255.624 211.512 267.288 195.528 275.496 175.08C288.888 178.968 296.232 188.76 296.232 199.704C296.232 218.424 280.104 231.816 254.04 234.552L260.232 244.2C293.64 238.872 307.32 221.016 307.32 200.28C307.32 184.44 296.664 171.192 278.664 166.44C278.664 166.152 278.808 166.008 278.808 165.864C279.528 163.56 280.824 159.672 281.688 157.656L270.312 154.776C270.168 157.224 269.448 160.968 268.728 163.128C268.584 163.704 268.44 164.136 268.296 164.568C266.568 164.424 264.84 164.424 262.968 164.424C255.624 164.424 246.84 165.72 238.776 168.024C239.208 161.976 239.64 155.928 240.36 150.312C257.928 149.448 277.08 147.432 292.2 144.84L292.056 134.184C277.368 137.64 259.8 139.512 241.512 140.376C242.088 136.2 242.664 132.456 243.24 129.432C243.672 127.416 244.248 124.824 244.968 122.952ZM238.344 184.008C238.344 181.992 238.344 180.12 238.488 178.104C245.112 175.656 253.464 173.496 262.824 173.496C263.688 173.496 264.552 173.496 265.272 173.496C259.224 189.624 250.44 201.288 240.792 210.36C239.352 202.008 238.344 193.224 238.344 184.008ZM203.64 216.552C203.64 204.744 214.296 190.488 228.264 182.568C228.264 183.432 228.264 184.296 228.264 185.16C228.264 195.96 229.704 207.624 231.72 217.848C224.376 223.032 217.464 225.48 211.848 225.48C206.376 225.48 203.64 222.456 203.64 216.552Z" fill="#5F5858"/>
<path d="M139.906 307.233L151.147 262.797L186.101 292.447L139.906 307.233Z" fill="#5E60CE" stroke="#5E60CE" stroke-width="3.5"/>
<path d="M572.5 277C572.5 345.184 517.007 400.5 448.5 400.5C379.993 400.5 324.5 345.184 324.5 277C324.5 208.816 379.993 153.5 448.5 153.5C517.007 153.5 572.5 208.816 572.5 277Z" fill="white" stroke="white" stroke-width="13"/>
<path d="M580.5 280C580.5 348.184 525.007 403.5 456.5 403.5C387.993 403.5 332.5 348.184 332.5 280C332.5 211.816 387.993 156.5 456.5 156.5C525.007 156.5 580.5 211.816 580.5 280Z" fill="white" stroke="#5E60CE" stroke-width="13"/>
<path d="M397.416 330.872C394.344 330.872 391.704 330.056 389.496 328.424C387.384 326.792 385.992 324.68 385.32 322.088L391.944 318.488C392.424 319.736 393.096 320.792 393.96 321.656C394.92 322.424 396.024 322.808 397.272 322.808C398.424 322.808 399.336 322.424 400.008 321.656C400.776 320.888 401.544 319.592 402.312 317.768L439.176 229.208H442.056L483.96 329H474.744L461.064 296.312H420.024L409.224 323.096C408.264 325.496 406.68 327.416 404.472 328.856C402.264 330.2 399.912 330.872 397.416 330.872ZM457.608 288.248L442.056 249.512L440.472 243.752L439.032 249.512L423.48 288.248H457.608ZM502.759 227.624H512.839L511.543 308.984H504.055L502.759 227.624ZM507.655 330.872C506.023 330.872 504.583 330.248 503.335 329C502.183 327.848 501.607 326.456 501.607 324.824C501.607 323.096 502.183 321.656 503.335 320.504C504.583 319.256 506.023 318.632 507.655 318.632C509.383 318.632 510.823 319.256 511.975 320.504C513.223 321.656 513.847 323.096 513.847 324.824C513.847 326.456 513.223 327.848 511.975 329C510.823 330.248 509.383 330.872 507.655 330.872Z" fill="#5F5858"/>
<path d="M532.444 384.614L563.998 351.369L579.964 394.334L532.444 384.614Z" fill="#5E60CE" stroke="#5E60CE" stroke-width="3.5"/>
</svg>
