<svg width="717" height="463" viewBox="0 0 717 463" fill="none" xmlns="http://www.w3.org/2000/svg">
<path d="M374.5 180C374.5 248.184 319.007 303.5 250.5 303.5C181.993 303.5 126.5 248.184 126.5 180C126.5 111.816 181.993 56.5 250.5 56.5C319.007 56.5 374.5 111.816 374.5 180Z" fill="white" stroke="#5E60CE" stroke-width="13"/>
<path d="M273.36 149.19C275.4 149.19 277.78 150.833 280.5 154.12C286.393 161.147 290.36 171.12 292.4 184.04C293.42 190.387 293.307 196.903 292.06 203.59C289.68 214.923 283.56 224.103 273.7 231.13C261.913 239.29 250.297 243.54 238.85 243.88C217.997 244.56 204.737 237.307 199.07 222.12C197.597 217.813 197.37 212.77 198.39 206.99C199.297 200.87 201.11 194.75 203.83 188.63C206.55 182.397 210.007 176.163 214.2 169.93C214.767 169.137 215.39 168.853 216.07 169.08C216.863 169.307 217.373 169.647 217.6 170.1C217.94 170.667 217.827 171.403 217.26 172.31C209.667 183.303 205.813 192.427 205.7 199.68C205.587 207.16 208.307 213.507 213.86 218.72C219.527 224.047 227.913 226.483 239.02 226.03C246.16 225.69 253.073 224.217 259.76 221.61C266.56 219.003 273.077 215.207 279.31 210.22C284.863 205.8 287.81 201.55 288.15 197.47C288.49 193.39 287.073 189.763 283.9 186.59C276.987 193.843 269.79 196.223 262.31 193.73C253.017 190.67 250.863 182.51 255.85 169.25C260.837 155.877 266.673 149.19 273.36 149.19ZM274.21 172.48C271.83 169.76 269.677 168.4 267.75 168.4C266.05 168.4 264.407 169.59 262.82 171.97C264.293 173.557 266.163 174.463 268.43 174.69C270.47 174.803 272.397 174.067 274.21 172.48ZM273.36 110.94C273.587 110.6 274.04 110.487 274.72 110.6C276.987 111.393 279.083 112.357 281.01 113.49C283.05 114.623 284.977 115.983 286.79 117.57C287.243 118.023 287.3 118.533 286.96 119.1L278.8 132.02C278.573 132.36 278.063 132.247 277.27 131.68C276.93 131.34 275.967 130.717 274.38 129.81C272.793 128.79 270.527 127.43 267.58 125.73L261.12 135.76C260.78 136.327 260.213 136.27 259.42 135.59C258.967 135.25 257.777 134.457 255.85 133.21C253.923 131.963 251.147 130.263 247.52 128.11C247.067 127.77 247.01 127.43 247.35 127.09L255.68 114.68C255.907 114.34 256.36 114.227 257.04 114.34C258.967 114.907 260.78 115.7 262.48 116.72C264.18 117.627 265.767 118.703 267.24 119.95L273.36 110.94Z" fill="#5F5858"/>
<path d="M139.906 307.233L151.147 262.797L186.101 292.447L139.906 307.233Z" fill="#5E60CE" stroke="#5E60CE" stroke-width="3.5"/>
<path d="M574.5 278C574.5 346.184 519.007 401.5 450.5 401.5C381.993 401.5 326.5 346.184 326.5 278C326.5 209.816 381.993 154.5 450.5 154.5C519.007 154.5 574.5 209.816 574.5 278Z" fill="white" stroke="white" stroke-width="13"/>
<path d="M580.5 280C580.5 348.184 525.007 403.5 456.5 403.5C387.993 403.5 332.5 348.184 332.5 280C332.5 211.816 387.993 156.5 456.5 156.5C525.007 156.5 580.5 211.816 580.5 280Z" fill="white" stroke="#5E60CE" stroke-width="13"/>
<path d="M532.444 384.614L563.998 351.369L579.964 394.334L532.444 384.614Z" fill="#5E60CE" stroke="#5E60CE" stroke-width="3.5"/>
<path d="M489.008 344.04V321H411.392V344.04H402.752V312.936L410.672 312.648C417.584 300.456 422.864 289.944 426.512 281.112C430.16 272.28 432.848 263.592 434.576 255.048C436.304 246.504 437.84 235.656 439.184 222.504H484.976L484.832 312.936H497.648V344.04H489.008ZM446.816 230.568C444.992 246.888 442.16 260.856 438.32 272.472C434.48 284.088 428.24 297.576 419.6 312.936H476.336V230.568H446.816Z" fill="#5F5858"/>
</svg>
