<svg width="717" height="463" viewBox="0 0 717 463" fill="none" xmlns="http://www.w3.org/2000/svg">
<path d="M374.5 180C374.5 248.184 319.007 303.5 250.5 303.5C181.993 303.5 126.5 248.184 126.5 180C126.5 111.816 181.993 56.5 250.5 56.5C319.007 56.5 374.5 111.816 374.5 180Z" fill="white" stroke="#5E60CE" stroke-width="13"/>
<path d="M261.24 134.328H228.984V118.488H217.176V134.328H185.064V143.832H261.24V134.328ZM203.496 174.936C203.496 166.008 211.416 160.248 223.08 160.248C234.744 160.248 242.808 166.008 242.808 174.936C242.808 184.008 234.744 189.768 223.08 189.768C211.416 189.768 203.496 184.008 203.496 174.936ZM254.04 174.936C254.04 160.536 241.368 151.032 223.08 151.032C204.792 151.032 192.264 160.536 192.264 174.936C192.264 189.48 204.792 198.984 223.08 198.984C241.368 198.984 254.04 189.48 254.04 174.936ZM216.312 207.768H204.504V244.776H290.616V235.128H216.312V207.768ZM284.856 161.112V118.488H273.048V215.4H284.856V171.048H303.864V161.112H284.856Z" fill="#5F5858"/>
<path d="M139.906 307.233L151.147 262.797L186.101 292.447L139.906 307.233Z" fill="#5E60CE" stroke="#5E60CE" stroke-width="3.5"/>
<path d="M574.5 278C574.5 346.184 519.007 401.5 450.5 401.5C381.993 401.5 326.5 346.184 326.5 278C326.5 209.816 381.993 154.5 450.5 154.5C519.007 154.5 574.5 209.816 574.5 278Z" fill="white" stroke="white" stroke-width="13"/>
<path d="M580.5 280C580.5 348.184 525.007 403.5 456.5 403.5C387.993 403.5 332.5 348.184 332.5 280C332.5 211.816 387.993 156.5 456.5 156.5C525.007 156.5 580.5 211.816 580.5 280Z" fill="white" stroke="#5E60CE" stroke-width="13"/>
<path d="M397.416 330.872C394.344 330.872 391.704 330.056 389.496 328.424C387.384 326.792 385.992 324.68 385.32 322.088L391.944 318.488C392.424 319.736 393.096 320.792 393.96 321.656C394.92 322.424 396.024 322.808 397.272 322.808C398.424 322.808 399.336 322.424 400.008 321.656C400.776 320.888 401.544 319.592 402.312 317.768L439.176 229.208H442.056L483.96 329H474.744L461.064 296.312H420.024L409.224 323.096C408.264 325.496 406.68 327.416 404.472 328.856C402.264 330.2 399.912 330.872 397.416 330.872ZM457.608 288.248L442.056 249.512L440.472 243.752L439.032 249.512L423.48 288.248H457.608ZM502.759 227.624H512.839L511.543 308.984H504.055L502.759 227.624ZM507.655 330.872C506.023 330.872 504.583 330.248 503.335 329C502.183 327.848 501.607 326.456 501.607 324.824C501.607 323.096 502.183 321.656 503.335 320.504C504.583 319.256 506.023 318.632 507.655 318.632C509.383 318.632 510.823 319.256 511.975 320.504C513.223 321.656 513.847 323.096 513.847 324.824C513.847 326.456 513.223 327.848 511.975 329C510.823 330.248 509.383 330.872 507.655 330.872Z" fill="#5F5858"/>
<path d="M532.444 384.614L563.998 351.369L579.964 394.334L532.444 384.614Z" fill="#5E60CE" stroke="#5E60CE" stroke-width="3.5"/>
</svg>
